Glegoo-deva-regular.ufo
<glyph name="numbersign" format="1">
  <advance width="795"/>
  <unicode hex="0023"/>
  <outline>
    <contour>
      <point x="128" y="-106" type="line" name="hr00"/>
      <point x="199" y="-106" type="line"/>
      <point x="359" y="775" type="line"/>
      <point x="288" y="775" type="line"/>
    </contour>
    <contour>
      <point x="438" y="-106" type="line"/>
      <point x="509" y="-106" type="line"/>
      <point x="669" y="775" type="line"/>
      <point x="598" y="775" type="line"/>
    </contour>
    <contour>
      <point x="60" y="150" type="line"/>
      <point x="671" y="150" type="line"/>
      <point x="681" y="209" type="line"/>
      <point x="70" y="209" type="line"/>
    </contour>
    <contour>
      <point x="114" y="460" type="line"/>
      <point x="725" y="460" type="line"/>
      <point x="735" y="519" type="line"/>
      <point x="124" y="519" type="line"/>
    </contour>
  </outline>
</glyph>
<glyph name="dollar" format="1">
  <advance width="580"/>
  <unicode hex="0024"/>
  <outline>
    <contour>
      <point x="338" y="295" type="line" smooth="yes" name="hr00"/>
      <point x="412" y="282" smooth="yes"/>
      <point x="442" y="241" smooth="yes"/>
      <point x="442" y="181" type="curve" smooth="yes"/>
      <point x="442" y="96" smooth="yes"/>
      <point x="410" y="45" smooth="yes"/>
      <point x="292" y="45" type="curve" smooth="yes"/>
      <point x="174" y="45"/>
      <point x="135" y="95"/>
      <point x="135" y="185" type="curve"/>
      <point x="73" y="181" type="line"/>
      <point x="73" y="60" smooth="yes"/>
      <point x="127" y="-14" smooth="yes"/>
      <point x="292" y="-14" type="curve" smooth="yes"/>
      <point x="458" y="-14" smooth="yes"/>
      <point x="512" y="64" smooth="yes"/>
      <point x="512" y="181" type="curve" smooth="yes"/>
      <point x="512" y="284" smooth="yes"/>
      <point x="462" y="342" smooth="yes"/>
      <point x="338" y="361" type="curve" smooth="yes"/>
      <point x="246" y="375" type="line" smooth="yes"/>
      <point x="177" y="386" smooth="yes"/>
      <point x="153" y="429" smooth="yes"/>
      <point x="153" y="489" type="curve" smooth="yes"/>
      <point x="153" y="574" smooth="yes"/>
      <point x="183" y="625" smooth="yes"/>
      <point x="293" y="625" type="curve" smooth="yes"/>
      <point x="403" y="625"/>
      <point x="440" y="577"/>
      <point x="440" y="487" type="curve"/>
      <point x="502" y="491" type="line"/>
      <point x="502" y="612" smooth="yes"/>
      <point x="448" y="684" smooth="yes"/>
      <point x="291" y="684" type="curve" smooth="yes"/>
      <point x="134" y="684" smooth="yes"/>
      <point x="83" y="612" smooth="yes"/>
      <point x="83" y="489" type="curve" smooth="yes"/>
      <point x="83" y="386" smooth="yes"/>
      <point x="128" y="327" smooth="yes"/>
      <point x="246" y="309" type="curve" smooth="yes"/>
    </contour>
    <contour>
      <point x="266" y="-74" type="line"/>
      <point x="316" y="-74" type="line"/>
      <point x="316" y="744" type="line"/>
      <point x="266" y="744" type="line"/>
    </contour>
  </outline>
</glyph>
<glyph name="ampersand" format="1">
  <advance width="609"/>
  <unicode hex="0026"/>
  <outline>
    <contour>
      <point x="276" y="655" type="curve" smooth="yes"/>
      <point x="173" y="655" smooth="yes"/>
      <point x="144" y="602" smooth="yes"/>
      <point x="144" y="521" type="curve" smooth="yes"/>
      <point x="144" y="447" smooth="yes"/>
      <point x="190" y="385" smooth="yes"/>
      <point x="272" y="385" type="curve" smooth="yes"/>
      <point x="609" y="385" type="line"/>
      <point x="609" y="341" type="line"/>
      <point x="272" y="341" type="line" smooth="yes"/>
      <point x="161" y="341" smooth="yes"/>
      <point x="74" y="413" smooth="yes"/>
      <point x="74" y="525" type="curve" smooth="yes"/>
      <point x="74" y="638" smooth="yes"/>
      <point x="125" y="714" smooth="yes"/>
      <point x="275" y="714" type="curve" smooth="yes"/>
      <point x="412" y="714"/>
      <point x="463" y="638"/>
      <point x="463" y="520" type="curve"/>
      <point x="401" y="520" type="line"/>
      <point x="401" y="601" smooth="yes"/>
      <point x="369" y="655" smooth="yes"/>
    </contour>
    <contour>
      <point x="55" y="182" type="curve" smooth="yes"/>
      <point x="55" y="316" smooth="yes"/>
      <point x="146" y="379" smooth="yes"/>
      <point x="251" y="379" type="curve" smooth="yes"/>
      <point x="609" y="379" type="line"/>
      <point x="609" y="331" type="line"/>
      <point x="263" y="331" type="line" smooth="yes" name="hr01"/>
      <point x="161" y="331" smooth="yes"/>
      <point x="125" y="264" smooth="yes"/>
      <point x="125" y="178" type="curve" smooth="yes"/>
      <point x="125" y="94" smooth="yes"/>
      <point x="168" y="45" smooth="yes"/>
      <point x="281" y="45" type="curve" smooth="yes"/>
      <point x="396" y="45" smooth="yes"/>
      <point x="434" y="98" smooth="yes"/>
      <point x="434" y="179" type="curve" smooth="yes"/>
      <point x="434" y="331" type="line"/>
      <point x="496" y="331" type="line"/>
      <point x="496" y="179" type="line" smooth="yes"/>
      <point x="496" y="58" smooth="yes"/>
      <point x="443" y="-14" smooth="yes"/>
      <point x="281" y="-14" type="curve" smooth="yes" name="hr02"/>
      <point x="124" y="-14" smooth="yes"/>
      <point x="55" y="56" smooth="yes"/>
    </contour>
  </outline>
</glyph>
<glyph name="quotesingle" format="1">
  <advance width="240"/>
  <unicode hex="0027"/>
  <outline>
    <contour>
      <point x="80" y="730" type="line" name="hr00"/>
      <point x="80" y="650" type="line"/>
      <point x="98" y="491" type="line"/>
      <point x="142" y="491" type="line"/>
      <point x="160" y="650" type="line"/>
      <point x="160" y="730" type="line"/>
    </contour>
  </outline>
</glyph>
<glyph name="parenright" format="1">
  <advance width="294"/>
  <unicode hex="0029"/>
  <outline>
    <contour>
      <point x="5" y="735" type="line" name="hr00"/>
      <point x="206" y="735" smooth="yes"/>
      <point x="229" y="585" smooth="yes"/>
      <point x="229" y="334" type="curve" smooth="yes"/>
      <point x="229" y="86"/>
      <point x="206" y="-66"/>
      <point x="5" y="-66" type="curve"/>
      <point x="5" y="-4" type="line"/>
      <point x="138" y="-4" smooth="yes"/>
      <point x="152" y="123" smooth="yes"/>
      <point x="152" y="334" type="curve" smooth="yes"/>
      <point x="152" y="546"/>
      <point x="138" y="673"/>
      <point x="5" y="673" type="curve"/>
    </contour>
  </outline>
</glyph>
<glyph name="asterisk" format="1">
  <advance width="552"/>
  <unicode hex="002A"/>
  <outline>
    <contour>
      <point x="236" y="779" type="line" name="hr00"/>
      <point x="236" y="700" type="line"/>
      <point x="264" y="577" type="line"/>
      <point x="288" y="577" type="line"/>
      <point x="316" y="700" type="line"/>
      <point x="316" y="779" type="line"/>
    </contour>
    <contour>
      <point x="27" y="570" type="line"/>
      <point x="102" y="545" type="line"/>
      <point x="228" y="534" type="line"/>
      <point x="236" y="556" type="line"/>
      <point x="127" y="621" type="line"/>
      <point x="52" y="645" type="line"/>
    </contour>
    <contour>
      <point x="162" y="306" type="line"/>
      <point x="209" y="370" type="line"/>
      <point x="258" y="486" type="line"/>
      <point x="239" y="501" type="line"/>
      <point x="144" y="418" type="line"/>
      <point x="98" y="353" type="line"/>
    </contour>
    <contour>
      <point x="454" y="353" type="line"/>
      <point x="408" y="418" type="line"/>
      <point x="313" y="500" type="line"/>
      <point x="293" y="486" type="line"/>
      <point x="343" y="370" type="line"/>
      <point x="390" y="306" type="line"/>
    </contour>
    <contour>
      <point x="500" y="645" type="line"/>
      <point x="424" y="621" type="line"/>
      <point x="317" y="556" type="line"/>
      <point x="324" y="533" type="line"/>
      <point x="450" y="545" type="line"/>
      <point x="525" y="570" type="line"/>
    </contour>
  </outline>
</glyph>
<glyph name="comma" format="1">
  <advance width="226"/>
  <unicode hex="002C"/>
  <outline>
    <contour>
      <point x="65" y="50" type="curve" smooth="yes" name="hr00"/>
      <point x="65" y="25" smooth="yes"/>
      <point x="77" y="5" smooth="yes"/>
      <point x="77" y="-14" type="curve" smooth="yes"/>
      <point x="77" y="-57"/>
      <point x="59" y="-74"/>
      <point x="38" y="-93" type="curve"/>
      <point x="61" y="-120" type="line"/>
      <point x="61" y="-120" smooth="yes"/>
      <point x="161" y="-51" smooth="yes"/>
      <point x="161" y="50" type="curve" smooth="yes"/>
      <point x="161" y="78" smooth="yes"/>
      <point x="158" y="109" smooth="yes"/>
      <point x="112" y="109" type="curve" smooth="yes"/>
      <point x="68" y="109" smooth="yes"/>
      <point x="65" y="78" smooth="yes"/>
    </contour>
  </outline>
</glyph>
<glyph name="hyphen" format="1">
  <advance width="492"/>
  <unicode hex="002D"/>
  <outline>
    <contour>
      <point x="70" y="288" type="line" name="hr00"/>
      <point x="422" y="288" type="line"/>
      <point x="422" y="348" type="line"/>
      <point x="70" y="348" type="line"/>
    </contour>
  </outline>
</glyph>
<glyph name="period" format="1">
  <advance width="226"/>
  <unicode hex="002E"/>
  <outline>
    <contour>
      <point x="112" y="-8" type="curve" name="hr00"/>
      <point x="158" y="-8" smooth="yes"/>
      <point x="161" y="23" smooth="yes"/>
      <point x="161" y="50" type="curve" smooth="yes"/>
      <point x="161" y="78" smooth="yes"/>
      <point x="158" y="109" smooth="yes"/>
      <point x="112" y="109" type="curve" smooth="yes"/>
      <point x="68" y="109" smooth="yes"/>
      <point x="65" y="78" smooth="yes"/>
      <point x="65" y="50" type="curve" smooth="yes"/>
      <point x="65" y="23" smooth="yes"/>
      <point x="68" y="-8" smooth="yes"/>
    </contour>
  </outline>
</glyph>
<glyph name="zero" format="1">
  <advance width="580"/>
  <unicode hex="0030"/>
  <outline>
    <contour>
      <point x="289" y="-14" type="curve" smooth="yes" name="hr00"/>
      <point x="497" y="-14" smooth="yes"/>
      <point x="519" y="124" smooth="yes"/>
      <point x="519" y="335" type="curve" smooth="yes"/>
      <point x="519" y="545" smooth="yes"/>
      <point x="497" y="683" smooth="yes"/>
      <point x="289" y="683" type="curve" smooth="yes"/>
      <point x="82" y="683" smooth="yes"/>
      <point x="60" y="545" smooth="yes"/>
      <point x="60" y="335" type="curve" smooth="yes"/>
      <point x="60" y="124" smooth="yes"/>
      <point x="82" y="-14" smooth="yes"/>
    </contour>
    <contour>
      <point x="289" y="45" type="curve" smooth="yes"/>
      <point x="147" y="45" smooth="yes"/>
      <point x="130" y="147" smooth="yes"/>
      <point x="130" y="335" type="curve" smooth="yes"/>
      <point x="130" y="522" smooth="yes"/>
      <point x="147" y="624" smooth="yes"/>
      <point x="289" y="624" type="curve" smooth="yes"/>
      <point x="432" y="624" smooth="yes"/>
      <point x="449" y="522" smooth="yes"/>
      <point x="449" y="335" type="curve" smooth="yes"/>
      <point x="449" y="147" smooth="yes"/>
      <point x="432" y="45" smooth="yes"/>
    </contour>
  </outline>
</glyph>
<glyph name="two" format="1">
  <advance width="580"/>
  <unicode hex="0032"/>
  <outline>
    <contour>
      <point x="171" y="59" type="line"/>
      <point x="377" y="281" type="line" smooth="yes"/>
      <point x="438" y="347" smooth="yes"/>
      <point x="498" y="420" smooth="yes"/>
      <point x="498" y="506" type="curve" smooth="yes"/>
      <point x="498" y="613" smooth="yes"/>
      <point x="445" y="684" smooth="yes"/>
      <point x="292" y="684" type="curve" smooth="yes"/>
      <point x="140" y="684"/>
      <point x="90" y="608"/>
      <point x="90" y="490" type="curve"/>
      <point x="152" y="490" type="line"/>
      <point x="152" y="571" smooth="yes"/>
      <point x="178" y="625" smooth="yes"/>
      <point x="292" y="625" type="curve" smooth="yes"/>
      <point x="397" y="625" smooth="yes"/>
      <point x="428" y="577" smooth="yes"/>
      <point x="428" y="507" type="curve" smooth="yes" name="hr01"/>
      <point x="428" y="442" smooth="yes"/>
      <point x="388" y="394" smooth="yes"/>
      <point x="338" y="340" type="curve" smooth="yes"/>
      <point x="76" y="57" type="line"/>
      <point x="76" y="0" type="line"/>
      <point x="505" y="0" type="line"/>
      <point x="505" y="59" type="line"/>
    </contour>
  </outline>
</glyph>
<glyph name="three" format="1">
  <advance width="580"/>
  <unicode hex="0033"/>
  <outline>
    <contour>
      <point x="290" y="625" type="curve" smooth="yes"/>
      <point x="405" y="625" smooth="yes"/>
      <point x="437" y="572" smooth="yes"/>
      <point x="437" y="491" type="curve" smooth="yes"/>
      <point x="437" y="417" smooth="yes"/>
      <point x="391" y="359" smooth="yes"/>
      <point x="309" y="359" type="curve" smooth="yes"/>
      <point x="202" y="359" type="line"/>
      <point x="202" y="315" type="line"/>
      <point x="309" y="315" type="line" smooth="yes"/>
      <point x="414" y="315" smooth="yes"/>
      <point x="507" y="383" smooth="yes"/>
      <point x="507" y="490" type="curve" smooth="yes"/>
      <point x="507" y="608" smooth="yes"/>
      <point x="452" y="684" smooth="yes"/>
      <point x="290" y="684" type="curve" smooth="yes"/>
      <point x="143" y="684"/>
      <point x="88" y="608"/>
      <point x="88" y="490" type="curve"/>
      <point x="150" y="490" type="line"/>
      <point x="150" y="571" smooth="yes"/>
      <point x="186" y="625" smooth="yes"/>
    </contour>
    <contour>
      <point x="516" y="167" type="curve" smooth="yes"/>
      <point x="516" y="291" smooth="yes"/>
      <point x="425" y="349" smooth="yes"/>
      <point x="320" y="349" type="curve" smooth="yes"/>
      <point x="202" y="349" type="line"/>
      <point x="202" y="305" type="line"/>
      <point x="308" y="305" type="line" smooth="yes"/>
      <point x="410" y="305" smooth="yes"/>
      <point x="446" y="244" smooth="yes"/>
      <point x="446" y="166" type="curve" smooth="yes" name="hr01"/>
      <point x="446" y="90" smooth="yes"/>
      <point x="403" y="45" smooth="yes"/>
      <point x="290" y="45" type="curve" smooth="yes"/>
      <point x="175" y="45"/>
      <point x="137" y="98"/>
      <point x="137" y="179" type="curve"/>
      <point x="75" y="179" type="line"/>
      <point x="75" y="61" smooth="yes"/>
      <point x="128" y="-14" smooth="yes"/>
      <point x="290" y="-14" type="curve" smooth="yes"/>
      <point x="445" y="-14" smooth="yes"/>
      <point x="516" y="51" smooth="yes"/>
    </contour>
  </outline>
</glyph>
<glyph name="five" format="1">
  <advance width="580"/>
  <unicode hex="0035"/>
  <outline>
    <contour>
      <point x="97" y="341" type="line"/>
      <point x="206" y="341" type="line" smooth="yes"/>
      <point x="387" y="341" smooth="yes"/>
      <point x="444" y="295" smooth="yes"/>
      <point x="444" y="196" type="curve" smooth="yes"/>
      <point x="444" y="101" smooth="yes"/>
      <point x="410" y="45" smooth="yes"/>
      <point x="292" y="45" type="curve" smooth="yes"/>
      <point x="174" y="45"/>
      <point x="145" y="105"/>
      <point x="145" y="195" type="curve" name="hr01"/>
      <point x="83" y="195" type="line"/>
      <point x="83" y="64" smooth="yes"/>
      <point x="135" y="-14" smooth="yes"/>
      <point x="292" y="-14" type="curve" smooth="yes"/>
      <point x="458" y="-14" smooth="yes"/>
      <point x="514" y="64" smooth="yes"/>
      <point x="514" y="196" type="curve" smooth="yes"/>
      <point x="514" y="350" smooth="yes"/>
      <point x="417" y="400" smooth="yes"/>
      <point x="207" y="400" type="curve" smooth="yes"/>
      <point x="164" y="400" type="line"/>
      <point x="177" y="611" type="line" name="hr02"/>
      <point x="477" y="611" type="line"/>
      <point x="477" y="670" type="line"/>
      <point x="118" y="670" type="line"/>
    </contour>
  </outline>
</glyph>
<glyph name="six" format="1">
  <advance width="580"/>
  <unicode hex="0036"/>
  <outline>
    <contour>
      <point x="513" y="202" type="curve"/>
      <point x="513" y="302" smooth="yes"/>
      <point x="460" y="383" smooth="yes"/>
      <point x="289" y="383" type="curve" smooth="yes"/>
      <point x="239" y="383"/>
      <point x="163" y="371"/>
      <point x="97" y="346" type="curve"/>
      <point x="97" y="291" type="line"/>
      <point x="169" y="317" smooth="yes"/>
      <point x="216" y="327" smooth="yes"/>
      <point x="288" y="327" type="curve" smooth="yes"/>
      <point x="403" y="327" smooth="yes"/>
      <point x="443" y="271" smooth="yes"/>
      <point x="443" y="202" type="curve" smooth="yes"/>
      <point x="443" y="107" smooth="yes"/>
      <point x="411" y="45" smooth="yes"/>
      <point x="290" y="45" type="curve" smooth="yes"/>
      <point x="162" y="45" smooth="yes"/>
      <point x="131" y="110" smooth="yes"/>
      <point x="131" y="324" type="curve" smooth="yes"/>
      <point x="131" y="508" smooth="yes"/>
      <point x="141" y="625" smooth="yes"/>
      <point x="290" y="625" type="curve" smooth="yes"/>
      <point x="398" y="625"/>
      <point x="439" y="583"/>
      <point x="439" y="482" type="curve"/>
      <point x="501" y="482" type="line"/>
      <point x="500" y="616" smooth="yes"/>
      <point x="447" y="684" smooth="yes"/>
      <point x="288" y="684" type="curve" smooth="yes"/>
      <point x="94" y="684" smooth="yes"/>
      <point x="61" y="549" smooth="yes"/>
      <point x="61" y="289" type="curve" smooth="yes"/>
      <point x="61" y="90" smooth="yes"/>
      <point x="104" y="-14" smooth="yes"/>
      <point x="293" y="-14" type="curve" smooth="yes"/>
      <point x="458" y="-14" smooth="yes"/>
      <point x="513" y="73" smooth="yes"/>
    </contour>
  </outline>
</glyph>
<glyph name="eight" format="1">
  <advance width="580"/>
  <unicode hex="0038"/>
  <outline>
    <contour>
      <point x="262" y="315" type="line" name="hr00"/>
      <point x="177" y="302" smooth="yes"/>
      <point x="136" y="256" smooth="yes"/>
      <point x="136" y="170" type="curve" smooth="yes"/>
      <point x="136" y="94" smooth="yes"/>
      <point x="175" y="45" smooth="yes"/>
      <point x="289" y="45" type="curve" smooth="yes"/>
      <point x="403" y="45" smooth="yes"/>
      <point x="444" y="94" smooth="yes"/>
      <point x="444" y="170" type="curve" smooth="yes"/>
      <point x="444" y="250" smooth="yes"/>
      <point x="417" y="289" smooth="yes"/>
      <point x="334" y="302" type="curve" smooth="yes"/>
      <point x="252" y="315" type="line" smooth="yes"/>
      <point x="132" y="334" smooth="yes"/>
      <point x="75" y="383" smooth="yes"/>
      <point x="75" y="490" type="curve" smooth="yes"/>
      <point x="75" y="608" smooth="yes"/>
      <point x="128" y="684" smooth="yes"/>
      <point x="290" y="684" type="curve" smooth="yes"/>
      <point x="452" y="684" smooth="yes"/>
      <point x="505" y="608" smooth="yes"/>
      <point x="505" y="490" type="curve" smooth="yes"/>
      <point x="505" y="383"/>
      <point x="436" y="337"/>
      <point x="316" y="318" type="curve"/>
      <point x="309" y="358" type="line"/>
      <point x="394" y="371" smooth="yes"/>
      <point x="435" y="416" smooth="yes"/>
      <point x="435" y="490" type="curve" smooth="yes"/>
      <point x="435" y="571" smooth="yes"/>
      <point x="405" y="625" smooth="yes"/>
      <point x="290" y="625" type="curve" smooth="yes"/>
      <point x="175" y="625" smooth="yes"/>
      <point x="145" y="571" smooth="yes"/>
      <point x="145" y="490" type="curve" smooth="yes"/>
      <point x="145" y="416" smooth="yes"/>
      <point x="171" y="381" smooth="yes"/>
      <point x="256" y="368" type="curve" smooth="yes"/>
      <point x="337" y="355" type="line" smooth="yes"/>
      <point x="457" y="335" smooth="yes"/>
      <point x="514" y="287" smooth="yes"/>
      <point x="514" y="170" type="curve" smooth="yes"/>
      <point x="514" y="52" smooth="yes"/>
      <point x="445" y="-14" smooth="yes"/>
      <point x="290" y="-14" type="curve" smooth="yes"/>
      <point x="135" y="-14" smooth="yes"/>
      <point x="66" y="52" smooth="yes"/>
      <point x="66" y="170" type="curve" smooth="yes"/>
      <point x="66" y="287"/>
      <point x="135" y="335"/>
      <point x="255" y="354" type="curve"/>
    </contour>
  </outline>
</glyph>
<glyph name="nine" format="1">
  <advance width="580"/>
  <unicode hex="0039"/>
  <outline>
    <contour>
      <point x="63" y="473" type="curve" name="hr00"/>
      <point x="63" y="368" smooth="yes"/>
      <point x="112" y="278" smooth="yes"/>
      <point x="288" y="278" type="curve" smooth="yes"/>
      <point x="349" y="278"/>
      <point x="408" y="289"/>
      <point x="467" y="309" type="curve"/>
      <point x="467" y="362" type="line"/>
      <point x="395" y="342" smooth="yes"/>
      <point x="357" y="335" smooth="yes"/>
      <point x="292" y="335" type="curve" smooth="yes"/>
      <point x="170" y="335" smooth="yes"/>
      <point x="133" y="404" smooth="yes"/>
      <point x="133" y="473" type="curve" smooth="yes"/>
      <point x="133" y="568" smooth="yes"/>
      <point x="173" y="625" smooth="yes"/>
      <point x="290" y="625" type="curve" smooth="yes"/>
      <point x="415" y="625" smooth="yes"/>
      <point x="443" y="570" smooth="yes"/>
      <point x="443" y="345" type="curve" smooth="yes"/>
      <point x="443" y="107" smooth="yes"/>
      <point x="408" y="45" smooth="yes"/>
      <point x="284" y="45" type="curve" smooth="yes"/>
      <point x="176" y="45"/>
      <point x="135" y="97"/>
      <point x="135" y="188" type="curve"/>
      <point x="73" y="188" type="line"/>
      <point x="74" y="64" smooth="yes"/>
      <point x="127" y="-14" smooth="yes"/>
      <point x="286" y="-14" type="curve" smooth="yes"/>
      <point x="486" y="-14" smooth="yes"/>
      <point x="513" y="121" smooth="yes"/>
      <point x="513" y="344" type="curve" smooth="yes"/>
      <point x="513" y="580" smooth="yes"/>
      <point x="480" y="684" smooth="yes"/>
      <point x="291" y="684" type="curve" smooth="yes"/>
      <point x="126" y="684" smooth="yes"/>
      <point x="66" y="602" smooth="yes"/>
    </contour>
  </outline>
</glyph>
<glyph name="less" format="1">
  <advance width="580"/>
  <unicode hex="003C"/>
  <outline>
    <contour>
      <point x="89" y="279" type="line" name="hr00"/>
      <point x="491" y="111" type="line"/>
      <point x="491" y="177" type="line"/>
      <point x="89" y="341" type="line"/>
    </contour>
    <contour>
      <point x="89" y="293" type="line"/>
      <point x="491" y="457" type="line"/>
      <point x="491" y="523" type="line"/>
      <point x="89" y="355" type="line"/>
    </contour>
  </outline>
</glyph>
<glyph name="equal" format="1">
  <advance width="580"/>
  <unicode hex="003D"/>
  <outline>
    <contour>
      <point x="94" y="388" type="line" name="hr00"/>
      <point x="486" y="388" type="line"/>
      <point x="486" y="448" type="line"/>
      <point x="94" y="448" type="line"/>
    </contour>
    <contour>
      <point x="94" y="188" type="line"/>
      <point x="486" y="188" type="line"/>
      <point x="486" y="248" type="line"/>
      <point x="94" y="248" type="line"/>
    </contour>
  </outline>
</glyph>
<glyph name="greater" format="1">
  <advance width="580"/>
  <unicode hex="003E"/>
  <outline>
    <contour>
      <point x="491" y="341" type="line" name="hr00"/>
      <point x="89" y="177" type="line"/>
      <point x="89" y="111" type="line"/>
      <point x="491" y="279" type="line"/>
    </contour>
    <contour>
      <point x="491" y="355" type="line"/>
      <point x="89" y="523" type="line"/>
      <point x="89" y="457" type="line"/>
      <point x="491" y="293" type="line"/>
    </contour>
  </outline>
</glyph>
<glyph name="A" format="1">
  <advance width="653"/>
  <unicode hex="0041"/>
  <outline>
    <contour>
      <point x="278" y="730" type="line" name="hr00"/>
      <point x="51" y="50" type="line"/>
      <point x="5" y="50" type="line"/>
      <point x="5" y="0" type="line"/>
      <point x="183" y="0" type="line"/>
      <point x="183" y="50" type="line"/>
      <point x="123" y="50" type="line"/>
      <point x="184" y="236" type="line"/>
      <point x="468" y="236" type="line"/>
      <point x="529" y="50" type="line"/>
      <point x="470" y="50" type="line"/>
      <point x="470" y="0" type="line"/>
      <point x="648" y="0" type="line"/>
      <point x="648" y="50" type="line"/>
      <point x="601" y="50" type="line"/>
      <point x="375" y="730" type="line"/>
    </contour>
    <contour>
      <point x="326" y="667" type="line"/>
      <point x="449" y="295" type="line"/>
      <point x="204" y="295" type="line"/>
    </contour>
  </outline>
</glyph>
<glyph name="B" format="1">
  <advance width="629"/>
  <unicode hex="0042"/>
  <outline>
    <contour>
      <point x="130" y="730" type="line"/>
      <point x="130" y="0" type="line"/>
      <point x="202" y="0" type="line"/>
      <point x="202" y="730" type="line"/>
    </contour>
    <contour>
      <point x="360" y="0" type="line" smooth="yes"/>
      <point x="553" y="0" smooth="yes"/>
      <point x="579" y="93" smooth="yes"/>
      <point x="579" y="195" type="curve" smooth="yes"/>
      <point x="579" y="297" smooth="yes"/>
      <point x="553" y="385" smooth="yes"/>
      <point x="360" y="385" type="curve" smooth="yes"/>
      <point x="130" y="385" type="line"/>
      <point x="130" y="0" type="line"/>
    </contour>
    <contour>
      <point x="202" y="59" type="line"/>
      <point x="202" y="343" type="line"/>
      <point x="360" y="343" type="line" smooth="yes"/>
      <point x="488" y="343" smooth="yes"/>
      <point x="507" y="280" smooth="yes"/>
      <point x="507" y="199" type="curve" smooth="yes"/>
      <point x="507" y="120" smooth="yes"/>
      <point x="488" y="59" smooth="yes"/>
      <point x="360" y="59" type="curve" smooth="yes"/>
    </contour>
    <contour>
      <point x="320" y="361" type="line" smooth="yes" name="hr01"/>
      <point x="513" y="361" smooth="yes"/>
      <point x="539" y="446" smooth="yes"/>
      <point x="539" y="543" type="curve" smooth="yes"/>
      <point x="539" y="640" smooth="yes"/>
      <point x="513" y="730" smooth="yes"/>
      <point x="320" y="730" type="curve" smooth="yes"/>
      <point x="130" y="730" type="line"/>
      <point x="130" y="361" type="line"/>
    </contour>
    <contour>
      <point x="202" y="404" type="line"/>
      <point x="202" y="671" type="line"/>
      <point x="320" y="671" type="line" smooth="yes"/>
      <point x="448" y="671" smooth="yes"/>
      <point x="467" y="614" smooth="yes"/>
      <point x="467" y="537" type="curve" smooth="yes"/>
      <point x="467" y="462" smooth="yes"/>
      <point x="448" y="404" smooth="yes"/>
      <point x="320" y="404" type="curve" smooth="yes"/>
    </contour>
    <contour>
      <point x="70" y="680" type="line"/>
      <point x="170" y="680" type="line"/>
      <point x="170" y="730" type="line"/>
      <point x="70" y="730" type="line"/>
    </contour>
    <contour>
      <point x="70" y="0" type="line"/>
      <point x="170" y="0" type="line"/>
      <point x="170" y="50" type="line"/>
      <point x="70" y="50" type="line"/>
    </contour>
  </outline>
</glyph>
<glyph name="F" format="1">
  <advance width="560"/>
  <unicode hex="0046"/>
  <outline>
    <contour>
      <point x="130" y="671" type="line" name="hr00"/>
      <point x="490" y="671" type="line"/>
      <point x="490" y="730" type="line"/>
      <point x="130" y="730" type="line"/>
    </contour>
    <contour>
      <point x="130" y="671" type="line"/>
      <point x="130" y="0" type="line"/>
      <point x="202" y="0" type="line"/>
      <point x="202" y="671" type="line"/>
    </contour>
    <contour>
      <point x="130" y="341" type="line"/>
      <point x="470" y="341" type="line"/>
      <point x="470" y="401" type="line"/>
      <point x="130" y="401" type="line"/>
    </contour>
    <contour>
      <point x="70" y="680" type="line"/>
      <point x="170" y="680" type="line"/>
      <point x="170" y="730" type="line"/>
      <point x="70" y="730" type="line"/>
    </contour>
    <contour>
      <point x="70" y="0" type="line"/>
      <point x="282" y="0" type="line"/>
      <point x="282" y="51" type="line"/>
      <point x="70" y="51" type="line"/>
    </contour>
    <contour>
      <point x="520" y="572" type="line"/>
      <point x="520" y="730" type="line"/>
      <point x="464" y="730" type="line"/>
      <point x="464" y="572" type="line"/>
    </contour>
  </outline>
</glyph>
<glyph name="H" format="1">
  <advance width="752"/>
  <unicode hex="0048"/>
  <outline>
    <contour>
      <point x="130" y="730" type="line"/>
      <point x="130" y="0" type="line"/>
      <point x="202" y="0" type="line"/>
      <point x="202" y="730" type="line"/>
    </contour>
    <contour>
      <point x="183" y="335" type="line"/>
      <point x="594" y="335" type="line"/>
      <point x="594" y="395" type="line"/>
      <point x="183" y="395" type="line"/>
    </contour>
    <contour>
      <point x="550" y="730" type="line"/>
      <point x="550" y="0" type="line"/>
      <point x="622" y="0" type="line"/>
      <point x="622" y="730" type="line"/>
    </contour>
    <contour>
      <point x="70" y="0" type="line"/>
      <point x="262" y="0" type="line"/>
      <point x="262" y="50" type="line"/>
      <point x="70" y="50" type="line"/>
    </contour>
    <contour>
      <point x="70" y="680" type="line"/>
      <point x="262" y="680" type="line"/>
      <point x="262" y="730" type="line"/>
      <point x="70" y="730" type="line"/>
    </contour>
    <contour>
      <point x="490" y="0" type="line"/>
      <point x="682" y="0" type="line"/>
      <point x="682" y="50" type="line"/>
      <point x="490" y="50" type="line"/>
    </contour>
    <contour>
      <point x="490" y="680" type="line"/>
      <point x="682" y="680" type="line"/>
      <point x="682" y="730" type="line"/>
      <point x="490" y="730" type="line"/>
    </contour>
  </outline>
</glyph>
<glyph name="J" format="1">
  <advance width="471"/>
  <unicode hex="004A"/>
  <outline>
    <contour>
      <point x="366" y="730" type="line"/>
      <point x="294" y="730" type="line"/>
      <point x="294" y="183" type="line" smooth="yes"/>
      <point x="294" y="80" smooth="yes"/>
      <point x="276" y="46" smooth="yes"/>
      <point x="190" y="46" type="curve" smooth="yes"/>
      <point x="104" y="46"/>
      <point x="82" y="83"/>
      <point x="82" y="183" type="curve"/>
      <point x="20" y="183" type="line"/>
      <point x="20" y="81" smooth="yes"/>
      <point x="25" y="-14" smooth="yes"/>
      <point x="188" y="-14" type="curve" smooth="yes"/>
      <point x="351" y="-14" smooth="yes"/>
      <point x="366" y="73" smooth="yes"/>
      <point x="366" y="183" type="curve" smooth="yes" name="hr01"/>
    </contour>
    <contour>
      <point x="214" y="680" type="line"/>
      <point x="426" y="680" type="line"/>
      <point x="426" y="730" type="line"/>
      <point x="214" y="730" type="line"/>
    </contour>
  </outline>
</glyph>
<glyph name="M" format="1">
  <advance width="896"/>
  <unicode hex="004D"/>
  <outline>
    <contour>
      <point x="130" y="730" type="line" name="hr00"/>
      <point x="130" y="0" type="line"/>
      <point x="202" y="0" type="line"/>
      <point x="202" y="730" type="line"/>
    </contour>
    <contour>
      <point x="667" y="730" type="line"/>
      <point x="408" y="56" type="line"/>
      <point x="476" y="56" type="line"/>
      <point x="738" y="730" type="line"/>
    </contour>
    <contour>
      <point x="694" y="730" type="line"/>
      <point x="694" y="0" type="line"/>
      <point x="766" y="0" type="line"/>
      <point x="766" y="730" type="line"/>
    </contour>
    <contour>
      <point x="472" y="56" type="line"/>
      <point x="229" y="730" type="line"/>
      <point x="158" y="730" type="line"/>
      <point x="404" y="56" type="line"/>
    </contour>
    <contour>
      <point x="70" y="0" type="line"/>
      <point x="262" y="0" type="line"/>
      <point x="262" y="50" type="line"/>
      <point x="70" y="50" type="line"/>
    </contour>
    <contour>
      <point x="70" y="680" type="line"/>
      <point x="170" y="680" type="line"/>
      <point x="170" y="730" type="line"/>
      <point x="70" y="730" type="line"/>
    </contour>
    <contour>
      <point x="634" y="0" type="line"/>
      <point x="826" y="0" type="line"/>
      <point x="826" y="50" type="line"/>
      <point x="634" y="50" type="line"/>
    </contour>
    <contour>
      <point x="726" y="680" type="line"/>
      <point x="826" y="680" type="line"/>
      <point x="826" y="730" type="line"/>
      <point x="726" y="730" type="line"/>
    </contour>
  </outline>
</glyph>
<glyph name="P" format="1">
  <advance width="599"/>
  <unicode hex="0050"/>
  <outline>
    <contour>
      <point x="130" y="671" type="line" name="hr00"/>
      <point x="130" y="0" type="line"/>
      <point x="202" y="0" type="line"/>
      <point x="202" y="671" type="line"/>
    </contour>
    <contour>
      <point x="330" y="275" type="line" smooth="yes"/>
      <point x="528" y="275" smooth="yes"/>
      <point x="549" y="385" smooth="yes"/>
      <point x="549" y="502" type="curve" smooth="yes"/>
      <point x="549" y="620" smooth="yes"/>
      <point x="528" y="730" smooth="yes"/>
      <point x="330" y="730" type="curve" smooth="yes"/>
      <point x="130" y="730" type="line"/>
      <point x="130" y="275" type="line"/>
    </contour>
    <contour>
      <point x="202" y="334" type="line"/>
      <point x="202" y="671" type="line"/>
      <point x="330" y="671" type="line" smooth="yes"/>
      <point x="463" y="671" smooth="yes"/>
      <point x="477" y="597" smooth="yes"/>
      <point x="477" y="502" type="curve" smooth="yes"/>
      <point x="477" y="408" smooth="yes"/>
      <point x="463" y="334" smooth="yes"/>
      <point x="330" y="334" type="curve" smooth="yes"/>
    </contour>
    <contour>
      <point x="70" y="0" type="line"/>
      <point x="282" y="0" type="line"/>
      <point x="282" y="50" type="line"/>
      <point x="70" y="50" type="line"/>
    </contour>
    <contour>
      <point x="70" y="680" type="line"/>
      <point x="130" y="680" type="line"/>
      <point x="130" y="730" type="line"/>
      <point x="70" y="730" type="line"/>
    </contour>
  </outline>
</glyph>
<glyph name="S" format="1">
  <advance width="576"/>
  <unicode hex="0053"/>
  <outline>
    <contour>
      <point x="491" y="552" type="line"/>
      <point x="474" y="680" smooth="yes"/>
      <point x="401" y="744" smooth="yes"/>
      <point x="268" y="744" type="curve" smooth="yes"/>
      <point x="102" y="744" smooth="yes"/>
      <point x="54" y="661" smooth="yes"/>
      <point x="54" y="533" type="curve" smooth="yes"/>
      <point x="54" y="406" smooth="yes"/>
      <point x="101" y="365" smooth="yes"/>
      <point x="243" y="338" type="curve" smooth="yes"/>
      <point x="333" y="321" type="line" smooth="yes"/>
      <point x="426" y="303" smooth="yes"/>
      <point x="459" y="277" smooth="yes"/>
      <point x="459" y="182" type="curve" smooth="yes"/>
      <point x="459" y="96" smooth="yes"/>
      <point x="420" y="46" smooth="yes"/>
      <point x="292" y="46" type="curve" smooth="yes"/>
      <point x="158" y="46"/>
      <point x="104" y="124"/>
      <point x="101" y="216" type="curve"/>
      <point x="67" y="216" type="line"/>
      <point x="67" y="96" smooth="yes"/>
      <point x="140" y="-14" smooth="yes"/>
      <point x="302" y="-14" type="curve" smooth="yes"/>
      <point x="478" y="-14" smooth="yes"/>
      <point x="531" y="64" smooth="yes"/>
      <point x="531" y="192" type="curve" smooth="yes"/>
      <point x="531" y="319" smooth="yes"/>
      <point x="479" y="362" smooth="yes"/>
      <point x="335" y="389" type="curve" smooth="yes"/>
      <point x="246" y="406" type="line" smooth="yes"/>
      <point x="145" y="425" smooth="yes"/>
      <point x="126" y="454" smooth="yes"/>
      <point x="126" y="534" type="curve" smooth="yes"/>
      <point x="126" y="626" smooth="yes"/>
      <point x="153" y="684" smooth="yes"/>
      <point x="283" y="684" type="curve" smooth="yes"/>
      <point x="389" y="684"/>
      <point x="446" y="636"/>
      <point x="459" y="552" type="curve"/>
    </contour>
    <contour>
      <point x="513" y="552" type="line" name="hr01"/>
      <point x="513" y="730" type="line"/>
      <point x="459" y="730" type="line"/>
      <point x="459" y="552" type="line"/>
    </contour>
    <contour>
      <point x="101" y="0" type="line"/>
      <point x="101" y="216" type="line"/>
      <point x="47" y="216" type="line"/>
      <point x="47" y="0" type="line"/>
    </contour>
  </outline>
</glyph>
<glyph name="X" format="1">
  <advance width="631"/>
  <unicode hex="0058"/>
  <outline>
    <contour>
      <point x="481" y="702" type="line" name="hr00"/>
      <point x="308" y="417" type="line"/>
      <point x="350" y="362" type="line"/>
      <point x="562" y="702" type="line"/>
    </contour>
    <contour>
      <point x="69" y="701" type="line"/>
      <point x="500" y="25" type="line"/>
      <point x="582" y="25" type="line"/>
      <point x="151" y="701" type="line"/>
    </contour>
    <contour>
      <point x="131" y="25" type="line"/>
      <point x="325" y="346" type="line"/>
      <point x="284" y="401" type="line"/>
      <point x="50" y="25" type="line"/>
    </contour>
    <contour>
      <point x="434" y="0" type="line"/>
      <point x="616" y="0" type="line"/>
      <point x="616" y="50" type="line"/>
      <point x="434" y="50" type="line"/>
    </contour>
    <contour>
      <point x="15" y="0" type="line"/>
      <point x="197" y="0" type="line"/>
      <point x="197" y="50" type="line"/>
      <point x="15" y="50" type="line"/>
    </contour>
    <contour>
      <point x="32" y="680" type="line"/>
      <point x="214" y="680" type="line"/>
      <point x="214" y="730" type="line"/>
      <point x="32" y="730" type="line"/>
    </contour>
    <contour>
      <point x="417" y="680" type="line"/>
      <point x="599" y="680" type="line"/>
      <point x="599" y="730" type="line"/>
      <point x="417" y="730" type="line"/>
    </contour>
  </outline>
</glyph>
<glyph name="Z" format="1">
  <advance width="545"/>
  <unicode hex="005A"/>
  <outline>
    <contour>
      <point x="49" y="671" type="line" name="hr00"/>
      <point x="417" y="671" type="line"/>
      <point x="30" y="46" type="line"/>
      <point x="30" y="0" type="line"/>
      <point x="515" y="0" type="line"/>
      <point x="515" y="59" type="line"/>
      <point x="118" y="59" type="line"/>
      <point x="505" y="684" type="line"/>
      <point x="505" y="730" type="line"/>
      <point x="50" y="730" type="line"/>
    </contour>
    <contour>
      <point x="106" y="572" type="line"/>
      <point x="106" y="730" type="line"/>
      <point x="50" y="730" type="line"/>
      <point x="50" y="572" type="line"/>
    </contour>
    <contour>
      <point x="515" y="0" type="line"/>
      <point x="515" y="158" type="line"/>
      <point x="459" y="158" type="line"/>
      <point x="459" y="0" type="line"/>
    </contour>
  </outline>
</glyph>
<glyph name="asciicircum" format="1">
  <advance width="580"/>
  <unicode hex="005E"/>
  <outline>
    <contour>
      <point x="252" y="618" type="line" name="hr00"/>
      <point x="104" y="316" type="line"/>
      <point x="170" y="316" type="line"/>
      <point x="314" y="618" type="line"/>
    </contour>
    <contour>
      <point x="266" y="618" type="line"/>
      <point x="410" y="316" type="line"/>
      <point x="476" y="316" type="line"/>
      <point x="328" y="618" type="line"/>
    </contour>
  </outline>
</glyph>
<glyph name="underscore" format="1">
  <advance width="580"/>
  <unicode hex="005F"/>
  <outline>
    <contour>
      <point x="70" y="-60" type="line" name="hr00"/>
      <point x="510" y="-60" type="line"/>
      <point x="510" y="0" type="line"/>
      <point x="70" y="0" type="line"/>
    </contour>
  </outline>
</glyph>
<glyph name="grave" format="1">
  <advance width="314"/>
  <unicode hex="0060"/>
  <outline>
    <contour>
      <point x="222" y="624" type="line" name="hr00"/>
      <point x="50" y="774" type="line"/>
      <point x="103" y="827" type="line"/>
      <point x="264" y="666" type="line"/>
    </contour>
  </outline>
</glyph>
<glyph name="e" format="1">
  <advance width="598"/>
  <unicode hex="0065"/>
  <outline>
    <contour>
      <point x="107" y="270" type="line" name="hr00"/>
      <point x="538" y="270" type="line"/>
      <point x="538" y="286" type="line"/>
      <point x="532" y="325" type="line"/>
      <point x="107" y="325" type="line"/>
    </contour>
    <contour>
      <point x="309" y="-14" type="curve" smooth="yes"/>
      <point x="486" y="-14"/>
      <point x="519" y="76"/>
      <point x="529" y="177" type="curve"/>
      <point x="471" y="180" type="line"/>
      <point x="464" y="103" smooth="yes"/>
      <point x="438" y="45" smooth="yes"/>
      <point x="307" y="45" type="curve" smooth="yes"/>
      <point x="164" y="45" smooth="yes"/>
      <point x="140" y="122" smooth="yes"/>
      <point x="140" y="286" type="curve" smooth="yes"/>
      <point x="140" y="405" smooth="yes"/>
      <point x="147" y="527" smooth="yes"/>
      <point x="304" y="527" type="curve" smooth="yes"/>
      <point x="461" y="527"/>
      <point x="468" y="415"/>
      <point x="468" y="286" type="curve"/>
      <point x="538" y="286" type="line"/>
      <point x="538" y="441" smooth="yes"/>
      <point x="515" y="586" smooth="yes"/>
      <point x="305" y="586" type="curve" smooth="yes"/>
      <point x="94" y="586" smooth="yes"/>
      <point x="70" y="441" smooth="yes"/>
      <point x="70" y="286" type="curve" smooth="yes"/>
      <point x="70" y="92" smooth="yes"/>
      <point x="112" y="-14" smooth="yes"/>
    </contour>
  </outline>
</glyph>
<glyph name="i" format="1">
  <advance width="320"/>
  <unicode hex="0069"/>
  <outline>
    <contour>
      <point x="130" y="572" type="line" name="hr00"/>
      <point x="130" y="0" type="line"/>
      <point x="200" y="0" type="line"/>
      <point x="200" y="572" type="line"/>
    </contour>
    <contour>
      <point x="70" y="0" type="line"/>
      <point x="260" y="0" type="line"/>
      <point x="260" y="50" type="line"/>
      <point x="70" y="50" type="line"/>
    </contour>
    <contour>
      <point x="70" y="522" type="line"/>
      <point x="130" y="522" type="line"/>
      <point x="130" y="572" type="line"/>
      <point x="70" y="572" type="line"/>
    </contour>
    <contour>
      <point x="165" y="672" type="curve" smooth="yes"/>
      <point x="208" y="672" smooth="yes"/>
      <point x="210" y="700" smooth="yes"/>
      <point x="210" y="725" type="curve" smooth="yes"/>
      <point x="210" y="751" smooth="yes"/>
      <point x="208" y="779" smooth="yes"/>
      <point x="165" y="779" type="curve" smooth="yes"/>
      <point x="124" y="779" smooth="yes"/>
      <point x="122" y="751" smooth="yes"/>
      <point x="122" y="725" type="curve" smooth="yes"/>
      <point x="122" y="700" smooth="yes"/>
      <point x="124" y="672" smooth="yes"/>
    </contour>
  </outline>
</glyph>
<glyph name="j" format="1">
  <advance width="310"/>
  <unicode hex="006A"/>
  <outline>
    <contour>
      <point x="-10" y="-172" type="line" name="hr00"/>
      <point x="-10" y="-227" type="line"/>
      <point x="51" y="-227" type="line" smooth="yes"/>
      <point x="173" y="-227" smooth="yes"/>
      <point x="190" y="-171" smooth="yes"/>
      <point x="190" y="-78" type="curve" smooth="yes"/>
      <point x="190" y="572" type="line"/>
      <point x="120" y="572" type="line"/>
      <point x="120" y="-78" type="line" smooth="yes"/>
      <point x="120" y="-138" smooth="yes"/>
      <point x="110" y="-162" smooth="yes"/>
      <point x="51" y="-167" type="curve" smooth="yes"/>
    </contour>
    <contour>
      <point x="60" y="522" type="line"/>
      <point x="152" y="522" type="line"/>
      <point x="152" y="572" type="line"/>
      <point x="60" y="572" type="line"/>
    </contour>
    <contour>
      <point x="165" y="672" type="curve" smooth="yes"/>
      <point x="208" y="672" smooth="yes"/>
      <point x="210" y="700" smooth="yes"/>
      <point x="210" y="725" type="curve" smooth="yes"/>
      <point x="210" y="751" smooth="yes"/>
      <point x="208" y="779" smooth="yes"/>
      <point x="165" y="779" type="curve" smooth="yes"/>
      <point x="124" y="779" smooth="yes"/>
      <point x="122" y="751" smooth="yes"/>
      <point x="122" y="725" type="curve" smooth="yes"/>
      <point x="122" y="700" smooth="yes"/>
      <point x="124" y="672" smooth="yes"/>
    </contour>
  </outline>
</glyph>
<glyph name="m" format="1">
  <advance width="1022"/>
  <unicode hex="006D"/>
  <outline>
    <contour>
      <point x="177" y="433" type="line"/>
      <point x="239" y="498" smooth="yes"/>
      <point x="300" y="527" smooth="yes"/>
      <point x="374" y="527" type="curve" smooth="yes"/>
      <point x="452" y="527" smooth="yes"/>
      <point x="481" y="483" smooth="yes"/>
      <point x="481" y="408" type="curve" smooth="yes"/>
      <point x="481" y="0" type="line"/>
      <point x="551" y="0" type="line"/>
      <point x="551" y="408" type="line" smooth="yes"/>
      <point x="551" y="515" smooth="yes"/>
      <point x="506" y="586" smooth="yes"/>
      <point x="383" y="586" type="curve" smooth="yes"/>
      <point x="290" y="586"/>
      <point x="204" y="530"/>
      <point x="167" y="482" type="curve"/>
    </contour>
    <contour>
      <point x="528" y="433" type="line"/>
      <point x="590" y="498" smooth="yes"/>
      <point x="651" y="527" smooth="yes"/>
      <point x="725" y="527" type="curve" smooth="yes"/>
      <point x="803" y="527" smooth="yes"/>
      <point x="832" y="483" smooth="yes"/>
      <point x="832" y="408" type="curve" smooth="yes"/>
      <point x="832" y="0" type="line"/>
      <point x="902" y="0" type="line"/>
      <point x="902" y="408" type="line" smooth="yes"/>
      <point x="902" y="515" smooth="yes"/>
      <point x="857" y="586" smooth="yes"/>
      <point x="734" y="586" type="curve" smooth="yes"/>
      <point x="641" y="586"/>
      <point x="552" y="530"/>
      <point x="515" y="482" type="curve"/>
    </contour>
    <contour>
      <point x="177" y="572" type="line" name="hr01"/>
      <point x="130" y="572" type="line"/>
      <point x="130" y="0" type="line"/>
      <point x="200" y="0" type="line"/>
      <point x="200" y="487" type="line"/>
    </contour>
    <contour>
      <point x="70" y="0" type="line"/>
      <point x="260" y="0" type="line"/>
      <point x="260" y="50" type="line"/>
      <point x="70" y="50" type="line"/>
    </contour>
    <contour>
      <point x="70" y="522" type="line"/>
      <point x="130" y="522" type="line"/>
      <point x="130" y="572" type="line"/>
      <point x="70" y="572" type="line"/>
    </contour>
    <contour>
      <point x="772" y="0" type="line"/>
      <point x="962" y="0" type="line"/>
      <point x="962" y="50" type="line"/>
      <point x="772" y="50" type="line"/>
    </contour>
    <contour>
      <point x="421" y="0" type="line"/>
      <point x="611" y="0" type="line"/>
      <point x="611" y="50" type="line"/>
      <point x="421" y="50" type="line"/>
    </contour>
  </outline>
</glyph>
<glyph name="r" format="1">
  <advance width="419"/>
  <unicode hex="0072"/>
  <outline>
    <contour>
      <point x="172" y="324" type="line"/>
      <point x="200" y="410"/>
      <point x="263" y="514"/>
      <point x="409" y="519" type="curve"/>
      <point x="409" y="586" type="line"/>
      <point x="243" y="580"/>
      <point x="192" y="459"/>
      <point x="157" y="375" type="curve"/>
    </contour>
    <contour>
      <point x="177" y="572" type="line" name="hr01"/>
      <point x="130" y="572" type="line"/>
      <point x="130" y="0" type="line"/>
      <point x="200" y="0" type="line"/>
      <point x="200" y="458" type="line"/>
    </contour>
    <contour>
      <point x="70" y="0" type="line"/>
      <point x="280" y="0" type="line"/>
      <point x="280" y="50" type="line"/>
      <point x="70" y="50" type="line"/>
    </contour>
    <contour>
      <point x="70" y="522" type="line"/>
      <point x="130" y="522" type="line"/>
      <point x="130" y="572" type="line"/>
      <point x="70" y="572" type="line"/>
    </contour>
  </outline>
</glyph>
<glyph name="t" format="1">
  <advance width="363"/>
  <unicode hex="0074"/>
  <outline>
    <contour>
      <point x="35" y="522" type="line" name="hr00"/>
      <point x="300" y="522" type="line"/>
      <point x="300" y="572" type="line"/>
      <point x="35" y="572" type="line"/>
    </contour>
    <contour>
      <point x="304" y="49" type="line"/>
      <point x="282" y="44" smooth="yes"/>
      <point x="264" y="41" smooth="yes"/>
      <point x="249" y="41" type="curve" smooth="yes"/>
      <point x="210" y="41" smooth="yes"/>
      <point x="195" y="63" smooth="yes"/>
      <point x="195" y="125" type="curve" smooth="yes"/>
      <point x="195" y="700" type="line"/>
      <point x="125" y="686" type="line"/>
      <point x="125" y="125" type="line" smooth="yes"/>
      <point x="125" y="55" smooth="yes"/>
      <point x="133" y="-14" smooth="yes"/>
      <point x="227" y="-14" type="curve" smooth="yes"/>
      <point x="250" y="-14"/>
      <point x="277" y="-10"/>
      <point x="313" y="0" type="curve"/>
    </contour>
  </outline>
</glyph>
<glyph name="u" format="1">
  <advance width="696"/>
  <unicode hex="0075"/>
  <outline>
    <contour>
      <point x="538" y="164" type="line"/>
      <point x="493" y="116" smooth="yes"/>
      <point x="413" y="45" smooth="yes"/>
      <point x="304" y="45" type="curve" smooth="yes"/>
      <point x="219" y="45" smooth="yes"/>
      <point x="190" y="79" smooth="yes"/>
      <point x="190" y="164" type="curve" smooth="yes"/>
      <point x="190" y="572" type="line"/>
      <point x="120" y="572" type="line"/>
      <point x="120" y="163" type="line" smooth="yes"/>
      <point x="120" y="44" smooth="yes"/>
      <point x="160" y="-14" smooth="yes"/>
      <point x="289" y="-14" type="curve" smooth="yes"/>
      <point x="403" y="-14"/>
      <point x="506" y="62"/>
      <point x="548" y="110" type="curve"/>
    </contour>
    <contour>
      <point x="529" y="0" type="line" name="hr01"/>
      <point x="576" y="0" type="line"/>
      <point x="576" y="572" type="line"/>
      <point x="506" y="572" type="line"/>
      <point x="506" y="85" type="line"/>
    </contour>
    <contour>
      <point x="506" y="572" type="line"/>
      <point x="446" y="572" type="line"/>
      <point x="446" y="522" type="line"/>
      <point x="506" y="522" type="line"/>
    </contour>
    <contour>
      <point x="636" y="50" type="line"/>
      <point x="576" y="50" type="line"/>
      <point x="576" y="0" type="line"/>
      <point x="636" y="0" type="line"/>
    </contour>
    <contour>
      <point x="120" y="572" type="line"/>
      <point x="60" y="572" type="line"/>
      <point x="60" y="522" type="line"/>
      <point x="120" y="522" type="line"/>
    </contour>
  </outline>
</glyph>
<glyph name="v" format="1">
  <advance width="572"/>
  <unicode hex="0076"/>
  <outline>
    <contour>
      <point x="324" y="0" type="line" name="hr00"/>
      <point x="542" y="572" type="line"/>
      <point x="471" y="572" type="line"/>
      <point x="257" y="0" type="line"/>
    </contour>
    <contour>
      <point x="315" y="0" type="line"/>
      <point x="101" y="572" type="line"/>
      <point x="30" y="572" type="line"/>
      <point x="248" y="0" type="line"/>
    </contour>
    <contour>
      <point x="176" y="572" type="line"/>
      <point x="10" y="572" type="line"/>
      <point x="10" y="522" type="line"/>
      <point x="176" y="522" type="line"/>
    </contour>
    <contour>
      <point x="562" y="572" type="line"/>
      <point x="396" y="572" type="line"/>
      <point x="396" y="522" type="line"/>
      <point x="562" y="522" type="line"/>
    </contour>
  </outline>
</glyph>
<glyph name="exclamdown" format="1">
  <advance width="316"/>
  <unicode hex="00A1"/>
  <outline>
    <contour>
      <point x="159" y="586" type="curve" smooth="yes" name="hr00"/>
      <point x="203" y="586" smooth="yes"/>
      <point x="206" y="555" smooth="yes"/>
      <point x="206" y="528" type="curve" smooth="yes"/>
      <point x="206" y="500" smooth="yes"/>
      <point x="203" y="469" smooth="yes"/>
      <point x="159" y="469" type="curve" smooth="yes"/>
      <point x="113" y="469" smooth="yes"/>
      <point x="110" y="500" smooth="yes"/>
      <point x="110" y="528" type="curve" smooth="yes"/>
      <point x="110" y="555" smooth="yes"/>
      <point x="113" y="586" smooth="yes"/>
    </contour>
    <contour>
      <point x="199" y="-152" type="line"/>
      <point x="199" y="6" type="line"/>
      <point x="181" y="393" type="line"/>
      <point x="137" y="393" type="line"/>
      <point x="119" y="6" type="line"/>
      <point x="119" y="-152" type="line"/>
    </contour>
  </outline>
</glyph>
<glyph name="sterling" format="1">
  <advance width="580"/>
  <unicode hex="00A3"/>
  <outline>
    <contour>
      <point x="64" y="291" type="line" name="hr00"/>
      <point x="441" y="291" type="line"/>
      <point x="441" y="341" type="line"/>
      <point x="64" y="341" type="line"/>
    </contour>
    <contour>
      <point x="82" y="56" type="curve"/>
      <point x="82" y="0" type="line"/>
      <point x="531" y="0" type="line"/>
      <point x="531" y="59" type="line"/>
      <point x="157" y="59" type="line"/>
      <point x="193" y="87" smooth="yes"/>
      <point x="202" y="115" smooth="yes"/>
      <point x="202" y="174" type="curve" smooth="yes"/>
      <point x="202" y="489" type="line" smooth="yes"/>
      <point x="202" y="574" smooth="yes"/>
      <point x="225" y="625" smooth="yes"/>
      <point x="323" y="625" type="curve" smooth="yes"/>
      <point x="413" y="625"/>
      <point x="452" y="583"/>
      <point x="452" y="485" type="curve"/>
      <point x="514" y="489" type="line"/>
      <point x="514" y="620" smooth="yes"/>
      <point x="462" y="684" smooth="yes"/>
      <point x="319" y="684" type="curve" smooth="yes"/>
      <point x="178" y="684" smooth="yes"/>
      <point x="130" y="612" smooth="yes"/>
      <point x="130" y="489" type="curve" smooth="yes"/>
      <point x="130" y="164" type="line" smooth="yes"/>
      <point x="130" y="129"/>
      <point x="123" y="92"/>
    </contour>
  </outline>
</glyph>
<glyph name="section" format="1">
  <advance width="576"/>
  <unicode hex="00A7"/>
  <outline>
    <contour>
      <point x="512" y="241" type="curve" smooth="yes"/>
      <point x="512" y="344" smooth="yes"/>
      <point x="461" y="391" smooth="yes"/>
      <point x="338" y="416" type="curve" smooth="yes"/>
      <point x="246" y="435" type="line" smooth="yes"/>
      <point x="177" y="449" smooth="yes"/>
      <point x="153" y="490" smooth="yes"/>
      <point x="153" y="549" type="curve" smooth="yes"/>
      <point x="153" y="634" smooth="yes"/>
      <point x="183" y="685" smooth="yes"/>
      <point x="293" y="685" type="curve" smooth="yes"/>
      <point x="403" y="685"/>
      <point x="440" y="637"/>
      <point x="440" y="547" type="curve"/>
      <point x="502" y="551" type="line"/>
      <point x="502" y="672" smooth="yes"/>
      <point x="448" y="744" smooth="yes"/>
      <point x="291" y="744" type="curve" smooth="yes"/>
      <point x="134" y="744" smooth="yes"/>
      <point x="83" y="672" smooth="yes"/>
      <point x="83" y="549" type="curve" smooth="yes"/>
      <point x="83" y="488"/>
      <point x="99" y="443"/>
      <point x="136" y="412" type="curve"/>
      <point x="97" y="378" smooth="yes"/>
      <point x="83" y="327" smooth="yes"/>
      <point x="83" y="261" type="curve" smooth="yes"/>
      <point x="83" y="158" smooth="yes"/>
      <point x="129" y="110" smooth="yes"/>
      <point x="246" y="86" type="curve" smooth="yes"/>
      <point x="338" y="67" type="line" smooth="yes"/>
      <point x="412" y="52" smooth="yes"/>
      <point x="442" y="13" smooth="yes"/>
      <point x="442" y="-47" type="curve" smooth="yes"/>
      <point x="442" y="-132" smooth="yes"/>
      <point x="410" y="-183" smooth="yes"/>
      <point x="292" y="-183" type="curve" smooth="yes"/>
      <point x="174" y="-183"/>
      <point x="135" y="-133"/>
      <point x="135" y="-43" type="curve"/>
      <point x="73" y="-47" type="line"/>
      <point x="73" y="-168" smooth="yes"/>
      <point x="127" y="-242" smooth="yes"/>
      <point x="292" y="-242" type="curve" smooth="yes"/>
      <point x="458" y="-242" smooth="yes"/>
      <point x="512" y="-164" smooth="yes"/>
      <point x="512" y="-47" type="curve" smooth="yes"/>
      <point x="512" y="14"/>
      <point x="494" y="59"/>
      <point x="454" y="90" type="curve"/>
      <point x="496" y="124" smooth="yes"/>
      <point x="512" y="177" smooth="yes"/>
    </contour>
    <contour>
      <point x="346" y="353" type="line" smooth="yes"/>
      <point x="414" y="339" smooth="yes"/>
      <point x="439" y="299" smooth="yes"/>
      <point x="439" y="239" type="curve" smooth="yes"/>
      <point x="439" y="185"/>
      <point x="427" y="139"/>
      <point x="389" y="117" type="curve"/>
      <point x="254" y="145" type="line" smooth="yes"/>
      <point x="178" y="161" smooth="yes"/>
      <point x="153" y="201" smooth="yes"/>
      <point x="153" y="261" type="curve" smooth="yes" name="hr01"/>
      <point x="153" y="315"/>
      <point x="165" y="361"/>
      <point x="203" y="383" type="curve"/>
    </contour>
  </outline>
</glyph>
<glyph name="dieresis" format="1">
  <advance width="308"/>
  <unicode hex="00A8"/>
  <outline>
    <contour>
      <point x="48" y="672" type="curve" smooth="yes" name="hr00"/>
      <point x="7" y="672" smooth="yes"/>
      <point x="5" y="700" smooth="yes"/>
      <point x="5" y="725" type="curve" smooth="yes"/>
      <point x="5" y="751" smooth="yes"/>
      <point x="7" y="779" smooth="yes"/>
      <point x="48" y="779" type="curve" smooth="yes"/>
      <point x="91" y="779" smooth="yes"/>
      <point x="93" y="751" smooth="yes"/>
      <point x="93" y="725" type="curve" smooth="yes"/>
      <point x="93" y="700" smooth="yes"/>
      <point x="91" y="672" smooth="yes"/>
    </contour>
    <contour>
      <point x="258" y="672" type="curve" smooth="yes"/>
      <point x="217" y="672" smooth="yes"/>
      <point x="215" y="700" smooth="yes"/>
      <point x="215" y="725" type="curve" smooth="yes"/>
      <point x="215" y="751" smooth="yes"/>
      <point x="217" y="779" smooth="yes"/>
      <point x="258" y="779" type="curve" smooth="yes"/>
      <point x="301" y="779" smooth="yes"/>
      <point x="303" y="751" smooth="yes"/>
      <point x="303" y="725" type="curve" smooth="yes"/>
      <point x="303" y="700" smooth="yes"/>
      <point x="301" y="672" smooth="yes"/>
    </contour>
  </outline>
</glyph>
<glyph name="ordfeminine" format="1">
  <advance width="427"/>
  <unicode hex="00AA"/>
  <outline>
    <contour>
      <point x="158" y="340" type="curve" smooth="yes"/>
      <point x="217" y="340"/>
      <point x="262" y="366"/>
      <point x="293" y="392" type="curve"/>
      <point x="305" y="350" type="line"/>
      <point x="347" y="350" type="line"/>
      <point x="347" y="648" type="line" smooth="yes"/>
      <point x="347" y="735" smooth="yes"/>
      <point x="282" y="760" smooth="yes"/>
      <point x="205" y="760" type="curve" smooth="yes"/>
      <point x="90" y="760"/>
      <point x="63" y="710"/>
      <point x="57" y="634" type="curve"/>
      <point x="109" y="631" type="line"/>
      <point x="112" y="680" smooth="yes"/>
      <point x="128" y="709" smooth="yes"/>
      <point x="203" y="709" type="curve" smooth="yes"/>
      <point x="247" y="709" smooth="yes"/>
      <point x="283" y="693" smooth="yes"/>
      <point x="283" y="645" type="curve" smooth="yes" name="hr01"/>
      <point x="283" y="581" type="line"/>
      <point x="164" y="573" type="line" smooth="yes"/>
      <point x="63" y="566" smooth="yes"/>
      <point x="40" y="529" smooth="yes"/>
      <point x="40" y="452" type="curve" smooth="yes"/>
      <point x="40" y="383" smooth="yes"/>
      <point x="69" y="340" smooth="yes"/>
    </contour>
    <contour>
      <point x="172" y="390" type="curve" smooth="yes"/>
      <point x="119" y="390" smooth="yes"/>
      <point x="103" y="412" smooth="yes"/>
      <point x="103" y="453" type="curve" smooth="yes"/>
      <point x="103" y="509" smooth="yes"/>
      <point x="120" y="525" smooth="yes"/>
      <point x="174" y="528" type="curve" smooth="yes"/>
      <point x="283" y="535" type="line"/>
      <point x="283" y="436" type="line"/>
      <point x="251" y="406" smooth="yes"/>
      <point x="211" y="390" smooth="yes"/>
    </contour>
    <contour>
      <point x="347" y="350" type="line"/>
      <point x="389" y="350" type="line"/>
      <point x="389" y="393" type="line"/>
      <point x="347" y="393" type="line"/>
    </contour>
    <contour>
      <point x="47" y="256" type="line" name="hr02"/>
      <point x="389" y="256" type="line"/>
      <point x="389" y="299" type="line"/>
      <point x="47" y="299" type="line"/>
    </contour>
  </outline>
</glyph>
<glyph name="logicalnot" format="1">
  <advance width="580"/>
  <unicode hex="00AC"/>
  <outline>
    <contour>
      <point x="94" y="288" type="line" name="hr00"/>
      <point x="486" y="288" type="line"/>
      <point x="486" y="348" type="line"/>
      <point x="94" y="348" type="line"/>
    </contour>
    <contour>
      <point x="486" y="150" type="line"/>
      <point x="486" y="348" type="line"/>
      <point x="430" y="348" type="line"/>
      <point x="430" y="150" type="line"/>
    </contour>
  </outline>
</glyph>
<glyph name="macron" format="1">
  <advance width="354"/>
  <unicode hex="00AF"/>
  <outline>
    <contour>
      <point x="50" y="694" type="line" name="hr00"/>
      <point x="304" y="694" type="line"/>
      <point x="304" y="759" type="line"/>
      <point x="50" y="759" type="line"/>
    </contour>
  </outline>
</glyph>
<glyph name="acute" format="1">
  <advance width="314"/>
  <unicode hex="00B4"/>
  <outline>
    <contour>
      <point x="92" y="624" type="line" name="hr00"/>
      <point x="264" y="774" type="line"/>
      <point x="211" y="827" type="line"/>
      <point x="50" y="666" type="line"/>
    </contour>
  </outline>
</glyph>
<glyph name="paragraph" format="1">
  <advance width="489"/>
  <unicode hex="00B6"/>
  <outline>
    <contour>
      <point x="359" y="611" type="line" name="hr00"/>
      <point x="359" y="0" type="line"/>
      <point x="287" y="0" type="line"/>
      <point x="287" y="611" type="line"/>
    </contour>
    <contour>
      <point x="225" y="285" type="line"/>
      <point x="49" y="285" smooth="yes"/>
      <point x="30" y="378" smooth="yes"/>
      <point x="30" y="477" type="curve" smooth="yes"/>
      <point x="30" y="577" smooth="yes"/>
      <point x="49" y="670" smooth="yes"/>
      <point x="225" y="670" type="curve" smooth="yes"/>
      <point x="359" y="670" type="line"/>
      <point x="359" y="285" type="line"/>
    </contour>
    <contour>
      <point x="419" y="0" type="line"/>
      <point x="207" y="0" type="line"/>
      <point x="207" y="50" type="line"/>
      <point x="419" y="50" type="line"/>
    </contour>
    <contour>
      <point x="419" y="620" type="line"/>
      <point x="359" y="620" type="line"/>
      <point x="359" y="670" type="line"/>
      <point x="419" y="670" type="line"/>
    </contour>
  </outline>
</glyph>
<glyph name="cedilla" format="1">
  <advance width="299"/>
  <unicode hex="00B8"/>
  <outline>
    <contour>
      <point x="50" y="-146" type="line" name="hr00"/>
      <point x="50" y="-204" smooth="yes"/>
      <point x="70" y="-241" smooth="yes"/>
      <point x="149" y="-241" type="curve" smooth="yes"/>
      <point x="229" y="-241" smooth="yes"/>
      <point x="249" y="-204" smooth="yes"/>
      <point x="249" y="-145" type="curve" smooth="yes"/>
      <point x="249" y="-69" smooth="yes"/>
      <point x="207" y="-55" smooth="yes"/>
      <point x="141" y="-55" type="curve" smooth="yes"/>
      <point x="99" y="-55" type="line"/>
      <point x="93" y="-86" type="line"/>
      <point x="147" y="-96" type="line" smooth="yes"/>
      <point x="183" y="-103" smooth="yes"/>
      <point x="194" y="-114" smooth="yes"/>
      <point x="194" y="-146" type="curve" smooth="yes"/>
      <point x="194" y="-173" smooth="yes"/>
      <point x="191" y="-191" smooth="yes"/>
      <point x="152" y="-191" type="curve" smooth="yes"/>
      <point x="113" y="-191"/>
      <point x="110" y="-173"/>
      <point x="110" y="-146" type="curve"/>
    </contour>
    <contour>
      <point x="142" y="-86" type="line"/>
      <point x="157" y="0" type="line"/>
      <point x="108" y="0" type="line"/>
      <point x="93" y="-86" type="line"/>
    </contour>
  </outline>
</glyph>
<glyph name="questiondown" format="1">
  <advance width="484"/>
  <unicode hex="00BF"/>
  <outline>
    <contour>
      <point x="272" y="586" type="curve" smooth="yes"/>
      <point x="316" y="586" smooth="yes"/>
      <point x="319" y="555" smooth="yes"/>
      <point x="319" y="528" type="curve" smooth="yes"/>
      <point x="319" y="500" smooth="yes"/>
      <point x="316" y="469" smooth="yes"/>
      <point x="272" y="469" type="curve" smooth="yes"/>
      <point x="226" y="469" smooth="yes"/>
      <point x="223" y="500" smooth="yes"/>
      <point x="223" y="528" type="curve" smooth="yes"/>
      <point x="223" y="555" smooth="yes"/>
      <point x="226" y="586" smooth="yes"/>
    </contour>
    <contour>
      <point x="221" y="245" type="line" smooth="yes"/>
      <point x="110" y="228" smooth="yes"/>
      <point x="42" y="191" smooth="yes"/>
      <point x="42" y="43" type="curve" smooth="yes"/>
      <point x="42" y="-88" smooth="yes"/>
      <point x="95" y="-166" smooth="yes"/>
      <point x="255" y="-166" type="curve" smooth="yes"/>
      <point x="399" y="-166"/>
      <point x="452" y="-102"/>
      <point x="452" y="6" type="curve"/>
      <point x="392" y="6" type="line"/>
      <point x="392" y="-62" smooth="yes"/>
      <point x="357" y="-107" smooth="yes"/>
      <point x="256" y="-107" type="curve" smooth="yes"/>
      <point x="140" y="-107" smooth="yes"/>
      <point x="110" y="-47" smooth="yes"/>
      <point x="110" y="45" type="curve" smooth="yes" name="hr01"/>
      <point x="110" y="160" smooth="yes"/>
      <point x="171" y="188" smooth="yes"/>
      <point x="250" y="197" type="curve" smooth="yes"/>
      <point x="301" y="203" type="line"/>
      <point x="294" y="393" type="line" name="hr02"/>
      <point x="248" y="393" type="line"/>
      <point x="237" y="247" type="line"/>
    </contour>
  </outline>
</glyph>
<glyph name="AE" format="1">
  <advance width="943"/>
  <unicode hex="00C6"/>
  <outline>
    <contour>
      <point x="318" y="730" type="line"/>
      <point x="35" y="0" type="line"/>
      <point x="107" y="0" type="line"/>
      <point x="387" y="730" type="line"/>
    </contour>
    <contour>
      <point x="5" y="0" type="line"/>
      <point x="183" y="0" type="line"/>
      <point x="183" y="50" type="line"/>
      <point x="5" y="50" type="line"/>
    </contour>
    <contour>
      <point x="343" y="671" type="line"/>
      <point x="807" y="671" type="line"/>
      <point x="807" y="730" type="line"/>
      <point x="343" y="730" type="line"/>
    </contour>
    <contour>
      <point x="453" y="671" type="line"/>
      <point x="453" y="0" type="line"/>
      <point x="525" y="0" type="line"/>
      <point x="525" y="671" type="line"/>
    </contour>
    <contour>
      <point x="453" y="0" type="line"/>
      <point x="853" y="0" type="line"/>
      <point x="853" y="59" type="line"/>
      <point x="453" y="59" type="line"/>
    </contour>
    <contour>
      <point x="215" y="341" type="line"/>
      <point x="813" y="341" type="line"/>
      <point x="813" y="401" type="line"/>
      <point x="215" y="401" type="line"/>
    </contour>
    <contour>
      <point x="393" y="0" type="line"/>
      <point x="493" y="0" type="line"/>
      <point x="493" y="50" type="line"/>
      <point x="393" y="50" type="line"/>
    </contour>
    <contour>
      <point x="863" y="572" type="line"/>
      <point x="863" y="730" type="line"/>
      <point x="807" y="730" type="line"/>
      <point x="807" y="572" type="line"/>
    </contour>
    <contour>
      <point x="883" y="0" type="line" name="hr01"/>
      <point x="883" y="158" type="line"/>
      <point x="827" y="158" type="line"/>
      <point x="827" y="0" type="line"/>
    </contour>
  </outline>
</glyph>
<glyph name="multiply" format="1">
  <advance width="580"/>
  <unicode hex="00D7"/>
  <outline>
    <contour>
      <point x="155" y="141" type="line" name="hr00"/>
      <point x="290" y="276" type="line"/>
      <point x="425" y="141" type="line"/>
      <point x="467" y="183" type="line"/>
      <point x="332" y="318" type="line"/>
      <point x="467" y="453" type="line"/>
      <point x="425" y="495" type="line"/>
      <point x="290" y="360" type="line"/>
      <point x="155" y="495" type="line"/>
      <point x="113" y="453" type="line"/>
      <point x="248" y="318" type="line"/>
      <point x="113" y="183" type="line"/>
    </contour>
  </outline>
</glyph>
<glyph name="ae" format="1">
  <advance width="910"/>
  <unicode hex="00E6"/>
  <outline>
    <contour>
      <point x="233" y="-14" type="curve" smooth="yes"/>
      <point x="318" y="-14"/>
      <point x="398" y="28"/>
      <point x="448" y="83" type="curve"/>
      <point x="440" y="426" type="line"/>
      <point x="479" y="492" type="line"/>
      <point x="454" y="569" smooth="yes"/>
      <point x="370" y="586" smooth="yes"/>
      <point x="294" y="586" type="curve" smooth="yes"/>
      <point x="130" y="586"/>
      <point x="97" y="514"/>
      <point x="89" y="410" type="curve"/>
      <point x="148" y="407" type="line"/>
      <point x="153" y="480" smooth="yes"/>
      <point x="172" y="527" smooth="yes"/>
      <point x="294" y="527" type="curve" smooth="yes"/>
      <point x="365" y="527" smooth="yes"/>
      <point x="422" y="502" smooth="yes"/>
      <point x="422" y="426" type="curve" smooth="yes"/>
      <point x="422" y="326" type="line"/>
      <point x="237" y="314" type="line" smooth="yes"/>
      <point x="97" y="305" smooth="yes"/>
      <point x="64" y="255" smooth="yes"/>
      <point x="64" y="145" type="curve" smooth="yes"/>
      <point x="64" y="46" smooth="yes"/>
      <point x="102" y="-14" smooth="yes"/>
    </contour>
    <contour>
      <point x="243" y="43" type="curve" smooth="yes"/>
      <point x="157" y="43" smooth="yes"/>
      <point x="132" y="80" smooth="yes"/>
      <point x="132" y="142" type="curve" smooth="yes"/>
      <point x="132" y="235" smooth="yes"/>
      <point x="158" y="256" smooth="yes"/>
      <point x="241" y="261" type="curve" smooth="yes"/>
      <point x="422" y="272" type="line"/>
      <point x="422" y="121" type="line"/>
      <point x="366" y="68" smooth="yes"/>
      <point x="305" y="43" smooth="yes"/>
    </contour>
    <contour>
      <point x="439" y="270" type="line"/>
      <point x="870" y="270" type="line"/>
      <point x="870" y="286" type="line"/>
      <point x="864" y="325" type="line"/>
      <point x="439" y="325" type="line"/>
    </contour>
    <contour>
      <point x="641" y="-14" type="curve" smooth="yes"/>
      <point x="818" y="-14"/>
      <point x="851" y="76"/>
      <point x="861" y="177" type="curve"/>
      <point x="803" y="180" type="line"/>
      <point x="796" y="103" smooth="yes"/>
      <point x="770" y="45" smooth="yes"/>
      <point x="639" y="45" type="curve" smooth="yes"/>
      <point x="496" y="45" smooth="yes"/>
      <point x="472" y="122" smooth="yes"/>
      <point x="472" y="286" type="curve" smooth="yes"/>
      <point x="472" y="405" smooth="yes"/>
      <point x="479" y="527" smooth="yes"/>
      <point x="636" y="527" type="curve" smooth="yes"/>
      <point x="793" y="527"/>
      <point x="800" y="415"/>
      <point x="800" y="286" type="curve"/>
      <point x="870" y="286" type="line"/>
      <point x="870" y="441" smooth="yes"/>
      <point x="847" y="586" smooth="yes"/>
      <point x="637" y="586" type="curve" smooth="yes"/>
      <point x="426" y="586" smooth="yes"/>
      <point x="402" y="441" smooth="yes"/>
      <point x="402" y="286" type="curve" smooth="yes" name="hr01"/>
      <point x="402" y="92" smooth="yes"/>
      <point x="444" y="-14" smooth="yes"/>
    </contour>
  </outline>
</glyph>
<glyph name="eth" format="1">
  <advance width="608"/>
  <unicode hex="00F0"/>
  <outline>
    <contour>
      <point x="304" y="45" type="curve" smooth="yes" name="hr00"/>
      <point x="139" y="45" smooth="yes"/>
      <point x="130" y="147" smooth="yes"/>
      <point x="130" y="246" type="curve" smooth="yes"/>
      <point x="130" y="345" smooth="yes"/>
      <point x="139" y="447" smooth="yes"/>
      <point x="304" y="447" type="curve" smooth="yes"/>
      <point x="469" y="447" smooth="yes"/>
      <point x="478" y="345" smooth="yes"/>
      <point x="478" y="246" type="curve" smooth="yes"/>
      <point x="478" y="147" smooth="yes"/>
      <point x="469" y="45" smooth="yes"/>
    </contour>
    <contour>
      <point x="304" y="-14" type="curve" smooth="yes"/>
      <point x="524" y="-14" smooth="yes"/>
      <point x="548" y="111" smooth="yes"/>
      <point x="548" y="246" type="curve" smooth="yes"/>
      <point x="548" y="296" smooth="yes"/>
      <point x="545" y="343" smooth="yes"/>
      <point x="530" y="384" type="curve" smooth="yes"/>
      <point x="527" y="393" smooth="yes"/>
      <point x="503" y="383" smooth="yes"/>
      <point x="498" y="391" type="curve" smooth="yes"/>
      <point x="467" y="448" smooth="yes"/>
      <point x="425" y="506" smooth="yes"/>
      <point x="304" y="506" type="curve" smooth="yes"/>
      <point x="84" y="506" smooth="yes"/>
      <point x="60" y="381" smooth="yes"/>
      <point x="60" y="246" type="curve" smooth="yes"/>
      <point x="60" y="111" smooth="yes"/>
      <point x="84" y="-14" smooth="yes"/>
    </contour>
    <contour>
      <point x="298" y="723" type="line"/>
      <point x="391" y="639"/>
      <point x="481" y="509"/>
      <point x="481" y="277" type="curve"/>
      <point x="548" y="267" type="line"/>
      <point x="548" y="565"/>
      <point x="414" y="694"/>
      <point x="333" y="764" type="curve"/>
    </contour>
    <component  base="eslash" xOffset="246" yOffset="280"/>
  </outline>
</glyph>
<glyph name="divide" format="1">
  <advance width="580"/>
  <unicode hex="00F7"/>
  <outline>
    <contour>
      <point x="94" y="288" type="line" name="hr00"/>
      <point x="486" y="288" type="line"/>
      <point x="486" y="348" type="line"/>
      <point x="94" y="348" type="line"/>
    </contour>
    <contour>
      <point x="289" y="91" type="curve" smooth="yes"/>
      <point x="245" y="91" smooth="yes"/>
      <point x="242" y="122" smooth="yes"/>
      <point x="242" y="149" type="curve" smooth="yes"/>
      <point x="242" y="177" smooth="yes"/>
      <point x="245" y="208" smooth="yes"/>
      <point x="289" y="208" type="curve" smooth="yes"/>
      <point x="335" y="208" smooth="yes"/>
      <point x="338" y="177" smooth="yes"/>
      <point x="338" y="149" type="curve" smooth="yes"/>
      <point x="338" y="122" smooth="yes"/>
      <point x="335" y="91" smooth="yes"/>
    </contour>
    <contour>
      <point x="289" y="418" type="curve" smooth="yes"/>
      <point x="245" y="418" smooth="yes"/>
      <point x="242" y="449" smooth="yes"/>
      <point x="242" y="476" type="curve" smooth="yes"/>
      <point x="242" y="504" smooth="yes"/>
      <point x="245" y="535" smooth="yes"/>
      <point x="289" y="535" type="curve" smooth="yes"/>
      <point x="335" y="535" smooth="yes"/>
      <point x="338" y="504" smooth="yes"/>
      <point x="338" y="476" type="curve" smooth="yes"/>
      <point x="338" y="449" smooth="yes"/>
      <point x="335" y="418" smooth="yes"/>
    </contour>
  </outline>
</glyph>
<glyph name="thorn" format="1">
  <advance width="636"/>
  <unicode hex="00FE"/>
  <outline>
    <contour>
      <point x="170" y="750" type="line" name="hr00"/>
      <point x="100" y="750" type="line"/>
      <point x="100" y="-227" type="line"/>
      <point x="170" y="-227" type="line"/>
    </contour>
    <contour>
      <point x="40" y="-227" type="line"/>
      <point x="250" y="-227" type="line"/>
      <point x="250" y="-171" type="line"/>
      <point x="40" y="-171" type="line"/>
    </contour>
    <contour>
      <point x="40" y="694" type="line"/>
      <point x="132" y="694" type="line"/>
      <point x="132" y="750" type="line"/>
      <point x="40" y="750" type="line"/>
    </contour>
    <contour>
      <point x="337" y="522" type="curve" smooth="yes"/>
      <point x="472" y="522" smooth="yes"/>
      <point x="487" y="403" smooth="yes"/>
      <point x="487" y="286" type="curve" smooth="yes"/>
      <point x="487" y="152" smooth="yes"/>
      <point x="472" y="50" smooth="yes"/>
      <point x="337" y="50" type="curve" smooth="yes"/>
      <point x="290" y="50"/>
      <point x="221" y="55"/>
      <point x="151" y="92" type="curve"/>
      <point x="131" y="43" type="line"/>
      <point x="181" y="16" smooth="yes"/>
      <point x="250" y="-14" smooth="yes"/>
      <point x="337" y="-14" type="curve" smooth="yes"/>
      <point x="535" y="-14" smooth="yes"/>
      <point x="557" y="131" smooth="yes"/>
      <point x="557" y="286" type="curve" smooth="yes"/>
      <point x="557" y="441" smooth="yes"/>
      <point x="535" y="586" smooth="yes"/>
      <point x="337" y="586" type="curve" smooth="yes"/>
      <point x="252" y="586"/>
      <point x="169" y="530"/>
      <point x="135" y="482" type="curve"/>
      <point x="151" y="433" type="line"/>
      <point x="208" y="493" smooth="yes"/>
      <point x="270" y="522" smooth="yes"/>
    </contour>
  </outline>
</glyph>
<glyph name="eng" format="1">
  <advance width="691"/>
  <unicode hex="014B"/>
  <outline>
    <contour>
      <point x="177" y="572" type="line"/>
      <point x="130" y="572" type="line"/>
      <point x="130" y="0" type="line"/>
      <point x="200" y="0" type="line"/>
      <point x="200" y="487" type="line"/>
    </contour>
    <contour>
      <point x="177" y="433" type="line"/>
      <point x="242" y="492" smooth="yes"/>
      <point x="315" y="527" smooth="yes"/>
      <point x="395" y="527" type="curve" smooth="yes"/>
      <point x="471" y="527" smooth="yes"/>
      <point x="501" y="491" smooth="yes"/>
      <point x="501" y="408" type="curve" smooth="yes"/>
      <point x="501" y="0" type="line"/>
      <point x="571" y="0" type="line"/>
      <point x="571" y="407" type="line" smooth="yes"/>
      <point x="571" y="528" smooth="yes"/>
      <point x="525" y="586" smooth="yes"/>
      <point x="406" y="586" type="curve" smooth="yes" name="hr01"/>
      <point x="306" y="586"/>
      <point x="212" y="530"/>
      <point x="163" y="482" type="curve"/>
    </contour>
    <contour>
      <point x="70" y="0" type="line"/>
      <point x="260" y="0" type="line"/>
      <point x="260" y="50" type="line"/>
      <point x="70" y="50" type="line"/>
    </contour>
    <contour>
      <point x="70" y="522" type="line"/>
      <point x="130" y="522" type="line"/>
      <point x="130" y="572" type="line" name="hr02"/>
      <point x="70" y="572" type="line"/>
    </contour>
    <contour>
      <point x="371" y="-172" type="line"/>
      <point x="371" y="-227" type="line"/>
      <point x="432" y="-227" type="line" smooth="yes"/>
      <point x="554" y="-227" smooth="yes"/>
      <point x="571" y="-171" smooth="yes"/>
      <point x="571" y="-78" type="curve" smooth="yes"/>
      <point x="571" y="0" type="line"/>
      <point x="501" y="0" type="line"/>
      <point x="501" y="-78" type="line" smooth="yes"/>
      <point x="501" y="-138" smooth="yes"/>
      <point x="491" y="-162" smooth="yes"/>
      <point x="432" y="-167" type="curve" smooth="yes"/>
    </contour>
  </outline>
</glyph>
<glyph name="oe" format="1">
  <advance width="987"/>
  <unicode hex="0153"/>
  <outline>
    <contour>
      <point x="698" y="-14" type="curve" smooth="yes" name="hr00"/>
      <point x="875" y="-14"/>
      <point x="908" y="76"/>
      <point x="918" y="177" type="curve"/>
      <point x="860" y="180" type="line"/>
      <point x="853" y="103" smooth="yes"/>
      <point x="827" y="45" smooth="yes"/>
      <point x="696" y="45" type="curve" smooth="yes"/>
      <point x="558" y="45"/>
      <point x="530" y="117"/>
      <point x="529" y="270" type="curve"/>
      <point x="927" y="270" type="line"/>
      <point x="927" y="286" type="line" smooth="yes"/>
      <point x="927" y="441" smooth="yes"/>
      <point x="904" y="586" smooth="yes"/>
      <point x="694" y="586" type="curve" smooth="yes"/>
      <point x="594" y="586"/>
      <point x="536" y="553"/>
      <point x="503" y="503" type="curve"/>
      <point x="468" y="553" smooth="yes"/>
      <point x="408" y="586" smooth="yes"/>
      <point x="304" y="586" type="curve" smooth="yes"/>
      <point x="84" y="586" smooth="yes"/>
      <point x="60" y="441" smooth="yes"/>
      <point x="60" y="286" type="curve" smooth="yes"/>
      <point x="60" y="131" smooth="yes"/>
      <point x="84" y="-14" smooth="yes"/>
      <point x="304" y="-14" type="curve" smooth="yes"/>
      <point x="407" y="-14"/>
      <point x="467" y="17"/>
      <point x="501" y="67" type="curve"/>
      <point x="536" y="14" smooth="yes"/>
      <point x="597" y="-14" smooth="yes"/>
    </contour>
    <contour>
      <point x="304" y="45" type="curve" smooth="yes"/>
      <point x="139" y="45" smooth="yes"/>
      <point x="130" y="167" smooth="yes"/>
      <point x="130" y="286" type="curve" smooth="yes"/>
      <point x="130" y="405" smooth="yes"/>
      <point x="139" y="527" smooth="yes"/>
      <point x="304" y="527" type="curve" smooth="yes"/>
      <point x="410" y="527"/>
      <point x="461" y="476"/>
      <point x="468" y="409" type="curve"/>
      <point x="461" y="370" smooth="yes"/>
      <point x="459" y="328" smooth="yes"/>
      <point x="459" y="286" type="curve" smooth="yes"/>
      <point x="459" y="239"/>
      <point x="461" y="198"/>
      <point x="467" y="162" type="curve"/>
      <point x="461" y="95" smooth="yes"/>
      <point x="409" y="45" smooth="yes"/>
    </contour>
    <contour>
      <point x="693" y="527" type="curve" smooth="yes"/>
      <point x="834" y="527"/>
      <point x="854" y="436"/>
      <point x="856" y="325" type="curve"/>
      <point x="529" y="325" type="line"/>
      <point x="532" y="430" smooth="yes"/>
      <point x="553" y="527" smooth="yes"/>
    </contour>
  </outline>
</glyph>
<glyph name="florin" format="1">
  <advance width="580"/>
  <unicode hex="0192"/>
  <outline>
    <contour>
      <point x="114" y="291" type="line" name="hr00"/>
      <point x="461" y="291" type="line"/>
      <point x="461" y="341" type="line"/>
      <point x="114" y="341" type="line"/>
    </contour>
    <contour>
      <point x="514" y="655" type="line"/>
      <point x="484" y="673" smooth="yes"/>
      <point x="444" y="684" smooth="yes"/>
      <point x="402" y="684" type="curve" smooth="yes"/>
      <point x="285" y="684" smooth="yes"/>
      <point x="230" y="619" smooth="yes"/>
      <point x="230" y="479" type="curve" smooth="yes"/>
      <point x="230" y="-6" type="line" smooth="yes"/>
      <point x="230" y="-103"/>
      <point x="202" y="-138"/>
      <point x="122" y="-138" type="curve"/>
      <point x="126" y="-200" type="line"/>
      <point x="265" y="-200" smooth="yes"/>
      <point x="302" y="-136" smooth="yes"/>
      <point x="302" y="-6" type="curve" smooth="yes"/>
      <point x="302" y="479" type="line" smooth="yes"/>
      <point x="302" y="585" smooth="yes"/>
      <point x="344" y="625" smooth="yes"/>
      <point x="402" y="625" type="curve" smooth="yes"/>
      <point x="436" y="625"/>
      <point x="465" y="618"/>
      <point x="490" y="603" type="curve"/>
    </contour>
  </outline>
</glyph>
<glyph name="circumflex" format="1">
  <advance width="401"/>
  <unicode hex="02C6"/>
  <outline>
    <contour>
      <point x="92" y="624" type="line" name="hr00"/>
      <point x="200" y="734" type="line"/>
      <point x="309" y="624" type="line"/>
      <point x="351" y="666" type="line"/>
      <point x="215" y="821" type="line"/>
      <point x="186" y="821" type="line"/>
      <point x="50" y="666" type="line"/>
    </contour>
  </outline>
</glyph>
<glyph name="caron" format="1">
  <advance width="371"/>
  <unicode hex="02C7"/>
  <outline>
    <contour>
      <point x="294" y="827" type="line" name="hr00"/>
      <point x="186" y="717" type="line"/>
      <point x="77" y="827" type="line"/>
      <point x="35" y="785" type="line"/>
      <point x="171" y="630" type="line"/>
      <point x="200" y="630" type="line"/>
      <point x="336" y="785" type="line"/>
    </contour>
  </outline>
</glyph>
<glyph name="breve" format="1">
  <advance width="425"/>
  <unicode hex="02D8"/>
  <outline>
    <contour>
      <point x="338" y="779" type="line" name="hr00"/>
      <point x="338" y="710" smooth="yes"/>
      <point x="325" y="644" smooth="yes"/>
      <point x="212" y="644" type="curve" smooth="yes"/>
      <point x="100" y="644"/>
      <point x="87" y="710"/>
      <point x="87" y="779" type="curve"/>
      <point x="142" y="779" type="line"/>
      <point x="142" y="741" smooth="yes"/>
      <point x="146" y="705" smooth="yes"/>
      <point x="212" y="705" type="curve" smooth="yes"/>
      <point x="278" y="705"/>
      <point x="282" y="741"/>
      <point x="282" y="779" type="curve"/>
    </contour>
  </outline>
</glyph>
<glyph name="ogonek" format="1">
  <advance width="332"/>
  <unicode hex="02DB"/>
  <outline>
    <contour>
      <point x="240" y="-112" type="line" name="hr00"/>
      <point x="224" y="-149" smooth="yes"/>
      <point x="191" y="-174" smooth="yes"/>
      <point x="158" y="-174" type="curve" smooth="yes"/>
      <point x="125" y="-174" smooth="yes"/>
      <point x="108" y="-154" smooth="yes"/>
      <point x="108" y="-123" type="curve" smooth="yes"/>
      <point x="108" y="-95" smooth="yes"/>
      <point x="115" y="-78" smooth="yes"/>
      <point x="160" y="-51" type="curve" smooth="yes"/>
      <point x="243" y="0" type="line"/>
      <point x="225" y="32" type="line"/>
      <point x="132" y="-15" type="line" smooth="yes"/>
      <point x="69" y="-47" smooth="yes"/>
      <point x="50" y="-82" smooth="yes"/>
      <point x="50" y="-128" type="curve" smooth="yes"/>
      <point x="50" y="-193" smooth="yes"/>
      <point x="85" y="-227" smooth="yes"/>
      <point x="153" y="-227" type="curve" smooth="yes"/>
      <point x="207" y="-227"/>
      <point x="257" y="-191"/>
      <point x="282" y="-140" type="curve"/>
    </contour>
  </outline>
</glyph>
<glyph name="tilde" format="1">
  <advance width="410"/>
  <unicode hex="02DC"/>
  <outline>
    <contour>
      <point x="278" y="677" type="curve" smooth="yes"/>
      <point x="316" y="677"/>
      <point x="346" y="700"/>
      <point x="366" y="770" type="curve"/>
      <point x="316" y="786" type="line"/>
      <point x="306" y="756" smooth="yes"/>
      <point x="295" y="742" smooth="yes"/>
      <point x="270" y="742" type="curve" smooth="yes"/>
      <point x="239" y="742" smooth="yes"/>
      <point x="179" y="778" smooth="yes"/>
      <point x="132" y="778" type="curve" smooth="yes" name="hr01"/>
      <point x="94" y="778"/>
      <point x="64" y="755"/>
      <point x="44" y="685" type="curve"/>
      <point x="95" y="669" type="line"/>
      <point x="105" y="699" smooth="yes"/>
      <point x="116" y="713" smooth="yes"/>
      <point x="141" y="713" type="curve" smooth="yes"/>
      <point x="172" y="713" smooth="yes"/>
      <point x="231" y="677" smooth="yes"/>
    </contour>
  </outline>
</glyph>
<glyph name="hungarumlaut" format="1">
  <advance width="547"/>
  <unicode hex="02DD"/>
  <outline>
    <contour>
      <point x="92" y="624" type="line" name="hr00"/>
      <point x="264" y="774" type="line"/>
      <point x="211" y="827" type="line"/>
      <point x="50" y="666" type="line"/>
    </contour>
    <contour>
      <point x="325" y="624" type="line"/>
      <point x="497" y="774" type="line"/>
      <point x="444" y="827" type="line"/>
      <point x="283" y="666" type="line"/>
    </contour>
  </outline>
</glyph>
<glyph name="anusvaradeva" format="1">
  <advance width="0"/>
  <unicode hex="0902"/>
  <outline>
    <contour>
      <point x="-140" y="912" type="curve" smooth="yes"/>
      <point x="-103" y="912" smooth="yes"/>
      <point x="-87" y="927" smooth="yes"/>
      <point x="-87" y="963" type="curve" smooth="yes"/>
      <point x="-87" y="1000" smooth="yes"/>
      <point x="-102" y="1015" smooth="yes"/>
      <point x="-140" y="1015" type="curve" smooth="yes"/>
      <point x="-176" y="1015" smooth="yes"/>
      <point x="-191" y="1000" smooth="yes"/>
      <point x="-191" y="963" type="curve" smooth="yes"/>
      <point x="-191" y="927" smooth="yes"/>
      <point x="-176" y="912" smooth="yes"/>
    </contour>
  </outline>
</glyph>
<glyph name="visargadeva" format="1">
  <advance width="372"/>
  <unicode hex="0903"/>
  <outline>
    <contour>
      <point x="184" y="463" type="curve" smooth="yes"/>
      <point x="221" y="463" smooth="yes"/>
      <point x="237" y="478" smooth="yes"/>
      <point x="237" y="514" type="curve" smooth="yes"/>
      <point x="237" y="551" smooth="yes"/>
      <point x="222" y="566" smooth="yes"/>
      <point x="184" y="566" type="curve" smooth="yes"/>
      <point x="148" y="566" smooth="yes"/>
      <point x="133" y="551" smooth="yes"/>
      <point x="133" y="514" type="curve" smooth="yes"/>
      <point x="133" y="478" smooth="yes"/>
      <point x="148" y="463" smooth="yes"/>
    </contour>
    <contour>
      <point x="184" y="145" type="curve" smooth="yes"/>
      <point x="221" y="145" smooth="yes"/>
      <point x="237" y="160" smooth="yes"/>
      <point x="237" y="196" type="curve" smooth="yes"/>
      <point x="237" y="233" smooth="yes"/>
      <point x="222" y="248" smooth="yes"/>
      <point x="184" y="248" type="curve" smooth="yes"/>
      <point x="148" y="248" smooth="yes"/>
      <point x="133" y="233" smooth="yes"/>
      <point x="133" y="196" type="curve" smooth="yes"/>
      <point x="133" y="160" smooth="yes"/>
      <point x="148" y="145" smooth="yes"/>
    </contour>
  </outline>
</glyph>
<glyph name="udeva" format="1">
  <advance width="591"/>
  <unicode hex="0909"/>
  <outline>
    <contour>
      <point x="292" y="680" type="line" smooth="yes"/>
      <point x="407" y="680" smooth="yes"/>
      <point x="439" y="625" smooth="yes"/>
      <point x="439" y="544" type="curve" smooth="yes"/>
      <point x="439" y="470" smooth="yes"/>
      <point x="393" y="414" smooth="yes"/>
      <point x="311" y="414" type="curve" smooth="yes"/>
      <point x="234" y="414" type="line"/>
      <point x="234" y="370" type="line"/>
      <point x="311" y="370" type="line" smooth="yes"/>
      <point x="416" y="370" smooth="yes"/>
      <point x="509" y="438" smooth="yes"/>
      <point x="509" y="545" type="curve" smooth="yes"/>
      <point x="509" y="649"/>
      <point x="454" y="718"/>
      <point x="292" y="718" type="curve"/>
    </contour>
    <contour>
      <point x="51" y="252" type="line"/>
      <point x="69" y="112" smooth="yes"/>
      <point x="151" y="41" smooth="yes"/>
      <point x="302" y="41" type="curve" smooth="yes"/>
      <point x="444" y="41" smooth="yes"/>
      <point x="518" y="106" smooth="yes"/>
      <point x="518" y="222" type="curve" smooth="yes"/>
      <point x="518" y="346" smooth="yes"/>
      <point x="427" y="404" smooth="yes"/>
      <point x="322" y="404" type="curve" smooth="yes"/>
      <point x="234" y="404" type="line"/>
      <point x="234" y="360" type="line"/>
      <point x="310" y="360" type="line" smooth="yes"/>
      <point x="405" y="360" smooth="yes"/>
      <point x="448" y="299" smooth="yes"/>
      <point x="448" y="221" type="curve" smooth="yes"/>
      <point x="448" y="145" smooth="yes"/>
      <point x="403" y="99" smooth="yes"/>
      <point x="302" y="99" type="curve" smooth="yes"/>
      <point x="193" y="99"/>
      <point x="129" y="155"/>
      <point x="119" y="276" type="curve"/>
    </contour>
    <contour>
      <point x="-10" y="680" type="line"/>
      <point x="601" y="680" type="line"/>
      <point x="601" y="730" type="line"/>
      <point x="-10" y="730" type="line"/>
    </contour>
  </outline>
</glyph>
<glyph name="lvocalicdeva" format="1">
  <advance width="895"/>
  <unicode hex="090C"/>
  <outline>
    <contour>
      <point x="-10" y="680" type="line"/>
      <point x="905" y="680" type="line"/>
      <point x="905" y="730" type="line"/>
      <point x="-10" y="730" type="line"/>
    </contour>
    <contour>
      <point x="464" y="414" type="line"/>
      <point x="421" y="480" smooth="yes"/>
      <point x="353" y="514" smooth="yes"/>
      <point x="260" y="514" type="curve" smooth="yes"/>
      <point x="134" y="514" smooth="yes"/>
      <point x="51" y="443" smooth="yes"/>
      <point x="51" y="300" type="curve" smooth="yes"/>
      <point x="51" y="158"/>
      <point x="145" y="63"/>
      <point x="323" y="-15" type="curve"/>
      <point x="349" y="42" type="line"/>
      <point x="196" y="110" smooth="yes"/>
      <point x="121" y="188" smooth="yes"/>
      <point x="121" y="307" type="curve" smooth="yes"/>
      <point x="121" y="408" smooth="yes"/>
      <point x="177" y="456" smooth="yes"/>
      <point x="260" y="456" type="curve" smooth="yes"/>
      <point x="351" y="456"/>
      <point x="406" y="414"/>
      <point x="426" y="339" type="curve"/>
    </contour>
    <contour>
      <point x="840" y="300" type="curve" smooth="yes"/>
      <point x="840" y="443" smooth="yes"/>
      <point x="757" y="514" smooth="yes"/>
      <point x="631" y="514" type="curve" smooth="yes"/>
      <point x="469" y="514"/>
      <point x="384" y="417"/>
      <point x="384" y="246" type="curve"/>
      <point x="451" y="236" type="line"/>
      <point x="451" y="373" smooth="yes"/>
      <point x="507" y="456" smooth="yes"/>
      <point x="631" y="456" type="curve" smooth="yes"/>
      <point x="714" y="456" smooth="yes"/>
      <point x="770" y="408" smooth="yes"/>
      <point x="770" y="307" type="curve" smooth="yes"/>
      <point x="770" y="114" smooth="yes"/>
      <point x="478" y="100" smooth="yes"/>
      <point x="478" y="-97" type="curve" smooth="yes"/>
      <point x="478" y="-189" smooth="yes"/>
      <point x="542" y="-241" smooth="yes"/>
      <point x="639" y="-241" type="curve" smooth="yes"/>
      <point x="691" y="-241"/>
      <point x="746" y="-226"/>
      <point x="790" y="-203" type="curve"/>
      <point x="770" y="-155" type="line"/>
      <point x="729" y="-177" smooth="yes"/>
      <point x="689" y="-190" smooth="yes"/>
      <point x="650" y="-190" type="curve" smooth="yes"/>
      <point x="580" y="-191" smooth="yes"/>
      <point x="548" y="-154" smooth="yes"/>
      <point x="548" y="-97" type="curve" smooth="yes"/>
      <point x="548" y="53" smooth="yes"/>
      <point x="840" y="66" smooth="yes"/>
    </contour>
    <contour>
      <point x="621" y="485" type="line"/>
      <point x="691" y="485" type="line"/>
      <point x="691" y="680" type="line"/>
      <point x="621" y="680" type="line"/>
    </contour>
  </outline>
</glyph>
<glyph name="kadeva" format="1">
  <advance width="890"/>
  <unicode hex="0915"/>
  <outline>
    <contour>
      <point x="-10" y="680" type="line"/>
      <point x="900" y="680" type="line"/>
      <point x="900" y="730" type="line"/>
      <point x="-10" y="730" type="line"/>
    </contour>
    <contour>
      <point x="430" y="0" type="line"/>
      <point x="500" y="0" type="line"/>
      <point x="500" y="680" type="line"/>
      <point x="430" y="680" type="line"/>
    </contour>
    <contour>
      <point x="846" y="367" type="curve" smooth="yes"/>
      <point x="846" y="482" smooth="yes"/>
      <point x="824" y="572" smooth="yes"/>
      <point x="662" y="572" type="curve" smooth="yes"/>
      <point x="529" y="572"/>
      <point x="466" y="483"/>
      <point x="465" y="372" type="curve"/>
      <point x="500" y="372" type="line"/>
      <point x="500" y="463" smooth="yes"/>
      <point x="549" y="513" smooth="yes"/>
      <point x="646" y="513" type="curve" smooth="yes"/>
      <point x="767" y="513" smooth="yes"/>
      <point x="776" y="453" smooth="yes"/>
      <point x="776" y="367" type="curve" smooth="yes"/>
      <point x="776" y="299"/>
      <point x="755" y="218"/>
      <point x="711" y="163" type="curve"/>
      <point x="770" y="133" type="line"/>
      <point x="820" y="199" smooth="yes"/>
      <point x="846" y="288" smooth="yes"/>
    </contour>
    <contour>
      <point x="389" y="550" type="line"/>
      <point x="354" y="564" smooth="yes"/>
      <point x="318" y="572" smooth="yes"/>
      <point x="274" y="572" type="curve" smooth="yes"/>
      <point x="84" y="572" smooth="yes"/>
      <point x="66" y="464" smooth="yes"/>
      <point x="66" y="360" type="curve" smooth="yes"/>
      <point x="66" y="252" smooth="yes"/>
      <point x="83" y="140" smooth="yes"/>
      <point x="271" y="140" type="curve" smooth="yes"/>
      <point x="358" y="140"/>
      <point x="421" y="167"/>
      <point x="465" y="215" type="curve"/>
      <point x="465" y="280" type="line"/>
      <point x="432" y="235" smooth="yes"/>
      <point x="368" y="197" smooth="yes"/>
      <point x="280" y="197" type="curve" smooth="yes"/>
      <point x="147" y="197" smooth="yes"/>
      <point x="136" y="272" smooth="yes"/>
      <point x="136" y="356" type="curve" smooth="yes"/>
      <point x="136" y="439" smooth="yes"/>
      <point x="147" y="514" smooth="yes"/>
      <point x="286" y="514" type="curve" smooth="yes"/>
      <point x="318" y="514"/>
      <point x="348" y="508"/>
      <point x="376" y="495" type="curve"/>
    </contour>
  </outline>
</glyph>
<glyph name="chadeva" format="1">
  <advance width="754"/>
  <unicode hex="091B"/>
  <outline>
    <contour>
      <point x="523" y="531" type="line"/>
      <point x="593" y="531" type="line"/>
      <point x="593" y="680" type="line"/>
      <point x="523" y="680" type="line"/>
    </contour>
    <component  base="chadeva_viramadeva"/>
  </outline>
</glyph>
<glyph name="jadeva" format="1">
  <advance width="802"/>
  <unicode hex="091C"/>
  <outline>
    <contour>
      <point x="617" y="680" type="line"/>
      <point x="617" y="0" type="line"/>
      <point x="687" y="0" type="line"/>
      <point x="687" y="680" type="line"/>
      <point x="812" y="680" type="line"/>
      <point x="812" y="730" type="line"/>
      <point x="-10" y="730" type="line"/>
      <point x="-10" y="680" type="line"/>
    </contour>
    <contour>
      <point x="315" y="207" type="curve"/>
      <point x="202" y="207"/>
      <point x="124" y="277"/>
      <point x="78" y="354" type="curve"/>
      <point x="23" y="313" type="line"/>
      <point x="81" y="231" smooth="yes"/>
      <point x="171" y="149" smooth="yes"/>
      <point x="314" y="149" type="curve" smooth="yes"/>
      <point x="490" y="149" smooth="yes"/>
      <point x="517" y="239" smooth="yes"/>
      <point x="517" y="335" type="curve" smooth="yes"/>
      <point x="517" y="415"/>
      <point x="491" y="488"/>
      <point x="306" y="488" type="curve"/>
      <point x="300" y="463" type="line"/>
      <point x="437" y="463" smooth="yes"/>
      <point x="447" y="402" smooth="yes"/>
      <point x="447" y="335" type="curve" smooth="yes"/>
      <point x="447" y="268"/>
      <point x="437" y="207"/>
    </contour>
    <contour>
      <point x="300" y="463" type="line"/>
      <point x="617" y="463" type="line"/>
      <point x="617" y="513" type="line"/>
      <point x="300" y="513" type="line"/>
    </contour>
  </outline>
</glyph>
<glyph name="ddhadeva" format="1">
  <advance width="653"/>
  <unicode hex="0922"/>
  <outline>
    <contour>
      <point x="528" y="680" type="line"/>
      <point x="663" y="680" type="line"/>
      <point x="663" y="730" type="line"/>
      <point x="528" y="730" type="line"/>
    </contour>
    <contour>
      <point x="585" y="225" type="curve" smooth="yes"/>
      <point x="585" y="309" smooth="yes"/>
      <point x="570" y="386" smooth="yes"/>
      <point x="432" y="386" type="curve" smooth="yes"/>
      <point x="294" y="386" smooth="yes"/>
      <point x="280" y="309" smooth="yes"/>
      <point x="280" y="225" type="curve" smooth="yes"/>
      <point x="280" y="146"/>
      <point x="295" y="77"/>
      <point x="424" y="46" type="curve"/>
      <point x="449" y="92" type="line"/>
      <point x="349" y="115" smooth="yes"/>
      <point x="343" y="168" smooth="yes"/>
      <point x="343" y="225" type="curve" smooth="yes"/>
      <point x="343" y="284" smooth="yes"/>
      <point x="347" y="336" smooth="yes"/>
      <point x="431" y="336" type="curve" smooth="yes"/>
      <point x="516" y="336" smooth="yes"/>
      <point x="521" y="284" smooth="yes"/>
      <point x="521" y="225" type="curve" smooth="yes"/>
      <point x="521" y="141" smooth="yes"/>
      <point x="469" y="75" smooth="yes"/>
      <point x="320" y="75" type="curve" smooth="yes"/>
      <point x="183" y="75" smooth="yes"/>
      <point x="126" y="141" smooth="yes"/>
      <point x="126" y="296" type="curve" smooth="yes"/>
      <point x="126" y="435" smooth="yes"/>
      <point x="183" y="475" smooth="yes"/>
      <point x="332" y="475" type="curve" smooth="yes"/>
      <point x="528" y="475" type="line"/>
      <point x="528" y="730" type="line"/>
      <point x="-10" y="730" type="line"/>
      <point x="-10" y="680" type="line"/>
      <point x="459" y="680" type="line"/>
      <point x="459" y="534" type="line"/>
      <point x="331" y="534" type="line" smooth="yes"/>
      <point x="133" y="534" smooth="yes"/>
      <point x="56" y="466" smooth="yes"/>
      <point x="56" y="296" type="curve" smooth="yes"/>
      <point x="56" y="103" smooth="yes"/>
      <point x="139" y="16" smooth="yes"/>
      <point x="320" y="16" type="curve" smooth="yes"/>
      <point x="519" y="16" smooth="yes"/>
      <point x="585" y="110" smooth="yes"/>
    </contour>
  </outline>
</glyph>
<glyph name="nnadeva" format="1">
  <advance width="710"/>
  <unicode hex="0923"/>
  <outline>
    <contour>
      <point x="330" y="680" type="line"/>
      <point x="330" y="415" type="line" smooth="yes"/>
      <point x="330" y="353" smooth="yes"/>
      <point x="323" y="291" smooth="yes"/>
      <point x="237" y="291" type="curve" smooth="yes"/>
      <point x="151" y="291" smooth="yes"/>
      <point x="145" y="353" smooth="yes"/>
      <point x="145" y="415" type="curve" smooth="yes"/>
      <point x="145" y="680" type="line"/>
      <point x="75" y="680" type="line"/>
      <point x="75" y="415" type="line" smooth="yes"/>
      <point x="75" y="321" smooth="yes"/>
      <point x="95" y="232" smooth="yes"/>
      <point x="236" y="232" type="curve" smooth="yes"/>
      <point x="378" y="232" smooth="yes"/>
      <point x="400" y="321" smooth="yes"/>
      <point x="400" y="415" type="curve" smooth="yes"/>
      <point x="400" y="680" type="line"/>
    </contour>
    <contour>
      <point x="-10" y="680" type="line"/>
      <point x="605" y="680" type="line"/>
      <point x="605" y="730" type="line"/>
      <point x="-10" y="730" type="line"/>
    </contour>
    <contour>
      <point x="401" y="680" type="line"/>
      <point x="720" y="680" type="line"/>
      <point x="720" y="730" type="line"/>
      <point x="401" y="730" type="line"/>
    </contour>
    <contour>
      <point x="525" y="0" type="line"/>
      <point x="595" y="0" type="line"/>
      <point x="595" y="680" type="line"/>
      <point x="525" y="680" type="line"/>
    </contour>
  </outline>
</glyph>
<glyph name="badeva" format="1">
  <advance width="615"/>
  <unicode hex="092C"/>
  <outline>
    <contour>
      <point x="362" y="185" type="line"/>
      <point x="405" y="210" type="line"/>
      <point x="216" y="537" type="line"/>
      <point x="173" y="512" type="line"/>
    </contour>
    <component  base="vadeva"/>
  </outline>
</glyph>
<glyph name="bhadeva" format="1">
  <advance width="724"/>
  <unicode hex="092D"/>
  <outline>
    <contour>
      <point x="319" y="582" type="line"/>
      <point x="319" y="674" smooth="yes"/>
      <point x="289" y="744" smooth="yes"/>
      <point x="174" y="744" type="curve" smooth="yes"/>
      <point x="49" y="744" smooth="yes"/>
      <point x="30" y="664" smooth="yes"/>
      <point x="30" y="603" type="curve" smooth="yes"/>
      <point x="30" y="545"/>
      <point x="56" y="492"/>
      <point x="116" y="469" type="curve"/>
      <point x="146" y="511" type="line"/>
      <point x="118" y="526" smooth="yes"/>
      <point x="98" y="555" smooth="yes"/>
      <point x="98" y="602" type="curve" smooth="yes"/>
      <point x="98" y="656" smooth="yes"/>
      <point x="116" y="694" smooth="yes"/>
      <point x="174" y="694" type="curve" smooth="yes"/>
      <point x="234" y="694"/>
      <point x="252" y="648"/>
      <point x="252" y="582" type="curve"/>
    </contour>
    <contour>
      <point x="252" y="582" type="line"/>
      <point x="252" y="385" type="line"/>
      <point x="206" y="385" type="line" smooth="yes"/>
      <point x="184" y="385" smooth="yes"/>
      <point x="178" y="376" smooth="yes"/>
      <point x="178" y="347" type="curve" smooth="yes"/>
      <point x="178" y="292" smooth="yes"/>
      <point x="266" y="241" smooth="yes"/>
      <point x="296" y="241" type="curve" smooth="yes"/>
      <point x="308" y="241" smooth="yes"/>
      <point x="319" y="244" smooth="yes"/>
      <point x="319" y="262" type="curve" smooth="yes"/>
      <point x="319" y="335" type="line"/>
      <point x="539" y="335" type="line"/>
      <point x="539" y="0" type="line"/>
      <point x="609" y="0" type="line"/>
      <point x="609" y="680" type="line"/>
      <point x="734" y="680" type="line"/>
      <point x="734" y="730" type="line"/>
      <point x="419" y="730" type="line"/>
      <point x="419" y="680" type="line"/>
      <point x="539" y="680" type="line"/>
      <point x="539" y="385" type="line"/>
      <point x="319" y="385" type="line"/>
      <point x="319" y="582" type="line"/>
    </contour>
  </outline>
</glyph>
<glyph name="radeva" format="1">
  <advance width="550"/>
  <unicode hex="0930"/>
  <outline>
    <contour>
      <point x="83" y="482" type="line"/>
      <point x="110" y="368" smooth="yes"/>
      <point x="163" y="292" smooth="yes"/>
      <point x="264" y="292" type="curve" smooth="yes"/>
      <point x="433" y="292" smooth="yes"/>
      <point x="455" y="388" smooth="yes"/>
      <point x="455" y="490" type="curve" smooth="yes"/>
      <point x="455" y="680" type="line"/>
      <point x="385" y="680" type="line"/>
      <point x="385" y="490" type="line" smooth="yes"/>
      <point x="385" y="421" smooth="yes"/>
      <point x="376" y="351" smooth="yes"/>
      <point x="265" y="351" type="curve" smooth="yes"/>
      <point x="201" y="351"/>
      <point x="169" y="405"/>
      <point x="153" y="482" type="curve"/>
    </contour>
    <contour>
      <point x="-10" y="680" type="line"/>
      <point x="560" y="680" type="line"/>
      <point x="560" y="730" type="line"/>
      <point x="-10" y="730" type="line"/>
    </contour>
    <contour>
      <point x="83" y="482" type="line"/>
      <point x="98" y="258"/>
      <point x="203" y="109"/>
      <point x="430" y="-14" type="curve"/>
      <point x="456" y="43" type="line"/>
      <point x="253" y="155"/>
      <point x="167" y="284"/>
      <point x="153" y="482" type="curve"/>
    </contour>
  </outline>
</glyph>
<glyph name="oesigndeva" format="1">
  <advance width="0"/>
  <unicode hex="093A"/>
  <outline>
    <contour>
      <point x="-116" y="730" type="line"/>
      <point x="-116" y="900" type="line"/>
      <point x="-184" y="900" type="line"/>
      <point x="-184" y="730" type="line"/>
    </contour>
  </outline>
</glyph>
<glyph name="nuktadeva" format="1">
  <advance width="0"/>
  <unicode hex="093C"/>
  <outline>
    <contour>
      <point x="-577" y="-95" type="curve" smooth="yes"/>
      <point x="-540" y="-95" smooth="yes"/>
      <point x="-524" y="-80" smooth="yes"/>
      <point x="-524" y="-44" type="curve" smooth="yes"/>
      <point x="-524" y="-7" smooth="yes"/>
      <point x="-539" y="8" smooth="yes"/>
      <point x="-577" y="8" type="curve" smooth="yes"/>
      <point x="-613" y="8" smooth="yes"/>
      <point x="-628" y="-7" smooth="yes"/>
      <point x="-628" y="-44" type="curve" smooth="yes"/>
      <point x="-628" y="-80" smooth="yes"/>
      <point x="-613" y="-95" smooth="yes"/>
    </contour>
  </outline>
</glyph>
<glyph name="rrvocalicsigndeva" format="1">
  <advance width="0"/>
  <unicode hex="0944"/>
  <outline>
    <contour>
      <point x="-148" y="-135" type="line"/>
      <point x="-216" y="-135" smooth="yes"/>
      <point x="-264" y="-117" smooth="yes"/>
      <point x="-264" y="-81" type="curve" smooth="yes"/>
      <point x="-264" y="-38"/>
      <point x="-217" y="-30"/>
      <point x="-148" y="-30" type="curve"/>
      <point x="-148" y="17" type="line"/>
      <point x="-255" y="17" smooth="yes"/>
      <point x="-324" y="-7" smooth="yes"/>
      <point x="-324" y="-77" type="curve" smooth="yes"/>
      <point x="-324" y="-139"/>
      <point x="-252" y="-166"/>
      <point x="-148" y="-166" type="curve"/>
    </contour>
    <contour>
      <point x="-88" y="-266" type="line"/>
      <point x="-119" y="-274" smooth="yes"/>
      <point x="-147" y="-277" smooth="yes"/>
      <point x="-168" y="-277" type="curve" smooth="yes"/>
      <point x="-225" y="-277" smooth="yes"/>
      <point x="-264" y="-264" smooth="yes"/>
      <point x="-264" y="-228" type="curve" smooth="yes"/>
      <point x="-264" y="-185"/>
      <point x="-217" y="-171"/>
      <point x="-148" y="-171" type="curve"/>
      <point x="-148" y="-140" type="line"/>
      <point x="-255" y="-140" smooth="yes"/>
      <point x="-324" y="-167" smooth="yes"/>
      <point x="-324" y="-233" type="curve" smooth="yes"/>
      <point x="-324" y="-299" smooth="yes"/>
      <point x="-260" y="-323" smooth="yes"/>
      <point x="-168" y="-323" type="curve" smooth="yes"/>
      <point x="-141" y="-323"/>
      <point x="-109" y="-320"/>
      <point x="-78" y="-312" type="curve"/>
    </contour>
  </outline>
</glyph>
<glyph name="eprishthamatrasigndeva" format="1">
  <advance width="300"/>
  <unicode hex="094E"/>
  <outline>
    <contour>
      <point x="115" y="730" type="line"/>
      <point x="115" y="0" type="line"/>
      <point x="185" y="0" type="line"/>
      <point x="185" y="680" type="line"/>
      <point x="310" y="680" type="line"/>
      <point x="310" y="730" type="line"/>
    </contour>
  </outline>
</glyph>
<glyph name="gravedeva" format="1">
  <advance width="0"/>
  <unicode hex="0953"/>
  <outline>
    <contour>
      <point x="-48" y="782" type="line"/>
      <point x="-220" y="932" type="line"/>
      <point x="-167" y="985" type="line"/>
      <point x="-6" y="824" type="line"/>
    </contour>
  </outline>
</glyph>
<glyph name="uesigndeva" format="1">
  <advance width="0"/>
  <unicode hex="0956"/>
  <outline>
    <contour>
      <point x="-128" y="-60" type="line"/>
      <point x="-128" y="-141" smooth="yes"/>
      <point x="-156" y="-219" smooth="yes"/>
      <point x="-299" y="-219" type="curve" smooth="yes"/>
      <point x="-442" y="-219"/>
      <point x="-469" y="-141"/>
      <point x="-469" y="-60" type="curve"/>
      <point x="-410" y="-60" type="line"/>
      <point x="-410" y="-112" smooth="yes"/>
      <point x="-395" y="-159" smooth="yes"/>
      <point x="-299" y="-159" type="curve" smooth="yes"/>
      <point x="-204" y="-159"/>
      <point x="-189" y="-112"/>
      <point x="-189" y="-60" type="curve"/>
    </contour>
  </outline>
</glyph>
<glyph name="llvocalicsigndeva" format="1">
  <advance width="37"/>
  <unicode hex="0963"/>
  <outline>
    <contour>
      <point x="-131" y="-88" type="line"/>
      <point x="-154" y="-52" smooth="yes"/>
      <point x="-192" y="-32" smooth="yes"/>
      <point x="-246" y="-32" type="curve" smooth="yes"/>
      <point x="-315" y="-32" smooth="yes"/>
      <point x="-368" y="-68" smooth="yes"/>
      <point x="-368" y="-157" type="curve" smooth="yes"/>
      <point x="-368" y="-234"/>
      <point x="-319" y="-286"/>
      <point x="-220" y="-328" type="curve"/>
      <point x="-201" y="-286" type="line"/>
      <point x="-277" y="-251" smooth="yes"/>
      <point x="-314" y="-212" smooth="yes"/>
      <point x="-314" y="-152" type="curve" smooth="yes"/>
      <point x="-314" y="-99" smooth="yes"/>
      <point x="-286" y="-76" smooth="yes"/>
      <point x="-246" y="-76" type="curve" smooth="yes"/>
      <point x="-199" y="-76"/>
      <point x="-172" y="-98"/>
      <point x="-162" y="-138" type="curve"/>
    </contour>
    <contour>
      <point x="-84" y="-355" type="curve" smooth="yes"/>
      <point x="-84" y="-297" smooth="yes"/>
      <point x="78" y="-286" smooth="yes"/>
      <point x="78" y="-156" type="curve" smooth="yes"/>
      <point x="78" y="-68" smooth="yes"/>
      <point x="25" y="-32" smooth="yes"/>
      <point x="-44" y="-32" type="curve" smooth="yes"/>
      <point x="-140" y="-32"/>
      <point x="-185" y="-92"/>
      <point x="-185" y="-184" type="curve"/>
      <point x="-132" y="-190" type="line"/>
      <point x="-132" y="-119" smooth="yes"/>
      <point x="-107" y="-76" smooth="yes"/>
      <point x="-44" y="-76" type="curve" smooth="yes"/>
      <point x="-5" y="-76" smooth="yes"/>
      <point x="24" y="-99" smooth="yes"/>
      <point x="24" y="-152" type="curve" smooth="yes"/>
      <point x="24" y="-254" smooth="yes"/>
      <point x="-138" y="-255" smooth="yes"/>
      <point x="-138" y="-353" type="curve" smooth="yes"/>
      <point x="-138" y="-397"/>
      <point x="-101" y="-417"/>
      <point x="-33" y="-414" type="curve"/>
      <point x="-33" y="-392" type="line"/>
      <point x="-63" y="-392" smooth="yes"/>
      <point x="-84" y="-384" smooth="yes"/>
    </contour>
    <contour>
      <point x="-1" y="-468" type="line"/>
      <point x="-18" y="-473" smooth="yes"/>
      <point x="-34" y="-475" smooth="yes"/>
      <point x="-49" y="-475" type="curve" smooth="yes"/>
      <point x="-74" y="-475" smooth="yes"/>
      <point x="-93" y="-468" smooth="yes"/>
      <point x="-93" y="-449" type="curve" smooth="yes"/>
      <point x="-93" y="-427"/>
      <point x="-72" y="-418"/>
      <point x="-33" y="-418" type="curve"/>
      <point x="-33" y="-395" type="line"/>
      <point x="-96" y="-395" smooth="yes"/>
      <point x="-136" y="-414" smooth="yes"/>
      <point x="-136" y="-453" type="curve" smooth="yes"/>
      <point x="-136" y="-495" smooth="yes"/>
      <point x="-99" y="-509" smooth="yes"/>
      <point x="-57" y="-509" type="curve" smooth="yes"/>
      <point x="-31" y="-509"/>
      <point x="-13" y="-506"/>
      <point x="5" y="-501" type="curve"/>
    </contour>
  </outline>
</glyph>
<glyph name="zerodeva" format="1">
  <advance width="589"/>
  <unicode hex="0966"/>
  <outline>
    <contour>
      <point x="294" y="84" type="curve" smooth="yes"/>
      <point x="462" y="84" smooth="yes"/>
      <point x="524" y="212" smooth="yes"/>
      <point x="524" y="335" type="curve" smooth="yes"/>
      <point x="524" y="457" smooth="yes"/>
      <point x="462" y="587" smooth="yes"/>
      <point x="294" y="587" type="curve" smooth="yes"/>
      <point x="127" y="587" smooth="yes"/>
      <point x="65" y="457" smooth="yes"/>
      <point x="65" y="335" type="curve" smooth="yes"/>
      <point x="65" y="212" smooth="yes"/>
      <point x="127" y="84" smooth="yes"/>
    </contour>
    <contour>
      <point x="294" y="141" type="curve" smooth="yes"/>
      <point x="179" y="141" smooth="yes"/>
      <point x="135" y="230" smooth="yes"/>
      <point x="135" y="335" type="curve" smooth="yes"/>
      <point x="135" y="440" smooth="yes"/>
      <point x="179" y="529" smooth="yes"/>
      <point x="294" y="529" type="curve" smooth="yes"/>
      <point x="410" y="529" smooth="yes"/>
      <point x="454" y="440" smooth="yes"/>
      <point x="454" y="335" type="curve" smooth="yes"/>
      <point x="454" y="230" smooth="yes"/>
      <point x="410" y="141" smooth="yes"/>
    </contour>
  </outline>
</glyph>
<glyph name="fourdeva" format="1">
  <advance width="650"/>
  <unicode hex="096A"/>
  <outline>
    <contour>
      <point x="462" y="765" type="line"/>
      <point x="516" y="723" smooth="yes"/>
      <point x="570" y="648" smooth="yes"/>
      <point x="570" y="552" type="curve" smooth="yes"/>
      <point x="570" y="406"/>
      <point x="471" y="344"/>
      <point x="351" y="318" type="curve"/>
      <point x="329" y="353" type="line"/>
      <point x="422" y="372" smooth="yes"/>
      <point x="500" y="439" smooth="yes"/>
      <point x="500" y="549" type="curve" smooth="yes"/>
      <point x="500" y="634"/>
      <point x="457" y="691"/>
      <point x="408" y="727" type="curve"/>
    </contour>
    <contour>
      <point x="239" y="727" type="line"/>
      <point x="190" y="691" smooth="yes"/>
      <point x="150" y="632" smooth="yes"/>
      <point x="150" y="547" type="curve" smooth="yes"/>
      <point x="150" y="436" smooth="yes"/>
      <point x="205" y="379" smooth="yes"/>
      <point x="291" y="365" type="curve" smooth="yes"/>
      <point x="372" y="352" type="line" smooth="yes"/>
      <point x="502" y="331" smooth="yes"/>
      <point x="549" y="262" smooth="yes"/>
      <point x="549" y="170" type="curve" smooth="yes"/>
      <point x="549" y="76" smooth="yes"/>
      <point x="480" y="-14" smooth="yes"/>
      <point x="325" y="-14" type="curve" smooth="yes"/>
      <point x="170" y="-14" smooth="yes"/>
      <point x="101" y="76" smooth="yes"/>
      <point x="101" y="170" type="curve" smooth="yes"/>
      <point x="101" y="263"/>
      <point x="170" y="333"/>
      <point x="290" y="352" type="curve"/>
      <point x="297" y="315" type="line"/>
      <point x="212" y="302" smooth="yes"/>
      <point x="171" y="239" smooth="yes"/>
      <point x="171" y="170" type="curve" smooth="yes"/>
      <point x="171" y="109" smooth="yes"/>
      <point x="210" y="45" smooth="yes"/>
      <point x="324" y="45" type="curve" smooth="yes"/>
      <point x="438" y="45" smooth="yes"/>
      <point x="479" y="109" smooth="yes"/>
      <point x="479" y="170" type="curve" smooth="yes"/>
      <point x="479" y="234" smooth="yes"/>
      <point x="452" y="289" smooth="yes"/>
      <point x="369" y="302" type="curve" smooth="yes"/>
      <point x="287" y="315" type="line" smooth="yes"/>
      <point x="156" y="337" smooth="yes"/>
      <point x="80" y="407" smooth="yes"/>
      <point x="80" y="553" type="curve" smooth="yes"/>
      <point x="80" y="647"/>
      <point x="131" y="723"/>
      <point x="185" y="765" type="curve"/>
    </contour>
  </outline>
</glyph>
<glyph name="fivedeva" format="1">
  <advance width="520"/>
  <unicode hex="096B"/>
  <outline>
    <contour>
      <point x="330" y="-143" type="line"/>
      <point x="389" y="-115" type="line" smooth="yes"/>
      <point x="459" y="-82" smooth="yes"/>
      <point x="490" y="-45" smooth="yes"/>
      <point x="490" y="7" type="curve" smooth="yes"/>
      <point x="490" y="29" smooth="yes"/>
      <point x="485" y="52" smooth="yes"/>
      <point x="475" y="80" type="curve" smooth="yes"/>
      <point x="389" y="313" type="line"/>
      <point x="425" y="329" smooth="yes"/>
      <point x="440" y="350" smooth="yes"/>
      <point x="440" y="382" type="curve" smooth="yes"/>
      <point x="440" y="423" smooth="yes"/>
      <point x="396" y="457" smooth="yes"/>
      <point x="343" y="457" type="curve" smooth="yes"/>
      <point x="308" y="457" smooth="yes"/>
      <point x="291" y="441" smooth="yes"/>
      <point x="291" y="407" type="curve" smooth="yes"/>
      <point x="291" y="388" smooth="yes"/>
      <point x="296" y="363" smooth="yes"/>
      <point x="307" y="333" type="curve" smooth="yes"/>
      <point x="408" y="49" type="line" smooth="yes"/>
      <point x="414" y="34" smooth="yes"/>
      <point x="417" y="19" smooth="yes"/>
      <point x="417" y="6" type="curve" smooth="yes"/>
      <point x="417" y="-23" smooth="yes"/>
      <point x="402" y="-45" smooth="yes"/>
      <point x="371" y="-62" type="curve" smooth="yes"/>
      <point x="313" y="-93" type="line"/>
    </contour>
    <contour>
      <point x="302" y="297" type="curve"/>
      <point x="323" y="297"/>
      <point x="335" y="298"/>
      <point x="345" y="300" type="curve"/>
      <point x="366" y="362" type="line"/>
      <point x="352" y="357" smooth="yes"/>
      <point x="338" y="356" smooth="yes"/>
      <point x="307" y="356" type="curve" smooth="yes"/>
      <point x="201" y="356" smooth="yes"/>
      <point x="120" y="434" smooth="yes"/>
      <point x="120" y="537" type="curve" smooth="yes"/>
      <point x="120" y="620"/>
      <point x="154" y="690"/>
      <point x="219" y="738" type="curve"/>
      <point x="165" y="775" type="line"/>
      <point x="94" y="719" smooth="yes"/>
      <point x="50" y="631" smooth="yes"/>
      <point x="50" y="543" type="curve" smooth="yes"/>
      <point x="50" y="402" smooth="yes"/>
      <point x="157" y="297" smooth="yes"/>
    </contour>
  </outline>
</glyph>
<glyph name="dddadeva" format="1">
  <advance width="610"/>
  <unicode hex="097E"/>
  <outline>
    <contour>
      <point x="30" y="-120" type="line"/>
      <point x="580" y="-120" type="line"/>
      <point x="580" y="-70" type="line"/>
      <point x="30" y="-70" type="line"/>
    </contour>
    <component  base="ddadeva" xOffset="1"/>
  </outline>
</glyph>
<glyph name="quoteleft" format="1">
  <advance width="283"/>
  <unicode hex="2018"/>
  <outline>
    <contour>
      <point x="176" y="613" type="curve" smooth="yes" name="hr00"/>
      <point x="176" y="585" smooth="yes"/>
      <point x="173" y="555" smooth="yes"/>
      <point x="129" y="555" type="curve" smooth="yes"/>
      <point x="83" y="555" smooth="yes"/>
      <point x="80" y="585" smooth="yes"/>
      <point x="80" y="613" type="curve" smooth="yes"/>
      <point x="80" y="714"/>
      <point x="180" y="783"/>
      <point x="180" y="783" type="curve"/>
      <point x="203" y="756" type="line"/>
      <point x="182" y="737" smooth="yes"/>
      <point x="165" y="720" smooth="yes"/>
      <point x="165" y="677" type="curve" smooth="yes"/>
      <point x="165" y="658" smooth="yes"/>
      <point x="176" y="638" smooth="yes"/>
    </contour>
  </outline>
</glyph>
<glyph name="quotedblleft" format="1">
  <advance width="440"/>
  <unicode hex="201C"/>
  <outline>
    <contour>
      <point x="176" y="613" type="curve" smooth="yes" name="hr00"/>
      <point x="176" y="585" smooth="yes"/>
      <point x="173" y="555" smooth="yes"/>
      <point x="129" y="555" type="curve" smooth="yes"/>
      <point x="83" y="555" smooth="yes"/>
      <point x="80" y="585" smooth="yes"/>
      <point x="80" y="613" type="curve" smooth="yes"/>
      <point x="80" y="714"/>
      <point x="180" y="783"/>
      <point x="180" y="783" type="curve"/>
      <point x="204" y="756" type="line"/>
      <point x="182" y="737"/>
      <point x="165" y="720"/>
      <point x="165" y="677" type="curve"/>
      <point x="165" y="658" smooth="yes"/>
      <point x="176" y="638" smooth="yes"/>
    </contour>
    <contour>
      <point x="333" y="613" type="curve" smooth="yes"/>
      <point x="333" y="585" smooth="yes"/>
      <point x="330" y="555" smooth="yes"/>
      <point x="286" y="555" type="curve" smooth="yes"/>
      <point x="240" y="555" smooth="yes"/>
      <point x="237" y="585" smooth="yes"/>
      <point x="237" y="613" type="curve" smooth="yes"/>
      <point x="237" y="714"/>
      <point x="337" y="783"/>
      <point x="337" y="783" type="curve"/>
      <point x="360" y="756" type="line"/>
      <point x="339" y="737" smooth="yes"/>
      <point x="322" y="720" smooth="yes"/>
      <point x="322" y="677" type="curve" smooth="yes"/>
      <point x="322" y="658" smooth="yes"/>
      <point x="333" y="638" smooth="yes"/>
    </contour>
  </outline>
</glyph>
<glyph name="dagger" format="1">
  <advance width="440"/>
  <unicode hex="2020"/>
  <outline>
    <contour>
      <point x="178" y="730" type="line" name="hr00"/>
      <point x="196" y="0" type="line"/>
      <point x="244" y="0" type="line"/>
      <point x="262" y="730" type="line"/>
    </contour>
    <contour>
      <point x="20" y="496" type="line"/>
      <point x="96" y="496" type="line"/>
      <point x="188" y="508" type="line"/>
      <point x="188" y="560" type="line"/>
      <point x="96" y="572" type="line"/>
      <point x="20" y="572" type="line"/>
    </contour>
    <contour>
      <point x="420" y="572" type="line"/>
      <point x="344" y="572" type="line"/>
      <point x="252" y="560" type="line"/>
      <point x="252" y="508" type="line"/>
      <point x="344" y="496" type="line"/>
      <point x="420" y="496" type="line"/>
    </contour>
  </outline>
</glyph>
<glyph name="ellipsis" format="1">
  <advance width="678"/>
  <unicode hex="2026"/>
  <outline>
    <contour>
      <point x="112" y="-8" type="curve" smooth="yes"/>
      <point x="68" y="-8" smooth="yes"/>
      <point x="65" y="23" smooth="yes"/>
      <point x="65" y="50" type="curve" smooth="yes"/>
      <point x="65" y="78" smooth="yes"/>
      <point x="68" y="109" smooth="yes"/>
      <point x="112" y="109" type="curve" smooth="yes"/>
      <point x="158" y="109" smooth="yes"/>
      <point x="161" y="78" smooth="yes"/>
      <point x="161" y="50" type="curve" smooth="yes"/>
      <point x="161" y="23" smooth="yes"/>
      <point x="158" y="-8" smooth="yes"/>
    </contour>
    <contour>
      <point x="338" y="-8" type="curve" smooth="yes" name="hr01"/>
      <point x="294" y="-8" smooth="yes"/>
      <point x="291" y="23" smooth="yes"/>
      <point x="291" y="50" type="curve" smooth="yes"/>
      <point x="291" y="78" smooth="yes"/>
      <point x="294" y="109" smooth="yes"/>
      <point x="338" y="109" type="curve" smooth="yes"/>
      <point x="384" y="109" smooth="yes"/>
      <point x="387" y="78" smooth="yes"/>
      <point x="387" y="50" type="curve" smooth="yes"/>
      <point x="387" y="23" smooth="yes"/>
      <point x="384" y="-8" smooth="yes"/>
    </contour>
    <contour>
      <point x="564" y="-8" type="curve" smooth="yes" name="hr02"/>
      <point x="520" y="-8" smooth="yes"/>
      <point x="517" y="23" smooth="yes"/>
      <point x="517" y="50" type="curve" smooth="yes"/>
      <point x="517" y="78" smooth="yes"/>
      <point x="520" y="109" smooth="yes"/>
      <point x="564" y="109" type="curve" smooth="yes"/>
      <point x="610" y="109" smooth="yes"/>
      <point x="613" y="78" smooth="yes"/>
      <point x="613" y="50" type="curve" smooth="yes"/>
      <point x="613" y="23" smooth="yes"/>
      <point x="610" y="-8" smooth="yes"/>
    </contour>
  </outline>
</glyph>
<glyph name="zeroinferior" format="1">
  <advance width="414"/>
  <unicode hex="2080"/>
  <outline>
    <contour>
      <point x="206" y="-115" type="curve" smooth="yes" name="hr00"/>
      <point x="336" y="-115" smooth="yes"/>
      <point x="350" y="-33" smooth="yes"/>
      <point x="350" y="96" type="curve" smooth="yes"/>
      <point x="350" y="224" smooth="yes"/>
      <point x="336" y="306" smooth="yes"/>
      <point x="206" y="306" type="curve" smooth="yes"/>
      <point x="77" y="306" smooth="yes"/>
      <point x="63" y="224" smooth="yes"/>
      <point x="63" y="96" type="curve" smooth="yes"/>
      <point x="63" y="-33" smooth="yes"/>
      <point x="77" y="-115" smooth="yes"/>
    </contour>
    <contour>
      <point x="206" y="-71" type="curve" smooth="yes"/>
      <point x="127" y="-71" smooth="yes"/>
      <point x="118" y="-15" smooth="yes"/>
      <point x="118" y="96" type="curve" smooth="yes"/>
      <point x="118" y="206" smooth="yes"/>
      <point x="127" y="262" smooth="yes"/>
      <point x="206" y="262" type="curve" smooth="yes"/>
      <point x="286" y="262" smooth="yes"/>
      <point x="295" y="206" smooth="yes"/>
      <point x="295" y="96" type="curve" smooth="yes"/>
      <point x="295" y="-15" smooth="yes"/>
      <point x="286" y="-71" smooth="yes"/>
    </contour>
  </outline>
</glyph>
<glyph name="threeinferior" format="1">
  <advance width="414"/>
  <unicode hex="2083"/>
  <outline>
    <contour>
      <point x="205" y="262" type="curve" smooth="yes"/>
      <point x="267" y="262" smooth="yes"/>
      <point x="286" y="233" smooth="yes"/>
      <point x="286" y="188" type="curve" smooth="yes"/>
      <point x="286" y="146" smooth="yes"/>
      <point x="262" y="115" smooth="yes"/>
      <point x="211" y="115" type="curve" smooth="yes"/>
      <point x="150" y="115" type="line"/>
      <point x="150" y="82" type="line"/>
      <point x="214" y="82" type="line" smooth="yes"/>
      <point x="280" y="82" smooth="yes"/>
      <point x="341" y="121" smooth="yes"/>
      <point x="341" y="188" type="curve" smooth="yes"/>
      <point x="341" y="259" smooth="yes"/>
      <point x="307" y="307" smooth="yes"/>
      <point x="208" y="307" type="curve" smooth="yes"/>
      <point x="113" y="307"/>
      <point x="80" y="262"/>
      <point x="80" y="185" type="curve"/>
      <point x="128" y="185" type="line"/>
      <point x="128" y="233" smooth="yes"/>
      <point x="148" y="262" smooth="yes"/>
    </contour>
    <contour>
      <point x="347" y="-4" type="curve" smooth="yes"/>
      <point x="347" y="72" smooth="yes"/>
      <point x="288" y="106" smooth="yes"/>
      <point x="220" y="106" type="curve" smooth="yes"/>
      <point x="150" y="106" type="line"/>
      <point x="150" y="73" type="line"/>
      <point x="210" y="73" type="line" smooth="yes"/>
      <point x="266" y="73" smooth="yes"/>
      <point x="292" y="44" smooth="yes"/>
      <point x="292" y="-3" type="curve" smooth="yes" name="hr01"/>
      <point x="292" y="-46" smooth="yes"/>
      <point x="268" y="-71" smooth="yes"/>
      <point x="205" y="-71" type="curve" smooth="yes"/>
      <point x="142" y="-71"/>
      <point x="120" y="-42"/>
      <point x="120" y="6" type="curve"/>
      <point x="72" y="6" type="line"/>
      <point x="72" y="-72" smooth="yes"/>
      <point x="105" y="-115" smooth="yes"/>
      <point x="207" y="-115" type="curve" smooth="yes"/>
      <point x="302" y="-115" smooth="yes"/>
      <point x="347" y="-73" smooth="yes"/>
    </contour>
  </outline>
</glyph>
<glyph name="eightinferior" format="1">
  <advance width="414"/>
  <unicode hex="2088"/>
  <outline>
    <contour>
      <point x="190" y="80" type="line" name="hr00"/>
      <point x="144" y="73" smooth="yes"/>
      <point x="122" y="46" smooth="yes"/>
      <point x="122" y="-2" type="curve" smooth="yes"/>
      <point x="122" y="-45" smooth="yes"/>
      <point x="144" y="-72" smooth="yes"/>
      <point x="207" y="-72" type="curve" smooth="yes"/>
      <point x="270" y="-72" smooth="yes"/>
      <point x="292" y="-45" smooth="yes"/>
      <point x="292" y="-2" type="curve" smooth="yes"/>
      <point x="292" y="43" smooth="yes"/>
      <point x="277" y="66" smooth="yes"/>
      <point x="230" y="73" type="curve" smooth="yes"/>
      <point x="185" y="80" type="line" smooth="yes"/>
      <point x="108" y="92" smooth="yes"/>
      <point x="72" y="121" smooth="yes"/>
      <point x="72" y="189" type="curve" smooth="yes"/>
      <point x="72" y="261" smooth="yes"/>
      <point x="106" y="307" smooth="yes"/>
      <point x="207" y="307" type="curve" smooth="yes"/>
      <point x="309" y="307" smooth="yes"/>
      <point x="342" y="261" smooth="yes"/>
      <point x="342" y="189" type="curve" smooth="yes"/>
      <point x="342" y="121"/>
      <point x="298" y="94"/>
      <point x="223" y="82" type="curve"/>
      <point x="219" y="112" type="line"/>
      <point x="265" y="120" smooth="yes"/>
      <point x="287" y="145" smooth="yes"/>
      <point x="287" y="187" type="curve" smooth="yes"/>
      <point x="287" y="233" smooth="yes"/>
      <point x="271" y="263" smooth="yes"/>
      <point x="207" y="263" type="curve" smooth="yes"/>
      <point x="144" y="263" smooth="yes"/>
      <point x="128" y="233" smooth="yes"/>
      <point x="128" y="187" type="curve" smooth="yes"/>
      <point x="128" y="145" smooth="yes"/>
      <point x="142" y="127" smooth="yes"/>
      <point x="190" y="119" type="curve" smooth="yes"/>
      <point x="235" y="111" type="line" smooth="yes"/>
      <point x="311" y="98" smooth="yes"/>
      <point x="347" y="70" smooth="yes"/>
      <point x="347" y="-3" type="curve" smooth="yes"/>
      <point x="347" y="-75" smooth="yes"/>
      <point x="304" y="-115" smooth="yes"/>
      <point x="207" y="-115" type="curve" smooth="yes"/>
      <point x="110" y="-115" smooth="yes"/>
      <point x="67" y="-75" smooth="yes"/>
      <point x="67" y="-3" type="curve" smooth="yes"/>
      <point x="67" y="70"/>
      <point x="110" y="98"/>
      <point x="186" y="110" type="curve"/>
    </contour>
  </outline>
</glyph>
<glyph name="Omega" format="1">
  <advance width="746"/>
  <unicode hex="2126"/>
  <outline>
    <contour>
      <point x="218" y="161" type="line" name="hr00"/>
      <point x="218" y="0" type="line"/>
      <point x="279" y="0" type="line"/>
      <point x="279" y="161" type="line"/>
    </contour>
    <contour>
      <point x="97" y="0" type="line"/>
      <point x="218" y="0" type="line"/>
      <point x="218" y="50" type="line"/>
      <point x="97" y="50" type="line"/>
    </contour>
    <contour>
      <point x="373" y="625" type="curve"/>
      <point x="550" y="625" smooth="yes"/>
      <point x="604" y="533" smooth="yes"/>
      <point x="604" y="386" type="curve" smooth="yes"/>
      <point x="604" y="282"/>
      <point x="572" y="207"/>
      <point x="467" y="182" type="curve"/>
      <point x="467" y="126" type="line"/>
      <point x="617" y="159" smooth="yes"/>
      <point x="676" y="248" smooth="yes"/>
      <point x="676" y="392" type="curve" smooth="yes"/>
      <point x="676" y="573" smooth="yes"/>
      <point x="594" y="684" smooth="yes"/>
      <point x="373" y="684" type="curve" smooth="yes"/>
      <point x="152" y="684" smooth="yes"/>
      <point x="70" y="573" smooth="yes"/>
      <point x="70" y="392" type="curve" smooth="yes"/>
      <point x="70" y="248"/>
      <point x="129" y="159"/>
      <point x="279" y="126" type="curve"/>
      <point x="279" y="182" type="line"/>
      <point x="174" y="207" smooth="yes"/>
      <point x="142" y="282" smooth="yes"/>
      <point x="142" y="386" type="curve" smooth="yes"/>
      <point x="142" y="533" smooth="yes"/>
      <point x="196" y="625" smooth="yes"/>
    </contour>
    <contour>
      <point x="467" y="161" type="line"/>
      <point x="467" y="0" type="line"/>
      <point x="527" y="0" type="line"/>
      <point x="527" y="161" type="line"/>
    </contour>
    <contour>
      <point x="649" y="50" type="line"/>
      <point x="527" y="50" type="line"/>
      <point x="527" y="0" type="line"/>
      <point x="649" y="0" type="line"/>
    </contour>
  </outline>
</glyph>
<glyph name="partialdiff" format="1">
  <advance width="615"/>
  <unicode hex="2202"/>
  <outline>
    <contour>
      <point x="555" y="374" type="curve" smooth="yes" name="hr00"/>
      <point x="555" y="585"/>
      <point x="477" y="707"/>
      <point x="424" y="764" type="curve"/>
      <point x="382" y="723" type="line"/>
      <point x="436" y="661"/>
      <point x="484" y="576"/>
      <point x="490" y="443" type="curve"/>
      <point x="467" y="479" smooth="yes"/>
      <point x="428" y="506" smooth="yes"/>
      <point x="351" y="506" type="curve" smooth="yes"/>
      <point x="139" y="506" smooth="yes"/>
      <point x="60" y="381" smooth="yes"/>
      <point x="60" y="167" type="curve" smooth="yes"/>
      <point x="60" y="70" smooth="yes"/>
      <point x="100" y="-14" smooth="yes"/>
      <point x="259" y="-14" type="curve" smooth="yes"/>
      <point x="471" y="-14" smooth="yes"/>
      <point x="555" y="111" smooth="yes"/>
    </contour>
    <contour>
      <point x="270" y="45" type="curve" smooth="yes"/>
      <point x="158" y="45" smooth="yes"/>
      <point x="131" y="109" smooth="yes"/>
      <point x="131" y="178" type="curve" smooth="yes"/>
      <point x="131" y="345" smooth="yes"/>
      <point x="184" y="447" smooth="yes"/>
      <point x="341" y="447" type="curve" smooth="yes"/>
      <point x="452" y="447" smooth="yes"/>
      <point x="479" y="383" smooth="yes"/>
      <point x="479" y="314" type="curve" smooth="yes"/>
      <point x="479" y="147" smooth="yes"/>
      <point x="426" y="45" smooth="yes"/>
    </contour>
  </outline>
</glyph>
<glyph name="Delta" format="1">
  <advance width="572"/>
  <unicode hex="2206"/>
  <outline>
    <contour>
      <point x="257" y="670" type="line" name="hr00"/>
      <point x="501" y="0" type="line"/>
      <point x="572" y="0" type="line"/>
      <point x="324" y="670" type="line"/>
    </contour>
    <contour>
      <point x="248" y="670" type="line"/>
      <point x="0" y="0" type="line"/>
      <point x="71" y="0" type="line"/>
      <point x="315" y="670" type="line"/>
    </contour>
    <contour>
      <point x="30" y="0" type="line"/>
      <point x="542" y="0" type="line"/>
      <point x="542" y="50" type="line"/>
      <point x="30" y="50" type="line"/>
    </contour>
  </outline>
</glyph>
<glyph name="summation" format="1">
  <advance width="555"/>
  <unicode hex="2211"/>
  <outline>
    <contour>
      <point x="50" y="620" type="line" name="hr00"/>
      <point x="515" y="620" type="line"/>
      <point x="515" y="670" type="line"/>
      <point x="50" y="670" type="line"/>
    </contour>
    <contour>
      <point x="50" y="-177" type="line"/>
      <point x="515" y="-177" type="line"/>
      <point x="515" y="-127" type="line"/>
      <point x="50" y="-127" type="line"/>
    </contour>
    <contour>
      <point x="128" y="-127" type="line"/>
      <point x="364" y="249" type="line"/>
      <point x="289" y="249" type="line"/>
      <point x="50" y="-127" type="line"/>
    </contour>
    <contour>
      <point x="50" y="620" type="line"/>
      <point x="289" y="249" type="line"/>
      <point x="364" y="249" type="line"/>
      <point x="126" y="620" type="line"/>
    </contour>
  </outline>
</glyph>
<glyph name="minus" format="1">
  <advance width="580"/>
  <unicode hex="2212"/>
  <outline>
    <contour>
      <point x="94" y="288" type="line" name="hr00"/>
      <point x="486" y="288" type="line"/>
      <point x="486" y="348" type="line"/>
      <point x="94" y="348" type="line"/>
    </contour>
  </outline>
</glyph>
<glyph name="radical" format="1">
  <advance width="547"/>
  <unicode hex="221A"/>
  <outline>
    <contour>
      <point x="247" y="0" type="line" name="hr00"/>
      <point x="477" y="730" type="line"/>
      <point x="406" y="730" type="line"/>
      <point x="180" y="0" type="line"/>
    </contour>
    <contour>
      <point x="238" y="0" type="line"/>
      <point x="71" y="437" type="line"/>
      <point x="0" y="437" type="line"/>
      <point x="171" y="0" type="line"/>
    </contour>
    <contour>
      <point x="597" y="730" type="line"/>
      <point x="431" y="730" type="line"/>
      <point x="431" y="680" type="line"/>
      <point x="597" y="680" type="line"/>
    </contour>
  </outline>
</glyph>
<glyph name="integral" format="1">
  <advance width="451"/>
  <unicode hex="222B"/>
  <outline>
    <contour>
      <point x="188" y="-35" type="line" smooth="yes" name="hr00"/>
      <point x="188" y="-141" smooth="yes"/>
      <point x="146" y="-181" smooth="yes"/>
      <point x="88" y="-181" type="curve" smooth="yes"/>
      <point x="54" y="-181"/>
      <point x="25" y="-174"/>
      <point x="0" y="-159" type="curve"/>
      <point x="-24" y="-211" type="line"/>
      <point x="6" y="-229" smooth="yes"/>
      <point x="46" y="-240" smooth="yes"/>
      <point x="88" y="-240" type="curve" smooth="yes"/>
      <point x="205" y="-240" smooth="yes"/>
      <point x="260" y="-175" smooth="yes"/>
      <point x="260" y="-35" type="curve" smooth="yes"/>
      <point x="260" y="479" type="line" smooth="yes"/>
      <point x="260" y="585" smooth="yes"/>
      <point x="302" y="625" smooth="yes"/>
      <point x="360" y="625" type="curve" smooth="yes"/>
      <point x="394" y="625"/>
      <point x="423" y="618"/>
      <point x="448" y="603" type="curve"/>
      <point x="472" y="655" type="line"/>
      <point x="442" y="673" smooth="yes"/>
      <point x="402" y="684" smooth="yes"/>
      <point x="360" y="684" type="curve" smooth="yes"/>
      <point x="243" y="684" smooth="yes"/>
      <point x="188" y="619" smooth="yes"/>
      <point x="188" y="479" type="curve" smooth="yes"/>
    </contour>
  </outline>
</glyph>
<glyph name="ucombiningletterdeva" format="1">
  <advance width="271"/>
  <unicode hex="A8EB"/>
  <outline>
    <contour>
      <point x="-154" y="1096" type="line"/>
      <point x="-113" y="1096" smooth="yes"/>
      <point x="-99" y="1076" smooth="yes"/>
      <point x="-99" y="1046" type="curve" smooth="yes"/>
      <point x="-99" y="1018" smooth="yes"/>
      <point x="-114" y="996" smooth="yes"/>
      <point x="-154" y="996" type="curve" smooth="yes"/>
      <point x="-183" y="996" type="line"/>
      <point x="-183" y="968" type="line"/>
      <point x="-150" y="968" type="line" smooth="yes"/>
      <point x="-98" y="968" smooth="yes"/>
      <point x="-50" y="995" smooth="yes"/>
      <point x="-50" y="1047" type="curve" smooth="yes"/>
      <point x="-50" y="1090"/>
      <point x="-77" y="1120"/>
      <point x="-154" y="1120" type="curve"/>
    </contour>
    <contour>
      <point x="-265" y="903" type="line"/>
      <point x="-251" y="848" smooth="yes"/>
      <point x="-210" y="818" smooth="yes"/>
      <point x="-149" y="818" type="curve" smooth="yes"/>
      <point x="-77" y="818" smooth="yes"/>
      <point x="-46" y="854" smooth="yes"/>
      <point x="-46" y="906" type="curve" smooth="yes"/>
      <point x="-46" y="963" smooth="yes"/>
      <point x="-87" y="988" smooth="yes"/>
      <point x="-145" y="988" type="curve" smooth="yes"/>
      <point x="-183" y="988" type="line"/>
      <point x="-183" y="960" type="line"/>
      <point x="-154" y="960" type="line" smooth="yes"/>
      <point x="-120" y="960" smooth="yes"/>
      <point x="-95" y="942" smooth="yes"/>
      <point x="-95" y="907" type="curve" smooth="yes"/>
      <point x="-95" y="876" smooth="yes"/>
      <point x="-110" y="858" smooth="yes"/>
      <point x="-151" y="858" type="curve" smooth="yes"/>
      <point x="-185" y="858"/>
      <point x="-210" y="875"/>
      <point x="-220" y="915" type="curve"/>
    </contour>
    <contour>
      <point x="-293" y="1096" type="line"/>
      <point x="-12" y="1096" type="line"/>
      <point x="-12" y="1129" type="line"/>
      <point x="-293" y="1129" type="line"/>
    </contour>
  </outline>
</glyph>
<glyph name="racombiningletterdeva" format="1">
  <advance width="261"/>
  <unicode hex="A8EF"/>
  <outline>
    <contour>
      <point x="-282" y="1096" type="line"/>
      <point x="-11" y="1096" type="line"/>
      <point x="-11" y="1129" type="line"/>
      <point x="-282" y="1129" type="line"/>
    </contour>
    <contour>
      <point x="-245" y="1013" type="line"/>
      <point x="-235" y="910"/>
      <point x="-184" y="851"/>
      <point x="-69" y="794" type="curve"/>
      <point x="-53" y="833" type="line"/>
      <point x="-152" y="881"/>
      <point x="-192" y="927"/>
      <point x="-201" y="1013" type="curve"/>
    </contour>
    <contour>
      <point x="-240" y="1013" type="line"/>
      <point x="-226" y="956" smooth="yes"/>
      <point x="-198" y="917" smooth="yes"/>
      <point x="-146" y="917" type="curve" smooth="yes"/>
      <point x="-64" y="917" smooth="yes"/>
      <point x="-53" y="965" smooth="yes"/>
      <point x="-53" y="1015" type="curve" smooth="yes"/>
      <point x="-53" y="1096" type="line"/>
      <point x="-102" y="1096" type="line"/>
      <point x="-102" y="1015" type="line" smooth="yes"/>
      <point x="-102" y="983" smooth="yes"/>
      <point x="-105" y="956" smooth="yes"/>
      <point x="-150" y="956" type="curve" smooth="yes"/>
      <point x="-178" y="956"/>
      <point x="-192" y="978"/>
      <point x="-198" y="1013" type="curve"/>
    </contour>
  </outline>
</glyph>
<glyph name="avagrahacombiningsigndeva" format="1">
  <advance width="0"/>
  <unicode hex="A8F1"/>
  <outline>
    <contour>
      <point x="-46" y="894" type="curve" smooth="yes"/>
      <point x="-46" y="825" smooth="yes"/>
      <point x="-90" y="803" smooth="yes"/>
      <point x="-147" y="803" type="curve" smooth="yes"/>
      <point x="-224" y="803"/>
      <point x="-257" y="858"/>
      <point x="-257" y="939" type="curve"/>
      <point x="-209" y="945" type="line"/>
      <point x="-209" y="881" smooth="yes"/>
      <point x="-190" y="842" smooth="yes"/>
      <point x="-147" y="842" type="curve" smooth="yes"/>
      <point x="-116" y="842" smooth="yes"/>
      <point x="-95" y="858" smooth="yes"/>
      <point x="-95" y="894" type="curve" smooth="yes"/>
      <point x="-95" y="970" smooth="yes"/>
      <point x="-239" y="970" smooth="yes"/>
      <point x="-239" y="1058" type="curve" smooth="yes"/>
      <point x="-239" y="1105" smooth="yes"/>
      <point x="-205" y="1129" smooth="yes"/>
      <point x="-160" y="1129" type="curve" smooth="yes"/>
      <point x="-83" y="1129" type="line"/>
      <point x="-83" y="1096" type="line"/>
      <point x="-150" y="1096" type="line" smooth="yes"/>
      <point x="-178" y="1096" smooth="yes"/>
      <point x="-190" y="1080" smooth="yes"/>
      <point x="-190" y="1058" type="curve" smooth="yes"/>
      <point x="-190" y="1001" smooth="yes"/>
      <point x="-46" y="999" smooth="yes"/>
    </contour>
  </outline>
</glyph>
<glyph name="spacingcandrabindudeva" format="1">
  <advance width="541"/>
  <unicode hex="A8F2"/>
  <outline>
    <contour>
      <point x="271" y="670" type="curve" smooth="yes"/>
      <point x="308" y="670" smooth="yes"/>
      <point x="324" y="685" smooth="yes"/>
      <point x="324" y="721" type="curve" smooth="yes"/>
      <point x="324" y="758" smooth="yes"/>
      <point x="309" y="773" smooth="yes"/>
      <point x="271" y="773" type="curve" smooth="yes"/>
      <point x="235" y="773" smooth="yes"/>
      <point x="220" y="758" smooth="yes"/>
      <point x="220" y="721" type="curve" smooth="yes"/>
      <point x="220" y="685" smooth="yes"/>
      <point x="235" y="670" smooth="yes"/>
    </contour>
    <contour>
      <point x="380" y="680" type="line"/>
      <point x="380" y="628" smooth="yes"/>
      <point x="365" y="581" smooth="yes"/>
      <point x="270" y="581" type="curve" smooth="yes"/>
      <point x="174" y="581"/>
      <point x="159" y="628"/>
      <point x="159" y="680" type="curve"/>
      <point x="100" y="680" type="line"/>
      <point x="100" y="599" smooth="yes"/>
      <point x="127" y="521" smooth="yes"/>
      <point x="270" y="521" type="curve" smooth="yes"/>
      <point x="413" y="521"/>
      <point x="441" y="599"/>
      <point x="441" y="680" type="curve"/>
    </contour>
  </outline>
</glyph>
<glyph name="headstrokedeva" format="1">
  <advance width="681"/>
  <unicode hex="A8FB"/>
  <outline>
    <contour>
      <point x="52" y="1052" type="line"/>
      <point x="52" y="1102" type="line"/>
      <point x="629" y="1102" type="line"/>
      <point x="629" y="1052" type="line"/>
    </contour>
  </outline>
</glyph>
<glyph name="R.001" format="1">
  <advance width="659"/>
  <outline>
    <contour>
      <point x="130" y="671" type="line" name="hr00"/>
      <point x="130" y="0" type="line"/>
      <point x="202" y="0" type="line"/>
      <point x="202" y="671" type="line"/>
    </contour>
    <contour>
      <point x="340" y="305" type="line" smooth="yes"/>
      <point x="538" y="305" smooth="yes"/>
      <point x="559" y="408" smooth="yes"/>
      <point x="559" y="517" type="curve" smooth="yes"/>
      <point x="559" y="627" smooth="yes"/>
      <point x="538" y="730" smooth="yes"/>
      <point x="340" y="730" type="curve" smooth="yes"/>
      <point x="130" y="730" type="line"/>
      <point x="130" y="305" type="line"/>
    </contour>
    <contour>
      <point x="202" y="364" type="line"/>
      <point x="202" y="671" type="line"/>
      <point x="340" y="671" type="line" smooth="yes"/>
      <point x="473" y="671" smooth="yes"/>
      <point x="487" y="602" smooth="yes"/>
      <point x="487" y="517" type="curve" smooth="yes"/>
      <point x="487" y="433" smooth="yes"/>
      <point x="473" y="364" smooth="yes"/>
      <point x="340" y="364" type="curve" smooth="yes"/>
    </contour>
    <contour>
      <point x="281" y="305" type="line"/>
      <point x="347" y="305" smooth="yes"/>
      <point x="386" y="295" smooth="yes"/>
      <point x="411" y="237" type="curve" smooth="yes"/>
      <point x="512" y="0" type="line"/>
      <point x="589" y="0" type="line"/>
      <point x="481" y="249" type="line" smooth="yes"/>
      <point x="444" y="333"/>
      <point x="398" y="340"/>
      <point x="281" y="340" type="curve"/>
    </contour>
  </outline>
</glyph>
<glyph name=".notdef" format="1">
  <advance width="1040"/>
  <outline>
    <contour>
      <point x="195" y="65" type="line"/>
      <point x="846" y="65" type="line"/>
      <point x="846" y="846" type="line"/>
      <point x="195" y="846" type="line"/>
    </contour>
    <contour>
      <point x="130" y="0" type="line"/>
      <point x="130" y="910" type="line"/>
      <point x="910" y="910" type="line"/>
      <point x="910" y="0" type="line"/>
    </contour>
  </outline>
</glyph>
<glyph name="aisign_ra_virama_anusvara" format="1">
  <advance width="0"/>
  <outline>
    <contour>
      <point x="-19" y="823" type="curve" smooth="yes"/>
      <point x="18" y="823" smooth="yes"/>
      <point x="34" y="838" smooth="yes"/>
      <point x="34" y="874" type="curve" smooth="yes"/>
      <point x="34" y="911" smooth="yes"/>
      <point x="19" y="926" smooth="yes"/>
      <point x="-19" y="926" type="curve" smooth="yes"/>
      <point x="-55" y="926" smooth="yes"/>
      <point x="-70" y="911" smooth="yes"/>
      <point x="-70" y="874" type="curve" smooth="yes"/>
      <point x="-70" y="838" smooth="yes"/>
      <point x="-55" y="823" smooth="yes"/>
    </contour>
    <contour>
      <point x="-53" y="1087" type="curve" smooth="yes"/>
      <point x="-168" y="1087"/>
      <point x="-241" y="1019"/>
      <point x="-226" y="887" type="curve"/>
      <point x="-152" y="730" type="line"/>
      <point x="-119" y="730" type="line"/>
      <point x="-158" y="778" smooth="yes"/>
      <point x="-181" y="825" smooth="yes"/>
      <point x="-181" y="898" type="curve" smooth="yes"/>
      <point x="-181" y="974" smooth="yes"/>
      <point x="-149" y="1030" smooth="yes"/>
      <point x="-58" y="1030" type="curve" smooth="yes"/>
      <point x="-24" y="1030"/>
      <point x="15" y="1025"/>
      <point x="55" y="1013" type="curve"/>
      <point x="70" y="1068" type="line"/>
      <point x="35" y="1080" smooth="yes"/>
      <point x="-6" y="1087" smooth="yes"/>
    </contour>
    <contour>
      <point x="-119" y="730" type="line"/>
      <point x="-298" y="1066" type="line"/>
      <point x="-356" y="1035" type="line"/>
      <point x="-171" y="730" type="line"/>
    </contour>
    <contour>
      <point x="-135" y="730" type="line"/>
      <point x="-163" y="760" type="line"/>
      <point x="-416" y="933" type="line"/>
      <point x="-453" y="880" type="line"/>
      <point x="-199" y="730" type="line"/>
    </contour>
  </outline>
</glyph>
<glyph name="aisigndeva_anusvaradeva" format="1">
  <advance width="0"/>
  <outline>
    <contour>
      <point x="-90" y="922" type="curve" smooth="yes"/>
      <point x="-53" y="922" smooth="yes"/>
      <point x="-37" y="937" smooth="yes"/>
      <point x="-37" y="973" type="curve" smooth="yes"/>
      <point x="-37" y="1010" smooth="yes"/>
      <point x="-52" y="1025" smooth="yes"/>
      <point x="-90" y="1025" type="curve" smooth="yes"/>
      <point x="-126" y="1025" smooth="yes"/>
      <point x="-141" y="1010" smooth="yes"/>
      <point x="-141" y="973" type="curve" smooth="yes"/>
      <point x="-141" y="937" smooth="yes"/>
      <point x="-126" y="922" smooth="yes"/>
    </contour>
    <contour>
      <point x="-105" y="730" type="line"/>
      <point x="-284" y="1066" type="line"/>
      <point x="-342" y="1035" type="line"/>
      <point x="-157" y="730" type="line"/>
    </contour>
    <contour>
      <point x="-121" y="730" type="line"/>
      <point x="-149" y="760" type="line"/>
      <point x="-402" y="933" type="line"/>
      <point x="-439" y="880" type="line"/>
      <point x="-185" y="730" type="line"/>
    </contour>
  </outline>
</glyph>
<glyph name="esign_ra_virama.alt1" format="1">
  <advance width="0"/>
  <outline>
    <contour>
      <point x="-53" y="1087" type="curve" smooth="yes"/>
      <point x="-271" y="1087"/>
      <point x="-285" y="860"/>
      <point x="-177" y="730" type="curve"/>
      <point x="-119" y="730" type="line"/>
      <point x="-158" y="778" smooth="yes"/>
      <point x="-181" y="825" smooth="yes"/>
      <point x="-181" y="898" type="curve" smooth="yes"/>
      <point x="-181" y="974" smooth="yes"/>
      <point x="-149" y="1030" smooth="yes"/>
      <point x="-58" y="1030" type="curve" smooth="yes"/>
      <point x="-24" y="1030"/>
      <point x="15" y="1025"/>
      <point x="55" y="1013" type="curve"/>
      <point x="70" y="1068" type="line"/>
      <point x="35" y="1080" smooth="yes"/>
      <point x="-6" y="1087" smooth="yes"/>
    </contour>
    <contour>
      <point x="-120" y="730" type="line"/>
      <point x="-406" y="1066" type="line"/>
      <point x="-457" y="1022" type="line"/>
      <point x="-187" y="730" type="line"/>
    </contour>
  </outline>
</glyph>
<glyph name="iisigndeva_anusvaradeva.alt1" format="1">
  <advance width="300"/>
  <outline>
    <contour>
      <point x="257" y="922" type="curve" smooth="yes"/>
      <point x="294" y="922" smooth="yes"/>
      <point x="310" y="937" smooth="yes"/>
      <point x="310" y="973" type="curve" smooth="yes"/>
      <point x="310" y="1010" smooth="yes"/>
      <point x="295" y="1025" smooth="yes"/>
      <point x="257" y="1025" type="curve" smooth="yes"/>
      <point x="221" y="1025" smooth="yes"/>
      <point x="206" y="1010" smooth="yes"/>
      <point x="206" y="973" type="curve" smooth="yes"/>
      <point x="206" y="937" smooth="yes"/>
      <point x="221" y="922" smooth="yes"/>
    </contour>
    <contour>
      <point x="179" y="730" type="line"/>
      <point x="142" y="860" smooth="yes"/>
      <point x="13" y="1070" smooth="yes"/>
      <point x="-275" y="1070" type="curve" smooth="yes"/>
      <point x="-454" y="1070" smooth="yes"/>
      <point x="-521" y="974" smooth="yes"/>
      <point x="-521" y="870" type="curve" smooth="yes"/>
      <point x="-521" y="820"/>
      <point x="-504" y="770"/>
      <point x="-475" y="730" type="curve"/>
      <point x="-401" y="730" type="line"/>
      <point x="-428" y="761" smooth="yes"/>
      <point x="-451" y="819" smooth="yes"/>
      <point x="-451" y="869" type="curve" smooth="yes"/>
      <point x="-451" y="943" smooth="yes"/>
      <point x="-400" y="1010" smooth="yes"/>
      <point x="-268" y="1010" type="curve" smooth="yes"/>
      <point x="-29" y="1010"/>
      <point x="75" y="830"/>
      <point x="110" y="730" type="curve"/>
    </contour>
    <component  base="aasigndeva"/>
  </outline>
</glyph>
<glyph name="isign_ra_virama_anusvara.alt2" format="1">
  <advance width="300"/>
  <outline>
    <contour>
      <point x="1387" y="823" type="curve" smooth="yes"/>
      <point x="1424" y="823" smooth="yes"/>
      <point x="1440" y="838" smooth="yes"/>
      <point x="1440" y="874" type="curve" smooth="yes"/>
      <point x="1440" y="911" smooth="yes"/>
      <point x="1425" y="926" smooth="yes"/>
      <point x="1387" y="926" type="curve" smooth="yes"/>
      <point x="1351" y="926" smooth="yes"/>
      <point x="1336" y="911" smooth="yes"/>
      <point x="1336" y="874" type="curve" smooth="yes"/>
      <point x="1336" y="838" smooth="yes"/>
      <point x="1351" y="823" smooth="yes"/>
    </contour>
    <component  base="isign_ra_virama.alt2"/>
  </outline>
</glyph>
<glyph name="isign_ra_virama_anusvara.alt3" format="1">
  <advance width="300"/>
  <outline>
    <contour>
      <point x="852" y="823" type="curve" smooth="yes"/>
      <point x="889" y="823" smooth="yes"/>
      <point x="905" y="838" smooth="yes"/>
      <point x="905" y="874" type="curve" smooth="yes"/>
      <point x="905" y="911" smooth="yes"/>
      <point x="890" y="926" smooth="yes"/>
      <point x="852" y="926" type="curve" smooth="yes"/>
      <point x="816" y="926" smooth="yes"/>
      <point x="801" y="911" smooth="yes"/>
      <point x="801" y="874" type="curve" smooth="yes"/>
      <point x="801" y="838" smooth="yes"/>
      <point x="816" y="823" smooth="yes"/>
    </contour>
    <component  base="isign_ra_virama.alt3"/>
  </outline>
</glyph>
<glyph name="radeva_viramadeva.alt" format="1">
  <advance width="315"/>
  <outline>
    <contour>
      <point x="-10" y="679" type="line"/>
      <point x="-10" y="730" type="line"/>
      <point x="325" y="730" type="line"/>
      <point x="325" y="679" type="line"/>
    </contour>
    <contour>
      <point x="17" y="393" type="line"/>
      <point x="49" y="378" smooth="yes"/>
      <point x="132" y="359" smooth="yes"/>
      <point x="199" y="359" type="curve" smooth="yes"/>
      <point x="267" y="359"/>
      <point x="308" y="363"/>
      <point x="345" y="372" type="curve"/>
      <point x="345" y="422" type="line"/>
      <point x="308" y="413" smooth="yes"/>
      <point x="267" y="409" smooth="yes"/>
      <point x="199" y="409" type="curve" smooth="yes"/>
      <point x="132" y="409"/>
      <point x="49" y="428"/>
      <point x="17" y="443" type="curve"/>
    </contour>
  </outline>
</glyph>
<glyph name="ba_virama_ra_viramadeva" format="1">
  <advance width="315"/>
  <outline>
    <contour>
      <point x="362" y="185" type="line"/>
      <point x="405" y="210" type="line"/>
      <point x="216" y="537" type="line"/>
      <point x="173" y="512" type="line"/>
    </contour>
    <contour>
      <point x="430" y="252" type="line"/>
      <point x="99" y="86" type="line"/>
      <point x="130" y="27" type="line"/>
      <point x="440" y="198" type="line"/>
    </contour>
    <component  base="vadeva_viramadeva"/>
  </outline>
</glyph>
<glyph name="breve.case" format="1">
  <advance width="425"/>
  <outline>
    <contour>
      <point x="338" y="937" type="line" name="hr00"/>
      <point x="338" y="868" smooth="yes"/>
      <point x="325" y="802" smooth="yes"/>
      <point x="212" y="802" type="curve" smooth="yes"/>
      <point x="100" y="802"/>
      <point x="87" y="868"/>
      <point x="87" y="937" type="curve"/>
      <point x="142" y="937" type="line"/>
      <point x="142" y="899" smooth="yes"/>
      <point x="146" y="863" smooth="yes"/>
      <point x="212" y="863" type="curve" smooth="yes"/>
      <point x="278" y="863"/>
      <point x="282" y="899"/>
      <point x="282" y="937" type="curve"/>
    </contour>
  </outline>
</glyph>
<glyph name="chadeva_viramadeva" format="1">
  <advance width="754"/>
  <outline>
    <contour>
      <point x="272" y="720" type="line"/>
      <point x="97" y="720" smooth="yes"/>
      <point x="38" y="654" smooth="yes"/>
      <point x="38" y="559" type="curve" smooth="yes"/>
      <point x="38" y="465" smooth="yes"/>
      <point x="137" y="394" smooth="yes"/>
      <point x="250" y="394" type="curve" smooth="yes"/>
      <point x="314" y="394" type="line"/>
      <point x="314" y="436" type="line"/>
      <point x="249" y="436" type="line" smooth="yes"/>
      <point x="160" y="436" smooth="yes"/>
      <point x="108" y="491" smooth="yes"/>
      <point x="108" y="556" type="curve" smooth="yes"/>
      <point x="108" y="630"/>
      <point x="143" y="680"/>
      <point x="272" y="680" type="curve"/>
    </contour>
    <contour>
      <point x="764" y="730" type="line"/>
      <point x="-10" y="730" type="line"/>
      <point x="-10" y="680" type="line"/>
      <point x="764" y="680" type="line"/>
    </contour>
    <contour>
      <point x="727" y="364" type="curve" smooth="yes"/>
      <point x="727" y="464" smooth="yes"/>
      <point x="711" y="557" smooth="yes"/>
      <point x="560" y="557" type="curve" smooth="yes"/>
      <point x="409" y="557" smooth="yes"/>
      <point x="393" y="464" smooth="yes"/>
      <point x="393" y="364" type="curve" smooth="yes"/>
      <point x="393" y="270"/>
      <point x="410" y="189"/>
      <point x="554" y="151" type="curve"/>
      <point x="579" y="197" type="line"/>
      <point x="464" y="227" smooth="yes"/>
      <point x="456" y="295" smooth="yes"/>
      <point x="456" y="364" type="curve" smooth="yes"/>
      <point x="456" y="437" smooth="yes"/>
      <point x="462" y="506" smooth="yes"/>
      <point x="559" y="506" type="curve" smooth="yes"/>
      <point x="658" y="506" smooth="yes"/>
      <point x="663" y="437" smooth="yes"/>
      <point x="663" y="364" type="curve" smooth="yes"/>
      <point x="663" y="213" smooth="yes"/>
      <point x="466" y="103" smooth="yes"/>
      <point x="271" y="103" type="curve" smooth="yes"/>
      <point x="159" y="103" smooth="yes"/>
      <point x="108" y="152" smooth="yes"/>
      <point x="108" y="233" type="curve" smooth="yes"/>
      <point x="108" y="315" smooth="yes"/>
      <point x="152" y="386" smooth="yes"/>
      <point x="259" y="386" type="curve" smooth="yes"/>
      <point x="314" y="386" type="line"/>
      <point x="314" y="429" type="line"/>
      <point x="248" y="429" type="line" smooth="yes"/>
      <point x="137" y="429" smooth="yes"/>
      <point x="38" y="367" smooth="yes"/>
      <point x="38" y="235" type="curve" smooth="yes"/>
      <point x="38" y="112" smooth="yes"/>
      <point x="120" y="45" smooth="yes"/>
      <point x="271" y="45" type="curve" smooth="yes"/>
      <point x="476" y="45" smooth="yes"/>
      <point x="727" y="183" smooth="yes"/>
    </contour>
  </outline>
</glyph>
<glyph name="circumflex.case" format="1">
  <advance width="401"/>
  <outline>
    <contour>
      <point x="92" y="782" type="line" name="hr00"/>
      <point x="200" y="892" type="line"/>
      <point x="309" y="782" type="line"/>
      <point x="351" y="824" type="line"/>
      <point x="215" y="979" type="line"/>
      <point x="186" y="979" type="line"/>
      <point x="50" y="824" type="line"/>
    </contour>
  </outline>
</glyph>
<glyph name="dadeva_viramadeva_badeva" format="1">
  <advance width="610"/>
  <outline>
    <contour>
      <point x="343" y="-33" type="line"/>
      <point x="375" y="-8" type="line"/>
      <point x="261" y="162" type="line"/>
      <point x="229" y="137" type="line"/>
    </contour>
    <component  base="dadeva_viramadeva_vadeva"/>
  </outline>
</glyph>
<glyph name="dadeva_viramadeva_dhadeva" format="1">
  <advance width="793"/>
  <outline>
    <contour>
      <point x="357" y="179" type="line"/>
      <point x="316" y="161" smooth="yes"/>
      <point x="290" y="127" smooth="yes"/>
      <point x="290" y="73" type="curve" smooth="yes"/>
      <point x="290" y="-5" smooth="yes"/>
      <point x="339" y="-56" smooth="yes"/>
      <point x="449" y="-56" type="curve" smooth="yes"/>
      <point x="534" y="-56"/>
      <point x="622" y="-15"/>
      <point x="681" y="63" type="curve"/>
      <point x="653" y="102" type="line"/>
      <point x="613" y="45" smooth="yes"/>
      <point x="532" y="0" smooth="yes"/>
      <point x="451" y="0" type="curve" smooth="yes"/>
      <point x="386" y="0" smooth="yes"/>
      <point x="361" y="29" smooth="yes"/>
      <point x="361" y="75" type="curve" smooth="yes"/>
      <point x="361" y="111"/>
      <point x="379" y="136"/>
      <point x="408" y="146" type="curve"/>
    </contour>
    <contour>
      <point x="649" y="155" type="line"/>
      <point x="689" y="176" smooth="yes"/>
      <point x="696" y="195" smooth="yes"/>
      <point x="696" y="218" type="curve" smooth="yes"/>
      <point x="696" y="263" smooth="yes"/>
      <point x="643" y="299" smooth="yes"/>
      <point x="588" y="299" type="curve" smooth="yes"/>
      <point x="537" y="299" smooth="yes"/>
      <point x="525" y="264" smooth="yes"/>
      <point x="569" y="175" type="curve" smooth="yes"/>
      <point x="675" y="-39" type="line"/>
      <point x="737" y="-9" type="line"/>
    </contour>
    <contour>
      <point x="639" y="236" type="line"/>
      <point x="616" y="199" smooth="yes"/>
      <point x="572" y="175" smooth="yes"/>
      <point x="498" y="175" type="curve" smooth="yes"/>
      <point x="351" y="175" smooth="yes"/>
      <point x="290" y="223" smooth="yes"/>
      <point x="290" y="336" type="curve" smooth="yes"/>
      <point x="290" y="442" smooth="yes"/>
      <point x="341" y="485" smooth="yes"/>
      <point x="478" y="485" type="curve" smooth="yes"/>
      <point x="567" y="485" type="line"/>
      <point x="567" y="730" type="line"/>
      <point x="-13" y="730" type="line"/>
      <point x="-13" y="680" type="line"/>
      <point x="497" y="680" type="line"/>
      <point x="497" y="535" type="line"/>
      <point x="450" y="535" type="line" smooth="yes"/>
      <point x="284" y="535" smooth="yes"/>
      <point x="220" y="465" smooth="yes"/>
      <point x="220" y="336" type="curve" smooth="yes"/>
      <point x="220" y="194" smooth="yes"/>
      <point x="305" y="116" smooth="yes"/>
      <point x="492" y="116" type="curve" smooth="yes"/>
      <point x="551" y="116"/>
      <point x="635" y="137"/>
      <point x="670" y="175" type="curve"/>
    </contour>
    <contour>
      <point x="567" y="680" type="line"/>
      <point x="803" y="680" type="line"/>
      <point x="803" y="730" type="line"/>
      <point x="567" y="730" type="line"/>
    </contour>
    <contour>
      <point x="200" y="274" type="line"/>
      <point x="185" y="278" smooth="yes"/>
      <point x="170" y="279" smooth="yes"/>
      <point x="157" y="279" type="curve" smooth="yes"/>
      <point x="67" y="279" smooth="yes"/>
      <point x="29" y="228" smooth="yes"/>
      <point x="29" y="165" type="curve" smooth="yes"/>
      <point x="29" y="73"/>
      <point x="111" y="0"/>
      <point x="325" y="0" type="curve"/>
      <point x="336" y="54" type="line"/>
      <point x="165" y="54" smooth="yes"/>
      <point x="99" y="101" smooth="yes"/>
      <point x="99" y="165" type="curve" smooth="yes"/>
      <point x="99" y="201" smooth="yes"/>
      <point x="119" y="227" smooth="yes"/>
      <point x="166" y="227" type="curve" smooth="yes"/>
      <point x="174" y="227"/>
      <point x="185" y="226"/>
      <point x="196" y="224" type="curve"/>
    </contour>
  </outline>
</glyph>
<glyph name="dadeva_viramadeva_ghadeva" format="1">
  <advance width="710"/>
  <outline>
    <contour>
      <point x="267" y="174" type="line"/>
      <point x="230" y="157" smooth="yes"/>
      <point x="207" y="124" smooth="yes"/>
      <point x="207" y="73" type="curve" smooth="yes"/>
      <point x="207" y="-5" smooth="yes"/>
      <point x="256" y="-56" smooth="yes"/>
      <point x="366" y="-56" type="curve" smooth="yes"/>
      <point x="451" y="-56"/>
      <point x="539" y="-15"/>
      <point x="598" y="63" type="curve"/>
      <point x="570" y="102" type="line"/>
      <point x="530" y="45" smooth="yes"/>
      <point x="449" y="0" smooth="yes"/>
      <point x="368" y="0" type="curve" smooth="yes"/>
      <point x="303" y="0" smooth="yes"/>
      <point x="278" y="29" smooth="yes"/>
      <point x="278" y="75" type="curve" smooth="yes"/>
      <point x="278" y="111"/>
      <point x="296" y="136"/>
      <point x="325" y="146" type="curve"/>
    </contour>
    <contour>
      <point x="566" y="155" type="line"/>
      <point x="606" y="176" smooth="yes"/>
      <point x="613" y="195" smooth="yes"/>
      <point x="613" y="218" type="curve" smooth="yes"/>
      <point x="613" y="263" smooth="yes"/>
      <point x="560" y="299" smooth="yes"/>
      <point x="505" y="299" type="curve" smooth="yes"/>
      <point x="454" y="299" smooth="yes"/>
      <point x="442" y="264" smooth="yes"/>
      <point x="486" y="175" type="curve" smooth="yes"/>
      <point x="592" y="-39" type="line"/>
      <point x="654" y="-9" type="line"/>
    </contour>
    <contour>
      <point x="556" y="236" type="line"/>
      <point x="530" y="199" smooth="yes"/>
      <point x="480" y="175" smooth="yes"/>
      <point x="396" y="175" type="curve" smooth="yes"/>
      <point x="272" y="175" smooth="yes"/>
      <point x="221" y="223" smooth="yes"/>
      <point x="221" y="336" type="curve" smooth="yes"/>
      <point x="221" y="442" smooth="yes"/>
      <point x="273" y="485" smooth="yes"/>
      <point x="410" y="485" type="curve" smooth="yes"/>
      <point x="567" y="485" type="line"/>
      <point x="567" y="730" type="line"/>
      <point x="-13" y="730" type="line"/>
      <point x="-13" y="680" type="line"/>
      <point x="497" y="680" type="line"/>
      <point x="497" y="535" type="line"/>
      <point x="409" y="535" type="line" smooth="yes"/>
      <point x="223" y="535" smooth="yes"/>
      <point x="151" y="475" smooth="yes"/>
      <point x="151" y="336" type="curve" smooth="yes"/>
      <point x="151" y="184" smooth="yes"/>
      <point x="226" y="116" smooth="yes"/>
      <point x="391" y="116" type="curve" smooth="yes"/>
      <point x="456" y="116"/>
      <point x="549" y="137"/>
      <point x="587" y="175" type="curve"/>
    </contour>
    <contour>
      <point x="567" y="680" type="line"/>
      <point x="720" y="680" type="line"/>
      <point x="720" y="730" type="line"/>
      <point x="567" y="730" type="line"/>
    </contour>
    <contour>
      <point x="274" y="180" type="line"/>
      <point x="244" y="162" smooth="yes"/>
      <point x="207" y="150" smooth="yes"/>
      <point x="166" y="150" type="curve" smooth="yes"/>
      <point x="100" y="150" smooth="yes"/>
      <point x="69" y="186" smooth="yes"/>
      <point x="69" y="235" type="curve" smooth="yes"/>
      <point x="69" y="277" smooth="yes"/>
      <point x="100" y="311" smooth="yes"/>
      <point x="167" y="311" type="curve" smooth="yes"/>
      <point x="173" y="311"/>
      <point x="179" y="311"/>
      <point x="185" y="310" type="curve"/>
      <point x="182" y="364" type="line"/>
      <point x="173" y="365" smooth="yes"/>
      <point x="164" y="365" smooth="yes"/>
      <point x="154" y="365" type="curve" smooth="yes"/>
      <point x="46" y="365" smooth="yes"/>
      <point x="-1" y="307" smooth="yes"/>
      <point x="-1" y="235" type="curve" smooth="yes"/>
      <point x="-1" y="158" smooth="yes"/>
      <point x="42" y="96" smooth="yes"/>
      <point x="155" y="96" type="curve" smooth="yes"/>
      <point x="230" y="96"/>
      <point x="292" y="124"/>
      <point x="330" y="164" type="curve"/>
    </contour>
  </outline>
</glyph>
<glyph name="dadeva_viramadeva_vadeva" format="1">
  <advance width="610"/>
  <outline>
    <contour>
      <point x="167" y="174" type="line"/>
      <point x="130" y="157" smooth="yes"/>
      <point x="107" y="124" smooth="yes"/>
      <point x="107" y="73" type="curve" smooth="yes"/>
      <point x="107" y="-5" smooth="yes"/>
      <point x="156" y="-56" smooth="yes"/>
      <point x="266" y="-56" type="curve" smooth="yes"/>
      <point x="351" y="-56"/>
      <point x="439" y="-15"/>
      <point x="498" y="63" type="curve"/>
      <point x="470" y="102" type="line"/>
      <point x="430" y="45" smooth="yes"/>
      <point x="349" y="0" smooth="yes"/>
      <point x="268" y="0" type="curve" smooth="yes"/>
      <point x="203" y="0" smooth="yes"/>
      <point x="178" y="29" smooth="yes"/>
      <point x="178" y="75" type="curve" smooth="yes"/>
      <point x="178" y="111"/>
      <point x="196" y="136"/>
      <point x="225" y="146" type="curve"/>
    </contour>
    <contour>
      <point x="466" y="155" type="line"/>
      <point x="506" y="176" smooth="yes"/>
      <point x="513" y="195" smooth="yes"/>
      <point x="513" y="218" type="curve" smooth="yes"/>
      <point x="513" y="263" smooth="yes"/>
      <point x="460" y="299" smooth="yes"/>
      <point x="405" y="299" type="curve" smooth="yes"/>
      <point x="354" y="299" smooth="yes"/>
      <point x="342" y="264" smooth="yes"/>
      <point x="386" y="175" type="curve" smooth="yes"/>
      <point x="492" y="-39" type="line"/>
      <point x="554" y="-9" type="line"/>
    </contour>
    <contour>
      <point x="456" y="236" type="line"/>
      <point x="430" y="199" smooth="yes"/>
      <point x="380" y="175" smooth="yes"/>
      <point x="296" y="175" type="curve" smooth="yes"/>
      <point x="172" y="175" smooth="yes"/>
      <point x="121" y="223" smooth="yes"/>
      <point x="121" y="336" type="curve" smooth="yes"/>
      <point x="121" y="442" smooth="yes"/>
      <point x="173" y="485" smooth="yes"/>
      <point x="310" y="485" type="curve" smooth="yes"/>
      <point x="495" y="485" type="line"/>
      <point x="495" y="730" type="line"/>
      <point x="-10" y="730" type="line"/>
      <point x="-10" y="680" type="line"/>
      <point x="425" y="680" type="line"/>
      <point x="425" y="535" type="line"/>
      <point x="309" y="535" type="line" smooth="yes"/>
      <point x="123" y="535" smooth="yes"/>
      <point x="51" y="475" smooth="yes"/>
      <point x="51" y="336" type="curve" smooth="yes"/>
      <point x="51" y="184" smooth="yes"/>
      <point x="126" y="116" smooth="yes"/>
      <point x="291" y="116" type="curve" smooth="yes"/>
      <point x="356" y="116"/>
      <point x="449" y="137"/>
      <point x="487" y="175" type="curve"/>
    </contour>
    <contour>
      <point x="495" y="680" type="line"/>
      <point x="620" y="680" type="line"/>
      <point x="620" y="730" type="line"/>
      <point x="495" y="730" type="line"/>
    </contour>
  </outline>
</glyph>
<glyph name="ddhadeva_viramadeva_ddhadeva" format="1">
  <advance width="610"/>
  <outline>
    <contour>
      <point x="495" y="680" type="line"/>
      <point x="620" y="680" type="line"/>
      <point x="620" y="730" type="line"/>
      <point x="495" y="730" type="line"/>
    </contour>
    <contour>
      <point x="548" y="390" type="curve" smooth="yes"/>
      <point x="548" y="446" smooth="yes"/>
      <point x="534" y="497" smooth="yes"/>
      <point x="405" y="497" type="curve" smooth="yes"/>
      <point x="275" y="497" smooth="yes"/>
      <point x="262" y="446" smooth="yes"/>
      <point x="262" y="390" type="curve" smooth="yes"/>
      <point x="262" y="335"/>
      <point x="276" y="285"/>
      <point x="398" y="266" type="curve"/>
      <point x="457" y="300" type="line"/>
      <point x="333" y="314" smooth="yes"/>
      <point x="325" y="347" smooth="yes"/>
      <point x="325" y="390" type="curve" smooth="yes"/>
      <point x="325" y="426" smooth="yes"/>
      <point x="329" y="449" smooth="yes"/>
      <point x="404" y="449" type="curve" smooth="yes"/>
      <point x="480" y="449" smooth="yes"/>
      <point x="484" y="426" smooth="yes"/>
      <point x="484" y="390" type="curve" smooth="yes"/>
      <point x="484" y="330" smooth="yes"/>
      <point x="436" y="287" smooth="yes"/>
      <point x="299" y="287" type="curve" smooth="yes"/>
      <point x="173" y="287" smooth="yes"/>
      <point x="121" y="331" smooth="yes"/>
      <point x="121" y="427" type="curve" smooth="yes"/>
      <point x="121" y="516" smooth="yes"/>
      <point x="173" y="544" smooth="yes"/>
      <point x="310" y="544" type="curve" smooth="yes"/>
      <point x="495" y="544" type="line"/>
      <point x="495" y="730" type="line"/>
      <point x="-10" y="730" type="line"/>
      <point x="-10" y="680" type="line"/>
      <point x="425" y="680" type="line"/>
      <point x="425" y="600" type="line"/>
      <point x="309" y="600" type="line" smooth="yes"/>
      <point x="123" y="600" smooth="yes"/>
      <point x="51" y="551" smooth="yes"/>
      <point x="51" y="427" type="curve" smooth="yes"/>
      <point x="51" y="294" smooth="yes"/>
      <point x="129" y="234" smooth="yes"/>
      <point x="299" y="234" type="curve" smooth="yes"/>
      <point x="487" y="234" smooth="yes"/>
      <point x="548" y="301" smooth="yes"/>
    </contour>
    <contour>
      <point x="548" y="-59" type="curve" smooth="yes"/>
      <point x="548" y="-3" smooth="yes"/>
      <point x="534" y="48" smooth="yes"/>
      <point x="405" y="48" type="curve" smooth="yes"/>
      <point x="275" y="48" smooth="yes"/>
      <point x="262" y="-3" smooth="yes"/>
      <point x="262" y="-59" type="curve" smooth="yes"/>
      <point x="262" y="-114"/>
      <point x="276" y="-164"/>
      <point x="398" y="-183" type="curve"/>
      <point x="457" y="-149" type="line"/>
      <point x="333" y="-135" smooth="yes"/>
      <point x="325" y="-102" smooth="yes"/>
      <point x="325" y="-59" type="curve" smooth="yes"/>
      <point x="325" y="-23" smooth="yes"/>
      <point x="329" y="0" smooth="yes"/>
      <point x="404" y="0" type="curve" smooth="yes"/>
      <point x="480" y="0" smooth="yes"/>
      <point x="484" y="-23" smooth="yes"/>
      <point x="484" y="-59" type="curve" smooth="yes"/>
      <point x="484" y="-119" smooth="yes"/>
      <point x="436" y="-162" smooth="yes"/>
      <point x="299" y="-162" type="curve" smooth="yes"/>
      <point x="173" y="-162" smooth="yes"/>
      <point x="121" y="-118" smooth="yes"/>
      <point x="121" y="-22" type="curve" smooth="yes"/>
      <point x="121" y="67" smooth="yes"/>
      <point x="173" y="95" smooth="yes"/>
      <point x="310" y="95" type="curve" smooth="yes"/>
      <point x="495" y="95" type="line"/>
      <point x="495" y="311" type="line"/>
      <point x="425" y="281" type="line"/>
      <point x="425" y="151" type="line"/>
      <point x="309" y="151" type="line" smooth="yes"/>
      <point x="123" y="151" smooth="yes"/>
      <point x="51" y="102" smooth="yes"/>
      <point x="51" y="-22" type="curve" smooth="yes"/>
      <point x="51" y="-155" smooth="yes"/>
      <point x="129" y="-215" smooth="yes"/>
      <point x="299" y="-215" type="curve" smooth="yes"/>
      <point x="487" y="-215" smooth="yes"/>
      <point x="548" y="-148" smooth="yes"/>
    </contour>
  </outline>
</glyph>
<glyph name="dhadeva_viramadeva" format="1">
  <advance width="415"/>
  <outline>
    <contour>
      <point x="540" y="680" type="line"/>
      <point x="540" y="730" type="line"/>
      <point x="420" y="730" type="line"/>
      <point x="420" y="680" type="line"/>
    </contour>
    <contour>
      <point x="289" y="71" type="curve" smooth="yes"/>
      <point x="411" y="71"/>
      <point x="502" y="126"/>
      <point x="565" y="212" type="curve"/>
      <point x="565" y="277" type="line"/>
      <point x="514" y="201" smooth="yes"/>
      <point x="425" y="129" smooth="yes"/>
      <point x="289" y="129" type="curve" smooth="yes"/>
      <point x="188" y="129" smooth="yes"/>
      <point x="143" y="177" smooth="yes"/>
      <point x="143" y="256" type="curve" smooth="yes"/>
      <point x="143" y="324" smooth="yes"/>
      <point x="188" y="376" smooth="yes"/>
      <point x="308" y="376" type="curve" smooth="yes"/>
      <point x="362" y="376" type="line"/>
      <point x="362" y="426" type="line"/>
      <point x="302" y="426" type="line" smooth="yes"/>
      <point x="153" y="426" smooth="yes"/>
      <point x="73" y="372" smooth="yes"/>
      <point x="73" y="257" type="curve" smooth="yes"/>
      <point x="73" y="138" smooth="yes"/>
      <point x="147" y="71" smooth="yes"/>
    </contour>
    <contour>
      <point x="100" y="598" type="curve" smooth="yes"/>
      <point x="100" y="659" smooth="yes"/>
      <point x="134" y="694" smooth="yes"/>
      <point x="194" y="694" type="curve" smooth="yes"/>
      <point x="250" y="694" smooth="yes"/>
      <point x="283" y="666" smooth="yes"/>
      <point x="283" y="618" type="curve" smooth="yes"/>
      <point x="283" y="574"/>
      <point x="268" y="548"/>
      <point x="231" y="529" type="curve"/>
      <point x="265" y="485" type="line"/>
      <point x="322" y="511" smooth="yes"/>
      <point x="351" y="551" smooth="yes"/>
      <point x="351" y="619" type="curve" smooth="yes"/>
      <point x="351" y="697" smooth="yes"/>
      <point x="292" y="744" smooth="yes"/>
      <point x="194" y="744" type="curve" smooth="yes"/>
      <point x="92" y="744" smooth="yes"/>
      <point x="32" y="690" smooth="yes"/>
      <point x="32" y="598" type="curve" smooth="yes"/>
      <point x="32" y="479"/>
      <point x="94" y="396"/>
      <point x="178" y="360" type="curve"/>
      <point x="212" y="401" type="line"/>
      <point x="139" y="428" smooth="yes"/>
      <point x="100" y="497" smooth="yes"/>
    </contour>
  </outline>
</glyph>
<glyph name="dotaccent.case" format="1">
  <advance width="274"/>
  <outline>
    <contour>
      <point x="144" y="818" type="curve" name="hr00"/>
      <point x="194" y="818" smooth="yes"/>
      <point x="197" y="853" smooth="yes"/>
      <point x="197" y="883" type="curve" smooth="yes"/>
      <point x="197" y="914" smooth="yes"/>
      <point x="194" y="949" smooth="yes"/>
      <point x="144" y="949" type="curve" smooth="yes"/>
      <point x="96" y="949" smooth="yes"/>
      <point x="93" y="914" smooth="yes"/>
      <point x="93" y="883" type="curve" smooth="yes"/>
      <point x="93" y="853" smooth="yes"/>
      <point x="96" y="818" smooth="yes"/>
    </contour>
  </outline>
</glyph>
<glyph name="ecandrasigndeva" format="1">
  <advance width="0"/>
  <outline>
    <contour>
      <point x="21" y="991" type="line"/>
      <point x="21" y="910" smooth="yes"/>
      <point x="-7" y="832" smooth="yes"/>
      <point x="-150" y="832" type="curve" smooth="yes"/>
      <point x="-293" y="832"/>
      <point x="-320" y="910"/>
      <point x="-320" y="991" type="curve"/>
      <point x="-261" y="991" type="line"/>
      <point x="-261" y="939" smooth="yes"/>
      <point x="-246" y="892" smooth="yes"/>
      <point x="-150" y="892" type="curve" smooth="yes"/>
      <point x="-55" y="892"/>
      <point x="-40" y="939"/>
      <point x="-40" y="991" type="curve"/>
    </contour>
  </outline>
</glyph>
<glyph name="eightdeva.np" format="1">
  <advance width="604"/>
  <outline>
    <contour>
      <point x="351" y="595" type="line"/>
      <point x="188" y="333" type="line" smooth="yes"/>
      <point x="159" y="287" smooth="yes"/>
      <point x="140" y="240" smooth="yes"/>
      <point x="140" y="185" type="curve" smooth="yes"/>
      <point x="140" y="121" smooth="yes"/>
      <point x="158" y="42" smooth="yes"/>
      <point x="288" y="42" type="curve" smooth="yes"/>
      <point x="390" y="42"/>
      <point x="458" y="113"/>
      <point x="498" y="191" type="curve"/>
      <point x="554" y="153" type="line"/>
      <point x="504" y="69" smooth="yes"/>
      <point x="418" y="-14" smooth="yes"/>
      <point x="291" y="-14" type="curve" smooth="yes"/>
      <point x="110" y="-14" smooth="yes"/>
      <point x="70" y="90" smooth="yes"/>
      <point x="70" y="185" type="curve" smooth="yes"/>
      <point x="70" y="265" smooth="yes"/>
      <point x="105" y="333" smooth="yes"/>
      <point x="142" y="391" type="curve" smooth="yes"/>
      <point x="271" y="595" type="line"/>
    </contour>
    <contour>
      <point x="554" y="573" type="line"/>
      <point x="70" y="573" type="line"/>
      <point x="70" y="623" type="line"/>
      <point x="554" y="623" type="line"/>
    </contour>
  </outline>
</glyph>
<glyph name="esign_ra_virama_anusvara" format="1">
  <advance width="0"/>
  <outline>
    <contour>
      <point x="-19" y="823" type="curve" smooth="yes"/>
      <point x="18" y="823" smooth="yes"/>
      <point x="34" y="838" smooth="yes"/>
      <point x="34" y="874" type="curve" smooth="yes"/>
      <point x="34" y="911" smooth="yes"/>
      <point x="19" y="926" smooth="yes"/>
      <point x="-19" y="926" type="curve" smooth="yes"/>
      <point x="-55" y="926" smooth="yes"/>
      <point x="-70" y="911" smooth="yes"/>
      <point x="-70" y="874" type="curve" smooth="yes"/>
      <point x="-70" y="838" smooth="yes"/>
      <point x="-55" y="823" smooth="yes"/>
    </contour>
    <contour>
      <point x="-53" y="1087" type="curve" smooth="yes"/>
      <point x="-271" y="1087"/>
      <point x="-285" y="860"/>
      <point x="-177" y="730" type="curve"/>
      <point x="-119" y="730" type="line"/>
      <point x="-158" y="778" smooth="yes"/>
      <point x="-181" y="825" smooth="yes"/>
      <point x="-181" y="898" type="curve" smooth="yes"/>
      <point x="-181" y="974" smooth="yes"/>
      <point x="-149" y="1030" smooth="yes"/>
      <point x="-58" y="1030" type="curve" smooth="yes"/>
      <point x="-24" y="1030"/>
      <point x="15" y="1025"/>
      <point x="55" y="1013" type="curve"/>
      <point x="70" y="1068" type="line"/>
      <point x="35" y="1080" smooth="yes"/>
      <point x="-6" y="1087" smooth="yes"/>
    </contour>
    <contour>
      <point x="-120" y="730" type="line"/>
      <point x="-406" y="1066" type="line"/>
      <point x="-457" y="1022" type="line"/>
      <point x="-187" y="730" type="line"/>
    </contour>
  </outline>
</glyph>
<glyph name="eslash" format="1">
  <advance width="310"/>
  <outline>
    <contour>
      <point x="30" y="302" type="line" name="hr00"/>
      <point x="280" y="402" type="line"/>
      <point x="280" y="457" type="line"/>
      <point x="30" y="357" type="line"/>
    </contour>
  </outline>
</glyph>
<glyph name="fivecombiningdigitdeva" format="1">
  <advance width="0"/>
  <outline>
    <contour>
      <point x="-114" y="744" type="line"/>
      <point x="-89" y="755" type="line" smooth="yes"/>
      <point x="-57" y="769" smooth="yes"/>
      <point x="-40" y="789" smooth="yes"/>
      <point x="-40" y="814" type="curve" smooth="yes"/>
      <point x="-40" y="826" smooth="yes"/>
      <point x="-42" y="836" smooth="yes"/>
      <point x="-47" y="851" type="curve" smooth="yes"/>
      <point x="-78" y="939" type="line"/>
      <point x="-62" y="947" smooth="yes"/>
      <point x="-55" y="957" smooth="yes"/>
      <point x="-55" y="972" type="curve" smooth="yes"/>
      <point x="-55" y="995" smooth="yes"/>
      <point x="-81" y="1016" smooth="yes"/>
      <point x="-111" y="1016" type="curve" smooth="yes"/>
      <point x="-130" y="1016" smooth="yes"/>
      <point x="-142" y="1006" smooth="yes"/>
      <point x="-142" y="983" type="curve" smooth="yes"/>
      <point x="-142" y="977" smooth="yes"/>
      <point x="-140" y="965" smooth="yes"/>
      <point x="-135" y="950" type="curve" smooth="yes"/>
      <point x="-96" y="836" type="line" smooth="yes"/>
      <point x="-93" y="828" smooth="yes"/>
      <point x="-91" y="819" smooth="yes"/>
      <point x="-91" y="813" type="curve" smooth="yes"/>
      <point x="-91" y="800" smooth="yes"/>
      <point x="-98" y="791" smooth="yes"/>
      <point x="-113" y="783" type="curve" smooth="yes"/>
      <point x="-128" y="775" type="line"/>
    </contour>
    <contour>
      <point x="-136" y="926" type="curve" smooth="yes"/>
      <point x="-127" y="926"/>
      <point x="-122" y="927"/>
      <point x="-118" y="928" type="curve"/>
      <point x="-106" y="970" type="line"/>
      <point x="-111" y="968" smooth="yes"/>
      <point x="-116" y="968" smooth="yes"/>
      <point x="-128" y="968" type="curve" smooth="yes"/>
      <point x="-173" y="968" smooth="yes"/>
      <point x="-205" y="998" smooth="yes"/>
      <point x="-205" y="1040" type="curve" smooth="yes"/>
      <point x="-205" y="1072"/>
      <point x="-191" y="1101"/>
      <point x="-165" y="1121" type="curve"/>
      <point x="-201" y="1149" type="line"/>
      <point x="-235" y="1124" smooth="yes"/>
      <point x="-255" y="1084" smooth="yes"/>
      <point x="-255" y="1040" type="curve" smooth="yes"/>
      <point x="-255" y="975" smooth="yes"/>
      <point x="-206" y="926" smooth="yes"/>
    </contour>
  </outline>
</glyph>
<glyph name="gapfillerdeva" format="1">
  <advance width="789"/>
  <outline>
    <contour>
      <point x="762" y="364" type="curve" smooth="yes"/>
      <point x="762" y="464" smooth="yes"/>
      <point x="746" y="557" smooth="yes"/>
      <point x="595" y="557" type="curve" smooth="yes"/>
      <point x="444" y="557" smooth="yes"/>
      <point x="428" y="464" smooth="yes"/>
      <point x="428" y="364" type="curve" smooth="yes"/>
      <point x="428" y="270"/>
      <point x="445" y="189"/>
      <point x="589" y="151" type="curve"/>
      <point x="614" y="197" type="line"/>
      <point x="499" y="227" smooth="yes"/>
      <point x="491" y="295" smooth="yes"/>
      <point x="491" y="364" type="curve" smooth="yes"/>
      <point x="491" y="437" smooth="yes"/>
      <point x="497" y="506" smooth="yes"/>
      <point x="594" y="506" type="curve" smooth="yes"/>
      <point x="693" y="506" smooth="yes"/>
      <point x="698" y="437" smooth="yes"/>
      <point x="698" y="364" type="curve" smooth="yes"/>
      <point x="698" y="213" smooth="yes"/>
      <point x="501" y="103" smooth="yes"/>
      <point x="306" y="103" type="curve" smooth="yes"/>
      <point x="194" y="103" smooth="yes"/>
      <point x="143" y="156" smooth="yes"/>
      <point x="143" y="243" type="curve" smooth="yes"/>
      <point x="143" y="320" smooth="yes"/>
      <point x="187" y="386" smooth="yes"/>
      <point x="294" y="386" type="curve" smooth="yes"/>
      <point x="349" y="386" type="line"/>
      <point x="349" y="436" type="line"/>
      <point x="283" y="436" type="line" smooth="yes"/>
      <point x="172" y="436" smooth="yes"/>
      <point x="73" y="375" smooth="yes"/>
      <point x="73" y="245" type="curve" smooth="yes"/>
      <point x="73" y="116" smooth="yes"/>
      <point x="155" y="45" smooth="yes"/>
      <point x="306" y="45" type="curve" smooth="yes"/>
      <point x="511" y="45" smooth="yes"/>
      <point x="762" y="183" smooth="yes"/>
    </contour>
  </outline>
</glyph>
<glyph name="ghadeva_viramadeva" format="1">
  <advance width="415"/>
  <outline>
    <contour>
      <point x="290" y="718" type="line"/>
      <point x="128" y="718" smooth="yes"/>
      <point x="73" y="658" smooth="yes"/>
      <point x="73" y="572" type="curve" smooth="yes"/>
      <point x="73" y="484" smooth="yes"/>
      <point x="166" y="420" smooth="yes"/>
      <point x="271" y="420" type="curve" smooth="yes"/>
      <point x="337" y="420" type="line"/>
      <point x="337" y="462" type="line"/>
      <point x="271" y="462" type="line" smooth="yes"/>
      <point x="189" y="462" smooth="yes"/>
      <point x="143" y="510" smooth="yes"/>
      <point x="143" y="569" type="curve" smooth="yes"/>
      <point x="143" y="635"/>
      <point x="175" y="680"/>
      <point x="290" y="680" type="curve"/>
    </contour>
    <contour>
      <point x="540" y="730" type="line"/>
      <point x="-10" y="730" type="line"/>
      <point x="-10" y="680" type="line"/>
      <point x="540" y="680" type="line"/>
    </contour>
    <contour>
      <point x="289" y="101" type="curve" smooth="yes"/>
      <point x="411" y="101"/>
      <point x="502" y="148"/>
      <point x="565" y="222" type="curve"/>
      <point x="565" y="287" type="line"/>
      <point x="514" y="221" smooth="yes"/>
      <point x="425" y="159" smooth="yes"/>
      <point x="289" y="159" type="curve" smooth="yes"/>
      <point x="188" y="159" smooth="yes"/>
      <point x="143" y="203" smooth="yes"/>
      <point x="143" y="276" type="curve" smooth="yes"/>
      <point x="143" y="351" smooth="yes"/>
      <point x="186" y="412" smooth="yes"/>
      <point x="281" y="412" type="curve" smooth="yes"/>
      <point x="337" y="412" type="line"/>
      <point x="337" y="454" type="line"/>
      <point x="269" y="454" type="line" smooth="yes"/>
      <point x="164" y="454" smooth="yes"/>
      <point x="73" y="398" smooth="yes"/>
      <point x="73" y="277" type="curve" smooth="yes"/>
      <point x="73" y="164" smooth="yes"/>
      <point x="147" y="101" smooth="yes"/>
    </contour>
  </outline>
</glyph>
<glyph name="h.alt" format="1">
  <advance width="681"/>
  <outline>
    <contour>
      <point x="190" y="750" type="line" name="hr00"/>
      <point x="120" y="750" type="line"/>
      <point x="120" y="0" type="line"/>
      <point x="190" y="0" type="line"/>
    </contour>
    <contour>
      <point x="167" y="383" type="line"/>
      <point x="232" y="442" smooth="yes"/>
      <point x="305" y="477" smooth="yes"/>
      <point x="385" y="477" type="curve" smooth="yes"/>
      <point x="461" y="477" smooth="yes"/>
      <point x="491" y="441" smooth="yes"/>
      <point x="491" y="358" type="curve" smooth="yes"/>
      <point x="491" y="0" type="line"/>
      <point x="561" y="0" type="line"/>
      <point x="561" y="357" type="line" smooth="yes"/>
      <point x="561" y="478" smooth="yes"/>
      <point x="515" y="536" smooth="yes"/>
      <point x="396" y="536" type="curve" smooth="yes"/>
      <point x="296" y="536"/>
      <point x="202" y="480"/>
      <point x="153" y="432" type="curve"/>
    </contour>
    <contour>
      <point x="60" y="0" type="line"/>
      <point x="250" y="0" type="line"/>
      <point x="250" y="50" type="line"/>
      <point x="60" y="50" type="line"/>
    </contour>
    <contour>
      <point x="431" y="0" type="line"/>
      <point x="621" y="0" type="line"/>
      <point x="621" y="50" type="line"/>
      <point x="431" y="50" type="line"/>
    </contour>
  </outline>
</glyph>
<glyph name="hadeva_viramadeva_nnadeva" format="1">
  <advance width="716"/>
  <outline>
    <contour>
      <point x="463" y="343" type="line"/>
      <point x="463" y="201" type="line" smooth="yes"/>
      <point x="463" y="151" smooth="yes"/>
      <point x="453" y="108" smooth="yes"/>
      <point x="382" y="108" type="curve" smooth="yes"/>
      <point x="310" y="108" smooth="yes"/>
      <point x="301" y="151" smooth="yes"/>
      <point x="301" y="201" type="curve" smooth="yes"/>
      <point x="301" y="343" type="line"/>
      <point x="235" y="343" type="line"/>
      <point x="235" y="201" type="line" smooth="yes"/>
      <point x="235" y="124" smooth="yes"/>
      <point x="260" y="51" smooth="yes"/>
      <point x="382" y="51" type="curve" smooth="yes"/>
      <point x="504" y="51" smooth="yes"/>
      <point x="529" y="124" smooth="yes"/>
      <point x="529" y="201" type="curve" smooth="yes"/>
      <point x="529" y="343" type="line"/>
    </contour>
    <contour>
      <point x="676" y="206" type="line" smooth="yes"/>
      <point x="676" y="326" smooth="yes"/>
      <point x="565" y="397" smooth="yes"/>
      <point x="395" y="397" type="curve" smooth="yes"/>
      <point x="200" y="397" smooth="yes"/>
      <point x="73" y="306" smooth="yes"/>
      <point x="73" y="136" type="curve" smooth="yes"/>
      <point x="73" y="-23"/>
      <point x="163" y="-108"/>
      <point x="334" y="-176" type="curve"/>
      <point x="360" y="-118" type="line"/>
      <point x="215" y="-60" smooth="yes"/>
      <point x="143" y="7" smooth="yes"/>
      <point x="143" y="146" type="curve" smooth="yes"/>
      <point x="143" y="266" smooth="yes"/>
      <point x="236" y="343" smooth="yes"/>
      <point x="396" y="343" type="curve" smooth="yes"/>
      <point x="522" y="343" smooth="yes"/>
      <point x="606" y="288" smooth="yes"/>
      <point x="606" y="212" type="curve" smooth="yes"/>
      <point x="606" y="0" type="line"/>
      <point x="676" y="0" type="line"/>
    </contour>
    <contour>
      <point x="218" y="331" type="line"/>
      <point x="166" y="350" smooth="yes"/>
      <point x="143" y="383" smooth="yes"/>
      <point x="143" y="425" type="curve" smooth="yes"/>
      <point x="143" y="471"/>
      <point x="174" y="506"/>
      <point x="261" y="506" type="curve"/>
      <point x="261" y="566" type="line"/>
      <point x="132" y="566" smooth="yes"/>
      <point x="73" y="504" smooth="yes"/>
      <point x="73" y="422" type="curve" smooth="yes"/>
      <point x="73" y="345"/>
      <point x="112" y="308"/>
      <point x="175" y="283" type="curve"/>
    </contour>
    <contour>
      <point x="495" y="566" type="line"/>
      <point x="495" y="680" type="line"/>
      <point x="726" y="680" type="line"/>
      <point x="726" y="730" type="line"/>
      <point x="-10" y="730" type="line"/>
      <point x="-10" y="680" type="line"/>
      <point x="425" y="680" type="line"/>
      <point x="425" y="566" type="line"/>
    </contour>
    <contour>
      <point x="261" y="506" type="line"/>
      <point x="495" y="506" type="line"/>
      <point x="495" y="566" type="line"/>
      <point x="261" y="566" type="line"/>
    </contour>
  </outline>
</glyph>
<glyph name="hadeva_viramadeva_radeva" format="1">
  <advance width="621"/>
  <outline>
    <contour>
      <point x="427" y="353" type="line"/>
      <point x="240" y="156" type="line"/>
      <point x="289" y="111" type="line"/>
      <point x="479" y="328" type="line"/>
    </contour>
    <component  base="hadeva"/>
  </outline>
</glyph>
